<?xml version="1.0" encoding="utf-8"?>
<!-- Generator: Adobe Illustrator 25.2.1, SVG Export Plug-In . SVG Version: 6.00 Build 0)  -->
<svg version="1.1" id="Camada_1" xmlns="http://www.w3.org/2000/svg" xmlns:xlink="http://www.w3.org/1999/xlink" x="0px" y="0px"
	 viewBox="0 0 1076.6 342" style="enable-background:new 0 0 1076.6 342;" xml:space="preserve">
<style type="text/css">
	.st0{fill:#06000C;}
	.st1{fill:url(#SVGID_1_);}
	.st2{fill:#E6EAE9;}
	.st3{fill:#E6EAE9;stroke:#E6EBEC;stroke-width:2;stroke-miterlimit:10;}
</style>
<g>
	<path class="st0" d="M0,284.9c0.7,0.2,1.4,0.4,2.1,0.6l1.6,0.4c-1.3-0.8-2.6-1.6-3.8-2.5V284.9z"/>
	<path class="st0" d="M142,289.8l-0.6-0.1c0,0-0.1,0-0.1,0L142,289.8z"/>
	<path class="st0" d="M239,245.1l-0.8-0.2c0,0-0.1,0-0.1,0L239,245.1z"/>
	<polygon class="st0" points="555.5,-55.2 555.3,-55.1 555.3,-55.1 	"/>
	<path class="st0" d="M555.8,0.2c-2.5,1.3-5.4,2.4-8.5,3.3c-10.7,3.5-21.8,6.5-33.3,9c-34.9,7.6-70.6,14.2-106.9,19.6
		c-19.8,2.9-39.8,5.4-58.6,7.5c-18.8,2.1-36.5,3.7-51.8,4.7c-7.6,0.4-14.6,0.9-20.8,1c-6.2,0-11.7,0.3-16.4,0.2l-14-0.5h14
		c4.5,0,9.9-0.3,16.1-0.6s13.1-0.9,20.7-1.3c15.1-1.2,32.8-2.9,51.4-5.1c18.7-2.2,38.5-4.9,58.1-8c36.4-5.1,72.2-11.3,107.4-18.6
		c7-1.7,13.7-2.9,19.3-4.4c4.9-1.1,9.8-2.4,14.4-3.9c3.1-0.8,6.1-1.8,8.7-3.1l2.6-1.2l0.1-0.1l-0.1,0l-3.7,0.8l-4.1,1l-5.9,0.8
		c-4.1,0.6-9.3,1.1-15.4,1.8c-6.1,0.8-13.1,1.3-20.5,2.3c-14.8,1.6-32.2,3.6-50.6,6c-18.4,2.3-37.8,5-57.3,7.8
		c-13.6,2.1-27.1,4.1-40.3,6.2l1.9-3.9c22-3.6,43.5-8,64.4-13.4c39.3-9.9,76.1-23.5,99.5-36.9c5.4-3,10.4-6.3,14.9-9.7
		c3.6-2.7,6.9-5.6,9.6-8.7c1.6-1.9,2.7-3.8,3.5-5.8l1-2.1l0,0l-1.9,1.7c-1.8,1.7-3.8,3.3-5.9,4.9c-3.6,2.4-7.5,4.6-11.5,6.8
		c-5.3,2.7-10.8,5.3-16.7,7.6c-25.4,10.5-62.6,22-100.9,31.9C383.1,6.8,347,14.6,310.1,21.3c-15.1,2.8-27.9,4.5-36.8,5.9L259.1,29
		l14-2.1c8.9-1.4,21.4-3.7,36.4-6.6C346,13.3,381.9,5.2,416.9-4c38.4-9.6,75.7-20.7,101.3-31c6.6-2.5,12-5.1,17-7.3
		c4.2-2,8.2-4.1,11.9-6.4c2.3-1.5,4.4-3.1,6.3-4.8l2-1.6l-3.1,1.4c-2.8,1.4-5.7,2.7-8.7,3.9c-4.1,1.3-8,2.8-13.7,4.5
		c-5.7,1.7-11.6,3.5-18.8,5.2c-7.1,1.7-14.4,3.8-22.3,5.8c-7.9,2-16.7,4-25.2,6.4c-17.7,4.3-36.3,9-55.1,13.8
		c-11.7,3.1-23.4,6.1-34.8,9c1.3-4.1,2.1-7.3,2.4-9.7c101.6-17.9,159.2-77.4,142.5-109.1C519.1-70,334.7-3.5,153.4,17
		C46.6,29.1,100,77.3,0,98.1v54c5.5-0.9,11.3-1.4,17-1.4c7.6,0,15.1,0.4,22.6,1.2c13.7,1.4,27.1,3.7,39.9,6.8
		c10.4,2.5,17.2,4.5,17.2,4.5s-1.9,0-5.2-0.5l0.1-0.1c-3.2-0.5-7.9-0.9-13.3-1.8c-10.9-1.6-25.4-3.6-40-5.1
		c-7.1-0.8-14.2-1.3-21.4-1.5c-3.4,0-6.7-0.2-9.8,0c-2.4,0-4.7,0.1-7.1,0.3v16.4c7.5,1.2,14.9,2.7,22.1,4.5
		c10.4,2.5,17.2,4.5,17.2,4.5l-5.1-0.6l0.1-0.1c-3.2-0.4-7.9-0.9-13.3-1.8c-6.1-0.9-13.3-1.9-21-2.9v50.9c1.3-3.1,2.7-6.2,4.3-9.3
		c2.1-4.3,4.9-8.4,8.5-12.4c-0.9,1.1-1.6,2.3-2.3,3.4c-1.3,2.3-2.6,5.4-4.1,9.2c-2.1,5.3-4.4,11.9-6.4,19v47.1
		c0.1,0.1,0.2,0.3,0.3,0.4c2.3,1.9,3.8,2.9,3.8,2.9c-0.6-1.2-1.1-2.4-1.5-3.7v-4c0.4-1.6,0.5-3.2,0.9-5L7,260.7
		c1.3-4.6,2.6-9.6,3.6-14.7c1.1-5.4,2.1-10.9,2.6-16.1c5.7,0.1,11.2,0.1,16.6,0c-3.1,8.9-4.4,17.9-3.8,26.9c0.5,3.5,0.6,7,1.7,10.5
		c0.8,3.4,2,6.8,3.7,10.1c1.4,3.2,3.3,6.3,5.7,9.3c1.2,1.4,2.1,2.8,3.4,4.2c1.3,1.3,2.9,2.5,4.1,3.7c1.2,1.2,2.6,2.3,4.1,3.3
		c1.5,1,3.2,1.8,4.6,2.7c2.3,1.5,5.1,2.8,8.2,3.8c2.4,0.8,4.9,1.5,7.5,2.1l0.3,0.2c0,0,0-0.1-0.1-0.1c0.1,0,0.2,0.1,0.3,0.1
		l-0.5-0.2c-0.4-0.6-1.6-2.1-3.2-4.2c-1.3-1.6-2.2-3.2-2.9-4.9c-1.2-2.1-2-4.2-2.5-6.4c-0.9-2.5-1.5-5-1.8-7.6
		c-0.7-2.6-1-5.5-1.4-8.5c-0.3-3-0.5-6.1-1-9.2c-0.5-3.1-0.4-6.4-0.7-9.6c-0.5-6.5-1.1-13.1-1.6-19.2c-0.2-2.8-0.5-5.5-0.9-8.1
		c4.1-0.3,7.8-0.6,11.7-1c-0.3,7.1,1,14.2,3.8,21.1c1.5,3.7,3.4,7.4,5.9,10.9c2.4,3.5,5.3,6.9,8.7,10.2c3.2,3.1,7.1,6,11.5,8.7
		c4,2.4,8.4,4.6,13.3,6.4c4.2,1.5,8.8,2.7,13.6,3.6c3.6,0.7,7.3,1.1,11.1,1.2c2.9,0,5.8-0.1,8.7-0.2l-7.9-1
		c-3.3-0.6-6.4-1.3-9.4-2.3c-3.9-1.2-7.6-2.6-11-4.2c-3.8-2-7.3-4.2-10.4-6.5c-3.5-2.6-6.6-5.4-9.1-8.3c-2.7-3.1-5.1-6.3-7.1-9.6
		c-2.1-3.4-3.8-6.8-5.2-10.3c-2.7-6.8-4.5-13.8-5.2-20.8c-0.6-6.1-0.3-12.2,0.7-18.3c0.6-4.3,1.8-8.6,3.5-12.8l2-4.8l-1.4,4.8
		c-1.1,4.2-1.8,8.5-2.1,12.8c-0.5,6-0.4,12.1,0.4,18.1c0.8,6.9,2.6,13.7,5.4,20.5c1.3,3.4,2.9,6.8,4.9,10.2c1.9,3.2,4.2,6.4,6.8,9.4
		l0.1,0.1c2.4,2.9,5.2,5.6,8.5,8.2c2.8,2.3,6.1,4.5,9.6,6.6c3.2,1.6,6.6,3.1,10.2,4.4c2.8,1,5.8,1.8,8.9,2.5l7.9,1.3
		c0.2,0,0.5,0,0.7,0c0,0-3-1.2-7.6-2.8c-2.6-1.1-5-2.2-7.2-3.5c-2.7-1.6-5.2-3.3-7.6-5c-2.5-2.2-4.7-4.5-6.7-6.8
		c-2.3-2.6-4.3-5.2-6-7.9c-2-2.8-3.4-5.9-5.2-8.8c-1.7-3-3.1-6.2-4.1-9.5c-2.7-6.4-4.7-13-6.6-19.3l2.4-2.1c5.2-0.9,10.4-1.9,15.5-3
		c1.2,3.1,2.7,6.2,4.7,9.2c2.2,3.5,5,6.8,8.2,10c3.3,3,7.1,5.8,11.4,8.4l6.4,3.5c2.3,0.9,4.7,1.8,6.9,2.6c3.9,1.6,8.3,2.7,13,3.4
		c2,0.4,3.8,0.8,5.5,1l5,0.2c2.8,0.1,5.5,0.1,8.3,0l0.5,0.1c0,0-0.1,0-0.2-0.1c0.2,0,0.4,0,0.6,0l-1-0.2c-1-0.5-3.3-1.5-6.3-2.8
		l-3.5-1.5c-1-0.7-2.3-1.4-3.4-2.1c-2.8-1.5-5.2-3.1-7.3-5l-3.6-2.9l-3.1-3.4c-2.2-2.4-4.1-4.9-5.7-7.4c-1.5-2.8-3.3-5.5-4.5-8.5
		c-1.3-3-2.7-6-3.6-9c-0.3-0.8-0.5-1.6-0.8-2.4c6-1.7,11.8-3.6,17.5-5.6c2.4,3.3,5.2,6.5,8.5,9.6c3,2.7,6.3,5.3,9.9,7.8
		c3.4,2.4,7.2,4.7,11.3,6.8c7.3,3.9,15.7,7.1,24.9,9.5c6.9,1.8,14.3,2.9,21.9,3.3c2.6,0,5.2-0.1,7.7-0.4l-5.8-1.2
		c-5.7-1.7-11-3.7-15.8-6.1c-2.8-1.5-6.2-3.1-9.2-5c-3.2-1.9-6.3-3.9-9.1-6c-6.5-4.5-12.5-9.3-17.9-14.2c-5.3-5-9.9-10.1-13.7-15.5
		c-1.9-2.5-3.4-5-4.5-7.6c-1.1-2.3-1.9-4.6-2.5-7c-0.3-2-0.4-4-0.2-6.1c0.7-1.8,1.1-3.4,1.8-4.5l3.3-3.6l-2.7,3.7
		c-0.5,1.2-0.6,2.8-1,4.5c0.2,1.7,0.4,3.7,0.9,5.9c0.7,2.3,1.7,4.6,3,6.8c1.4,2.5,3,4.9,4.8,7.3c4,5.2,8.6,10.3,13.9,15.1
		c9.7,9.2,21.4,17.6,34.8,25.3l-0.3,0l7.9,4l6.7,2.7l5.7,1.5c0.3,0,0.6-0.1,1-0.1l-4.2-3.6c-1.2-1.2-2.5-2.7-4.1-4.1
		c-1.6-1.4-2.9-3.4-4.6-5.3c-7.7-9-16.1-17.7-25.4-26.2c-2.5-2.3-5-4.5-7.4-6.8c-1.6-1.5-3.3-2.9-4.9-4.3c4.1-1.9,8.2-4,12.3-6
		c1.8,1.5,3.6,3,5.5,4.5c6.8,5,14.7,9.6,23.5,13.6c4.3,1.9,8.9,3.6,13.7,5.1c4.5,1.4,9.2,2.6,14,3.4c4.3,0.8,8.7,1.3,13.2,1.5
		c3.5,0.2,7.1,0.2,10.6-0.3c2.9-0.4,5.6-1,8.2-1.8l-6.3-0.3c-2.5-0.1-4.9-0.4-7.2-0.9c-3.1-0.5-6.1-1.2-8.8-2.3
		c-3.4-1-6.6-2.1-9.5-3.5c-3.4-1.4-6.6-2.9-9.5-4.5c-6.4-3.6-12.5-7.4-18-11.4c-10-7.6-18.8-15.7-26.4-24.2
		c-6.2-6.9-9.5-11.7-9.5-11.7s4.1,4.5,11.3,11.1c8.4,8.2,17.6,16.1,27.6,23.6c5.3,4,11.1,7.8,17.3,11.3c5.3,3.2,11.2,6,17.8,8.3
		c2.5,1,5.3,1.9,8.2,2.5c2.1,0.6,4.4,1.1,6.8,1.3l6.3,0.6l-6.3-3c-1.9-1.1-3.7-2.3-5.4-3.5c-2.1-1.5-4-3.1-5.8-4.7
		c-2.1-1.5-4.1-3.7-6.3-5.5c-2.3-1.8-4.5-4.2-7.2-6.2c-2.6-2-5-4.5-7.9-6.6c-2.9-2.1-5.8-4.5-8.7-6.8c-2.9-2.3-7.1-5.1-10.8-7.6
		c2.8-1.8,5.7-3.7,8.5-5.6c2.5,2.6,5.6,5,8.5,7.4c3.6,2.6,7.5,5,11.8,7.3c4.1,2.3,8.6,4.3,13.4,6.1c8.5,3.3,18.1,5.8,28.1,7.3
		c4,0.5,8.1,0.9,12.3,1.1c3.2,0.2,6.5,0.2,9.8,0c2.9-0.1,5.7-0.3,8.5-0.7l-2.1-0.3c-2-0.2-3.9-0.6-5.8-1c-2.9-0.7-5.8-1.5-8.5-2.5
		c-3.5-1.2-6.9-2.5-10.1-3.9c-17.1-7.7-32.8-16.3-46.8-25.7c-12.1-8-23.1-16.4-33.1-25.3c-1.7-1.6-3.4-3.1-4.8-4.5
		c-3.4-3.5-6.2-7.2-8.2-11c2.9,3.6,6.2,7.1,10,10.4l3.2,2.7c11,9.1,23,17.9,35.9,26.3c7.7,5,15.5,10,23.3,14.4
		c6.9,4.1,14.2,8,21.9,11.7c3.3,1.7,6.7,2.9,9.5,4.2c2.5,1,5.2,1.9,7.9,2.8c1.8,0.5,3.6,0.9,5.6,1.2l2.1,0.4c0,0-1.8-1.6-5-3.8
		c-3.2-2.2-7.4-5.4-12-8.7l-31.5-23.4c-5.8-4.3-11.8-8.6-17.8-12.7c1-0.9,2.1-1.7,3-2.6c3.1,2.3,6.6,4.4,10.4,6.4
		c12,6.4,27.2,10.5,43.7,11.9c6.3,0.5,12.7,0.1,18.7-1.1c2.3-0.5,4.3-1.3,6.1-2.2l0.3,0c-1.7-0.8-3.2-1.6-4.7-2.6l-3.8-2.9
		c-1.3-1.2-2.7-2.3-4.1-3.8c-3.3-3-6.9-5.8-10.9-8.5c-4.5-3.1-9.4-6-14.7-8.7c-5.9-3.1-12.4-5.8-19.3-8.2c0.9-0.9,1.8-1.8,2.7-2.7
		c6.3,2.1,12.7,4.1,19.4,5.9c23.5,6.5,48.8,10.7,74.8,12.5c9,0.6,18.2,0.6,27.2,0.2c2.7-0.1,5.4-0.4,8-0.9c0.9-0.2,1.7-0.4,2.5-0.6
		h-0.8l-2.1-0.7c-1.3-0.4-3.3-1.4-5.7-2.4c-4.9-2.3-11.8-5.3-20.3-8.7c-20.3-8.1-41.9-15.3-64.5-21.3c-6.5-1.7-13.1-3.4-19.7-5
		c1.8-2.1,3.4-4.1,5.1-6.1c17.2,6.5,36.3,11.2,56.5,14c22.5,3.2,46.7,3.9,65.5,1.5c4.4-0.5,8.6-1.3,12.7-2.3
		c3.4-0.7,6.6-1.7,9.5-2.9c2.1-0.8,3.8-1.8,5.2-3c0.3-0.2,0.5-0.5,0.8-0.7c0.1,0,0.3-0.1,0.4-0.1h-0.3c0.1-0.1,0.2-0.2,0.3-0.2
		c-0.2,0.1-0.5,0.2-0.8,0.2h-1.7c-2-0.1-3.9-0.3-5.7-0.7c-6.3-1.2-12.5-2.7-18.5-4.3c-7.4-1.8-16.4-4-25.8-5.9
		c-9.5-1.9-20-3.7-30.6-5.3c-18.5-2.6-37.4-4-56.4-4.2c1.5-2,2.9-4,4.1-6c19.2,1.3,38.6,1.8,57.9,1.6c33.9-0.2,67.5-3.3,99.7-9
		c11.2-2,21.8-4.9,31.5-8.5c3.1-1.1,5.6-2.6,7.5-4.3c0.5-0.6,0.6-1.2,0.5-1.9c-0.3,0.6-0.8,1.1-1.6,1.5c-2.3,1.1-4.9,2-7.9,2.5
		c-10.3,2-21,3.4-31.8,4.1c-32.7,2.4-65.6,3.8-98.6,4.2c-36,0.3-71.9-0.2-98.8-1.4c-10.8-0.4-21.6-1.2-32.3-2.3
		c-4.1-0.4-8.1-0.9-12-1.6c4,0.5,8.2,0.9,12.3,1.2c7.7,0.6,18.9,1,32.3,1.5c26.8,0.9,62.8,1,98.6,0.4c32.8-0.1,65.6-1.2,98.3-3.3
		c10.8-0.6,21.4-1.7,31.8-3.3c2.9-0.4,5.6-1.2,7.9-2.3c0.8-0.4,1.4-0.9,1.7-1.5c-0.7,0.5-1.6,0.9-2.7,1.2c-2.8,0.3-5.6,0.5-8.5,0.5
		c-7.6,0-18.7-0.4-32-1c-26.6-1.2-61.9-1.9-97.2-1.5c-14.4,0.2-28.7,0.6-42.5,1.1l0.7-1l5-0.3c9.7-0.8,19.8-1.5,29.8-2.7
		c10-1.2,20.5-2.3,30.3-3.9c19.8-3,39.1-6.7,58-11.1c16.6-3.8,32.7-8.3,48-13.6c11.3-3.8,21.7-8.2,31.2-13.2
		c2.8-1.3,5.1-2.9,6.9-4.7l1.8-1.7L555.8,0.2z M53.4,292.6c1.3,2.2,3,4.2,5.2,6.2c1.3,1.6,3,3.2,5.1,4.5l3.8,2.4l-4.3-2.3
		c-2.3-1.3-4.3-2.7-5.9-4.3c-2.5-1.9-4.5-4-5.9-6.1c-2.1-2.5-3.7-5-4.9-7.7c-1.7-3-2.9-6-3.8-9c-1.2-3.1-1.8-6.4-2.5-9.7
		s-0.9-6.8-1.4-10.1c-0.4-6.8,0-13.6,0.4-19.9c0.4-6.3,1.7-12.2,2.8-17.3c2.3-10.1,4.8-16.7,4.8-16.7s-1.4,6.8-2.7,16.8
		c-1.8,12.3-2.3,24.7-1.6,37c0.4,3.3,0.4,6.8,1.1,10c0.7,3.2,1.1,6.6,2.1,9.6c0.8,3,1.9,5.9,3.2,8.9
		C50.1,287.5,51.6,290.1,53.4,292.6z M117.1,62.7c1.8-1.7,3.9-3.3,6.3-4.7c2.9-2,6.1-3.8,9.5-5.4c4-2.1,8.2-4,12.7-5.8
		c4.9-2,10.1-3.9,15.5-5.5c11.4-3.6,23.4-6.7,35.7-9.3c25-5.3,50.5-8.8,69.3-11.8c9.5-1.5,17.1-2.9,22.5-4l8.5-2
		c0,0-2.5,1.2-6.9,3.3c-6.6,2.7-13.6,5-20.9,7c-18.1,4.9-43.1,9.7-67.2,14.9c-6.2,1.2-12,2.6-18,3.9s-11.7,2.6-17,4.2
		c-10,2.5-19.6,5.4-28.9,8.6c-3.7,1.3-7.4,2.6-10.9,4.1c-2.9,1-5.6,2.2-8.2,3.5l-7.2,3.2L117.1,62.7z M100.7,90
		c1.2-1.4,2.7-2.7,4.5-3.8c2.1-1.7,4.5-3.2,7.2-4.5c6.6-3.5,14.2-6.3,22.4-8.5c4.6-1.2,9.2-2.3,14-3.2c5-0.9,9.9-1.8,14.9-2.5
		c18.4-2.3,37.2-3.4,56-3.3c15.2,0,25.4,0.5,25.4,0.5c-7.9,1.7-16.1,3.1-24.4,4.1h0.1c-7.4,1-16,2-25.1,3.1
		c-9.1,1.1-18.8,2.1-28.3,3.5c-9.3,1.2-18.5,2.6-27.5,4.3c-4.1,1-8.5,1.6-12,2.7c-3.6,0.8-7,1.8-10.4,2.9c-3,0.9-5.8,1.8-8.5,2.9
		c-2.2,0.8-4.3,1.7-6.2,2.8l-5.4,2.5C97.6,93.5,98.6,92.2,100.7,90z M143.2,244.5l4.5,3.4l5.1,2.8c2.9,1.7,6.1,3.1,9.7,4.3l4.3,1.7
		l4.1,0.9l4.5,1l-4.4-0.7l-4.3-0.7l-4.7-1.5c-3.9-1-7.4-2.4-10.5-4.1l-5.4-2.8l-4.9-3.4c-3.4-2.5-6.4-5.2-8.9-8
		c-2.5-3-4.7-6.2-6.6-9.4c-1.9-3.3-3.5-6.6-4.6-10c-2.2-6.7-3.2-13.4-3.2-20.2c0-5.9,0.9-11.7,2.7-17.5c1.3-4.1,3.2-8.2,5.9-12.1
		c2.2-2.7,3.7-4.2,3.7-4.2s-1.3,1.6-3.2,4.4c-2.1,4-3.6,8-4.4,12.1c-1.3,5.8-1.8,11.6-1.6,17.4c0.1,6.7,1.3,13.3,3.6,19.8
		c1,3.3,2.3,6.6,4.1,9.8c1.7,3.1,3.8,6.2,6.2,9.2C137.4,239.4,140.1,242,143.2,244.5z M133.2,144.6c-3.3-0.5-7.9-0.9-13.3-1.8
		c-10.9-1.6-25.4-3.6-40-5.1c-7-0.8-14-1.3-21.1-1.6c-3.4,0-6.7-0.2-9.8,0c-2.9,0-5.9,0.2-8.7,0.5c-2.5,0.2-4.9,0.5-7.2,0.9
		c-1.9,0.3-3.7,0.6-5.4,1.2l-4.6,1.3l3.8-2c1.5-0.8,3.2-1.4,5-1.9c2.3-0.8,4.7-1.4,7.3-1.8c6.4-1.2,13-1.8,19.7-1.8
		c7.6,0,15.2,0.4,22.6,1.2c13.7,1.5,27.1,3.8,40,6.9c10.4,2.5,17.1,4.5,17.1,4.5L133.2,144.6z M163.5,119.2
		c-12.3,0.2-28.4,0-44.5,0.5l-0.4,0.1c-14.6,0.1-29.2,1-43.5,2.7c-4.8,0.5-9.4,1.4-13.8,2.5c-3.2,0.9-5.2,1.3-5.2,1.3
		s1.3-0.9,4.1-2.3c3.8-1.9,8.1-3.5,12.7-4.8c6.6-1.8,13.5-3.1,20.7-3.9c8.1-0.9,16.3-1.5,24.6-1.8c15.4-0.4,30.7,0.4,45.8,2.1
		c5,0.6,9.9,1.3,14.7,2.3c1.8,0.3,3.6,0.8,5.3,1.3C184,119.2,175.8,118.9,163.5,119.2z M211.1,116.4c-0.2-0.4-0.2-0.8,0-1.1l0.4,1.2
		c0,0.3,0,0.8,0.2,1.3C211.5,117.1,211.3,116.8,211.1,116.4z M202.1,97.1c-15.5,0.9-36.1,1.4-56.3,2.3c-10.1,0.4-20.1,0.9-29.4,1.7
		c-4.7,0.3-8.9,0.9-13.2,1.3c-4.3,0.4-8.2,1.1-11.5,1.7c-3.2,0.6-6.3,1.3-9.4,2.1c-2.4,0.6-4.7,1.3-6.8,2.1l-5.7,2.4
		c0,0,1.1-1.3,3.6-3.6c1.6-1.3,3.6-2.5,5.7-3.6c2.7-1.4,5.7-2.7,9-3.8c3.8-1.2,7.8-2.3,11.9-3.3c4.5-1,9.2-1.8,13.9-2.5
		c10.1-1.4,20.5-2.4,30.9-2.8c19.3-0.7,38.6-0.3,57.7,1.2c15.5,1.2,25.8,2.5,25.8,2.5C219.6,95.9,210.9,96.7,202.1,97.1z
		 M325.5,152.3c3.1,1.2,6.2,2,8.8,2.8c2.3,0.7,4.7,1.2,7.2,1.7c1.6,0.3,3.2,0.4,4.9,0.5l0.7,0h-0.9c-1.7,0-3.4,0-5-0.2
		c-2.6-0.3-5.1-0.8-7.6-1.3c-3.2-0.7-6.3-1.5-9.3-2.5c-15.8-5.2-30.7-11.2-44.4-17.9c-10-4.9-19.7-9.9-28.1-14.6
		c-4.1-2.3-8.2-4.5-11.5-6.6c-10.2-6.1-16.4-10.4-16.4-10.4s7,3.9,17.9,9.6l9.4,4.9c9.3,4.8,20,10.2,31.1,15.5
		C296,140.5,310.4,146.7,325.5,152.3z M323,113.9c24.8,6.8,50,13,69.2,17.3c9.7,2.1,17.6,3.9,23.5,4.8c2.1,0.4,4.4,0.7,6.6,0.9
		c-2.1-0.1-4.2-0.3-6.3-0.6c-8.2-1.1-16.2-2.5-24.1-4.1c-23.9-4.9-47.3-10.4-70.1-16.6c-12.3-3.4-24.6-6.9-36-10.5
		c-10.5-3.2-20.6-6.7-30.4-10.5c-3.9-1.5-7.7-3.1-11.3-4.8c-2.8-1.3-5.5-2.7-7.9-4.3c-1.6-0.9-3-2-4.1-3.2l-1.3-1.2l1.4,1.2
		c1.2,1.1,2.7,2.1,4.4,3c2.5,1.4,5.3,2.7,8.2,3.9c3.5,1.3,7.2,3,11.6,4.5c8.6,3.1,19,6.4,30.5,9.8
		C298.4,107.1,310.6,110.5,323,113.9z M274.8,76.9l20.1,3.3c17.6,2.8,37.6,6,57.9,8.9c25.9,4.2,52.2,7.6,78.9,10.2
		c8.7,0.9,17.6,1.3,26.5,1.2c0.9,0,1.9,0,2.8-0.1c-0.9,0.1-1.8,0.2-2.8,0.2c-8.9,0.5-17.9,0.3-26.8-0.4C404.6,98,378,94.9,351.9,91
		c-20.2-3.2-40.2-6.6-57.8-9.6l-19.9-3.5c-21-3.9-34.8-6.8-34.8-6.8L274.8,76.9z"/>
	<polygon class="st0" points="558.6,-1.1 558.3,-1 558.3,-1 	"/>
</g>
<g>
	<path class="st0" d="M1076.6,284.9c-0.6,0.2-1.3,0.4-2,0.6l-1.5,0.4c1.2-0.8,2.4-1.6,3.5-2.5V284.9z"/>
	<path class="st0" d="M944.9,289.8l0.6-0.1c0,0,0.1,0,0.1,0L944.9,289.8z"/>
	<path class="st0" d="M854.9,245.1l0.8-0.2c0,0,0.1,0,0.1,0L854.9,245.1z"/>
	<polygon class="st0" points="561.5,-55.2 561.6,-55.1 561.6,-55.1 	"/>
	<path class="st0" d="M558.8-1l1.7,1.7c1.7,1.8,3.8,3.4,6.4,4.7c8.8,5,18.5,9.5,29,13.2c14.2,5.2,29.1,9.7,44.5,13.6
		c17.5,4.4,35.4,8.1,53.8,11.1c9.1,1.6,18.8,2.7,28.1,3.9c9.3,1.2,18.6,1.9,27.6,2.7l4.6,0.3l0.6,1c-12.9-0.5-26.1-0.9-39.5-1.1
		c-32.8-0.4-65.5,0.3-90.1,1.5c-12.3,0.6-22.6,1-29.7,1c-2.6,0-5.3-0.2-7.9-0.5c-1-0.3-1.8-0.7-2.5-1.2c0.3,0.6,0.8,1.1,1.6,1.5
		c2.1,1.1,4.7,1.8,7.4,2.3c9.6,1.6,19.5,2.8,29.5,3.3c30.3,2.1,60.7,3.2,91.1,3.3c33.2,0.6,66.6,0.5,91.4-0.4
		c12.5-0.5,22.8-0.9,30-1.5c3.8-0.3,7.6-0.7,11.4-1.2c-3.7,0.6-7.4,1.2-11.2,1.6c-9.9,1.1-19.9,1.8-30,2.3
		c-24.9,1.1-58.3,1.7-91.6,1.4c-30.6-0.4-61.1-1.9-91.4-4.2c-10.1-0.7-19.9-2.1-29.5-4.1c-2.7-0.5-5.2-1.4-7.3-2.5
		c-0.7-0.4-1.2-1-1.4-1.5c-0.1,0.6,0.1,1.3,0.5,1.9c1.7,1.7,4.1,3.2,6.9,4.3c9,3.6,18.8,6.5,29.2,8.5c29.9,5.7,61.1,8.8,92.5,9
		c18,0.3,35.9-0.3,53.7-1.6c1.1,2,2.4,4,3.8,6c-17.7,0.2-35.2,1.6-52.3,4.2c-9.8,1.5-19.6,3.4-28.4,5.3c-8.8,1.9-17.1,4.1-24,5.9
		c-5.6,1.6-11.3,3-17.1,4.3c-1.7,0.4-3.5,0.6-5.3,0.7h-1.6c-0.2-0.1-0.5-0.2-0.7-0.2c0.1,0.1,0.2,0.2,0.3,0.2h-0.3
		c0.1,0,0.2,0.1,0.4,0.1c0.2,0.2,0.5,0.5,0.7,0.7c1.2,1.2,2.9,2.2,4.8,3c2.7,1.2,5.7,2.2,8.8,2.9c3.8,1,7.7,1.8,11.8,2.3
		c17.4,2.4,39.9,1.7,60.8-1.5c18.7-2.8,36.4-7.6,52.4-14c1.5,2.1,3.1,4.1,4.7,6.1c-6.1,1.6-12.2,3.2-18.3,5c-21,6-41,13.2-59.8,21.3
		c-7.8,3.5-14.3,6.5-18.8,8.7c-2.3,1-4.1,2.1-5.3,2.4l-2,0.7h-0.8c0.7,0.2,1.5,0.4,2.3,0.6c2.4,0.5,4.9,0.8,7.4,0.9
		c8.4,0.5,16.9,0.4,25.3-0.2c24.1-1.8,47.6-6.1,69.4-12.5c6.3-1.8,12.2-3.8,18-5.9c0.8,0.9,1.7,1.8,2.5,2.7
		c-6.4,2.4-12.4,5.1-17.9,8.2c-4.9,2.7-9.4,5.6-13.6,8.7c-3.6,2.7-7,5.6-10.1,8.5c-1.3,1.5-2.6,2.6-3.8,3.8l-3.6,2.9
		c-1.4,0.9-2.8,1.8-4.4,2.6l0.3,0c1.6,1,3.5,1.7,5.6,2.2c5.6,1.2,11.5,1.5,17.4,1.1c15.2-1.4,29.4-5.5,40.5-11.9
		c3.5-2,6.8-4.1,9.7-6.4c0.8,0.9,1.9,1.7,2.8,2.6c-5.5,4.1-11.1,8.4-16.5,12.7L784.2,181c-4.3,3.3-8.2,6.5-11.1,8.7
		c-2.9,2.2-4.6,3.8-4.6,3.8l2-0.4c1.8-0.3,3.5-0.7,5.2-1.2c2.5-0.8,5-1.7,7.4-2.8c2.6-1.2,5.8-2.5,8.8-4.2
		c7.1-3.7,13.9-7.6,20.4-11.7c7.3-4.4,14.5-9.4,21.6-14.4c11.9-8.4,23.1-17.2,33.3-26.3l3-2.7c3.5-3.3,6.7-6.8,9.3-10.4
		c-1.9,3.8-4.4,7.5-7.6,11c-1.4,1.4-2.9,3-4.5,4.5c-9.3,8.8-19.5,17.3-30.7,25.3c-13,9.4-27.5,18.1-43.4,25.7
		c-3,1.4-6.1,2.7-9.4,3.9c-2.5,0.9-5.1,1.8-7.9,2.5c-1.7,0.4-3.5,0.8-5.4,1l-2,0.3c2.6,0.4,5.2,0.6,7.9,0.7c3,0.2,6.1,0.2,9.1,0
		c3.8-0.2,7.6-0.5,11.4-1.1c9.3-1.5,18.2-4,26.1-7.3c4.5-1.8,8.6-3.8,12.5-6.1c3.9-2.3,7.6-4.7,10.9-7.3c2.7-2.4,5.6-4.8,7.9-7.4
		c2.6,1.9,5.2,3.8,7.9,5.6c-3.4,2.5-7.3,5.3-10,7.6c-2.7,2.3-5.4,4.7-8.1,6.8s-4.9,4.6-7.4,6.6c-2.4,2-4.6,4.4-6.6,6.2
		c-2.1,1.8-3.9,4-5.9,5.5c-1.6,1.6-3.4,3.2-5.4,4.7c-1.5,1.2-3.2,2.4-5,3.5l-5.9,3l5.9-0.6c2.2-0.2,4.3-0.6,6.3-1.3
		c2.7-0.6,5.3-1.4,7.6-2.5c6.1-2.3,11.6-5.2,16.5-8.3c5.8-3.5,11.1-7.3,16-11.3c9.3-7.6,17.8-15.5,25.6-23.6
		c6.7-6.6,10.5-11.1,10.5-11.1s-3.1,4.8-8.8,11.7c-7,8.4-15.2,16.5-24.5,24.2c-5.1,4-10.7,7.9-16.7,11.4c-2.7,1.6-5.7,3.2-8.8,4.5
		c-2.7,1.4-5.6,2.5-8.8,3.5c-2.5,1-5.2,1.8-8.1,2.3c-2.1,0.5-4.4,0.9-6.6,0.9l-5.9,0.3c2.4,0.8,4.9,1.4,7.6,1.8
		c3.2,0.4,6.6,0.5,9.8,0.3c4.2-0.2,8.3-0.7,12.3-1.5c4.5-0.9,8.9-2,13-3.4c4.4-1.5,8.7-3.2,12.7-5.1c8.2-4,15.5-8.5,21.8-13.6
		c1.8-1.5,3.5-3,5.1-4.5c3.8,2.1,7.6,4.1,11.4,6c-1.5,1.4-3.1,2.8-4.6,4.3c-2.3,2.3-4.6,4.5-6.9,6.8c-8.6,8.5-16.5,17.2-23.6,26.2
		c-1.6,1.9-2.8,3.9-4.3,5.3c-1.5,1.4-2.7,2.9-3.8,4.1l-3.9,3.6c0.3,0,0.6,0.1,0.9,0.1l5.3-1.5l6.2-2.7l7.4-4l-0.3,0
		c12.4-7.6,23.3-16.1,32.3-25.3c4.9-4.8,9.2-9.9,12.9-15.1c1.7-2.4,3.2-4.8,4.5-7.3c1.2-2.2,2.1-4.5,2.8-6.8
		c0.5-2.1,0.6-4.1,0.9-5.9c-0.4-1.7-0.5-3.3-0.9-4.5l-2.5-3.7l3,3.6c0.6,1.2,1,2.7,1.7,4.5c0.2,2,0.1,4-0.2,6.1
		c-0.5,2.4-1.3,4.7-2.3,7c-1.1,2.6-2.5,5.1-4.2,7.6c-3.6,5.3-7.8,10.5-12.7,15.5c-5,4.9-10.6,9.7-16.6,14.2c-2.6,2.1-5.5,4.1-8.5,6
		c-2.8,1.9-5.9,3.4-8.5,5c-4.5,2.4-9.4,4.4-14.7,6.1l-5.4,1.2c2.3,0.3,4.7,0.5,7.2,0.4c7-0.3,13.9-1.4,20.3-3.3
		c8.5-2.4,16.2-5.7,23-9.5c3.8-2.1,7.3-4.4,10.5-6.8c3.3-2.5,6.4-5.1,9.2-7.8c3-3.1,5.6-6.3,7.9-9.6c5.3,2,10.7,3.9,16.2,5.6
		c-0.3,0.8-0.5,1.6-0.8,2.4c-0.8,3.1-2.1,6.1-3.3,9c-1.2,3-2.8,5.7-4.2,8.5c-1.5,2.5-3.3,5-5.3,7.4l-2.8,3.4l-3.3,2.9
		c-1.9,1.8-4.2,3.5-6.8,5c-1.1,0.7-2.2,1.4-3.2,2.1l-3.2,1.5c-2.8,1.3-4.9,2.4-5.9,2.8l-0.9,0.2c0.2,0,0.4,0,0.5,0
		c-0.1,0.1-0.2,0.1-0.2,0.1l0.4-0.1c2.6,0.1,5.1,0.1,7.7,0l4.7-0.2c1.6-0.2,3.3-0.6,5.1-1c4.3-0.7,8.4-1.8,12-3.4
		c2-0.8,4.3-1.7,6.4-2.6l5.9-3.5c4-2.6,7.6-5.4,10.6-8.4c3-3.2,5.5-6.6,7.6-10c1.8-3,3.2-6.1,4.3-9.2c4.7,1.1,9.5,2.1,14.4,3
		l2.2,2.1c-1.7,6.3-3.5,12.9-6.1,19.3c-0.9,3.3-2.2,6.5-3.8,9.5c-1.6,3-3,6.1-4.8,8.8c-1.6,2.7-3.4,5.3-5.6,7.9
		c-1.9,2.3-3.9,4.6-6.2,6.8c-2.2,1.7-4.5,3.4-7,5c-2.1,1.3-4.3,2.4-6.7,3.5c-4.3,1.6-7.1,2.8-7.1,2.8c0.2,0,0.4,0,0.6,0l7.3-1.3
		c2.9-0.7,5.6-1.5,8.3-2.5c3.4-1.3,6.5-2.8,9.5-4.4c3.3-2,6.3-4.2,8.9-6.6c3-2.6,5.6-5.3,7.9-8.2l0.1-0.1c2.4-3.1,4.5-6.2,6.3-9.4
		c1.8-3.3,3.3-6.7,4.5-10.2c2.6-6.7,4.3-13.6,5-20.5c0.7-6,0.8-12.1,0.3-18.1c-0.3-4.3-0.9-8.5-1.9-12.8l-1.3-4.8l1.8,4.8
		c1.6,4.2,2.7,8.5,3.3,12.8c1,6.1,1.2,12.2,0.7,18.3c-0.6,7-2.2,14-4.8,20.8c-1.3,3.5-2.9,6.9-4.8,10.3c-1.9,3.3-4.1,6.5-6.6,9.6
		c-2.3,2.9-5.2,5.7-8.4,8.3c-2.9,2.3-6.1,4.5-9.6,6.5c-3.2,1.6-6.6,3-10.2,4.2c-2.8,0.9-5.7,1.7-8.7,2.3l-7.3,1
		c2.7,0.2,5.4,0.3,8,0.2c3.5-0.1,7-0.5,10.3-1.2c4.4-0.8,8.7-2,12.6-3.6c4.5-1.9,8.6-4,12.3-6.4c4.1-2.6,7.7-5.6,10.7-8.7
		c3.2-3.2,5.9-6.6,8.1-10.2c2.2-3.6,4.1-7.2,5.4-10.9c2.6-6.9,3.8-14,3.5-21.1c3.6,0.4,7,0.7,10.8,1c-0.3,2.6-0.6,5.4-0.8,8.1
		c-0.5,6.1-1,12.7-1.5,19.2c-0.3,3.2-0.2,6.5-0.6,9.6c-0.4,3.1-0.6,6.2-0.9,9.2c-0.3,3-0.6,5.9-1.3,8.5c-0.3,2.5-0.8,5.1-1.7,7.6
		c-0.5,2.2-1.2,4.3-2.3,6.4c-0.6,1.7-1.5,3.3-2.7,4.9c-1.5,2.1-2.5,3.6-3,4.2l-0.4,0.2c0.1,0,0.2-0.1,0.3-0.1
		c-0.1,0.1-0.1,0.1-0.1,0.1l0.3-0.2c2.4-0.6,4.7-1.3,6.9-2.1c2.9-1,5.4-2.3,7.6-3.8c1.3-0.9,2.9-1.7,4.3-2.7
		c1.4-1.1,2.6-2.2,3.8-3.3c1.1-1.2,2.6-2.4,3.8-3.7c1.2-1.3,2.1-2.7,3.2-4.2c2.2-3,4-6.1,5.3-9.3c1.5-3.3,2.7-6.7,3.4-10.1
		c1.1-3.5,1.1-7,1.6-10.5c0.5-9-0.7-18-3.6-26.9c5,0.1,10.1,0.1,15.4,0c0.4,5.2,1.3,10.6,2.4,16.1c0.9,5,2.2,10,3.4,14.7l3.2,12.6
		c0.4,1.9,0.5,3.4,0.8,5v4c-0.4,1.2-0.8,2.5-1.4,3.7c0,0,1.4-1.1,3.5-2.9c0.1-0.1,0.2-0.3,0.3-0.4v-47.1c-1.8-7-4-13.6-5.9-19
		c-1.4-3.8-2.6-7-3.8-9.2c-0.6-1.2-1.3-2.3-2.1-3.4c3.3,4,5.9,8.1,7.9,12.4c1.5,3.1,2.8,6.2,4,9.3v-50.9c-7.1,1-13.8,2-19.4,2.9
		c-5.1,0.8-9.4,1.3-12.3,1.8l0.1,0.1l-4.7,0.6c0,0,6.3-2,15.9-4.5c6.7-1.8,13.5-3.2,20.5-4.5v-16.4c-2.2-0.2-4.4-0.3-6.6-0.3
		c-2.9-0.2-6,0-9.1,0c-6.7,0.3-13.3,0.8-19.8,1.5c-13.5,1.5-26.9,3.5-37.1,5.1c-5.1,0.8-9.4,1.3-12.3,1.8l0.1,0.1
		c-3,0.5-4.8,0.5-4.8,0.5s6.3-2,15.9-4.5c11.9-3.1,24.3-5.3,37-6.8c6.9-0.8,13.9-1.2,20.9-1.2c5.4,0.1,10.7,0.5,15.8,1.4v-54
		c-92.7-20.8-43.2-69-142.3-81.1C766.2-3.5,595.2-70,595.7-123.8c-15.4,31.6,38,91.2,132.2,109.1c0.3,2.3,1.1,5.6,2.2,9.7
		c-10.6-3-21.5-6-32.3-9c-17.4-4.7-34.7-9.5-51.1-13.8c-7.9-2.3-16.1-4.3-23.4-6.4c-7.3-2-14.1-4.1-20.7-5.8
		c-6.6-1.7-12.1-3.5-17.4-5.2s-8.9-3.2-12.7-4.5c-2.8-1.2-5.5-2.5-8.1-3.9l-2.9-1.4l1.8,1.6c1.8,1.7,3.7,3.3,5.9,4.8
		c3.5,2.3,7.1,4.4,11,6.4c4.6,2.3,9.6,4.9,15.7,7.3c23.7,10.3,58.3,21.4,93.9,31c32.4,9.2,65.7,17.3,99.6,24.3
		c13.9,2.8,25.5,5.1,33.8,6.6l12.9,2.1l-13.1-1.8c-8.3-1.3-20.2-3.1-34.2-5.9c-34.2-6.7-67.7-14.5-100.5-23.5
		C653-12,618.6-23.5,595-34.1c-5.4-2.3-10.6-4.9-15.5-7.6c-3.8-2.1-7.4-4.4-10.7-6.8c-2-1.6-3.9-3.2-5.5-4.9l-1.7-1.7l0,0l0.9,2.1
		c0.7,2,1.8,4,3.3,5.8c2.6,3,5.6,5.9,8.9,8.7c4.2,3.4,8.8,6.7,13.8,9.7c21.7,13.4,55.8,27,92.3,36.9C700,13.6,720,18,740.4,21.6
		l1.7,3.9c-12.2-2.1-24.8-4.2-37.4-6.2c-18.1-2.8-36.1-5.5-53.2-7.8c-17.1-2.3-33.2-4.3-46.9-6c-6.9-0.9-13.3-1.5-19-2.3
		c-5.7-0.8-10.5-1.2-14.3-1.8L566,0.6l-3.8-1l-3.4-0.8l-0.1,0L558.8-1l2.4,1.1c2.4,1.3,5.1,2.3,8.1,3.1c4.3,1.5,8.8,2.8,13.4,3.9
		c5.2,1.5,11.4,2.7,17.9,4.4c32.6,7.3,65.8,13.5,99.6,18.6c18.2,3,36.6,5.8,53.9,8c17.3,2.2,33.6,3.9,47.7,5.1
		c7,0.4,13.5,1.1,19.2,1.3s10.7,0.6,14.9,0.6h13l-13,0.5c-4.3,0.1-9.4-0.2-15.2-0.2c-5.8,0-12.3-0.6-19.3-1c-14.2-1-30.6-2.5-48-4.7
		c-17.4-2.1-36-4.6-54.3-7.5c-33.6-5.4-66.7-12-99.1-19.6c-10.7-2.5-21-5.5-30.9-9c-2.9-0.9-5.5-2-7.9-3.3L558.8-1z M1031.1,284.9
		c1.3-2.9,2.3-5.9,3-8.9c1-3.1,1.3-6.4,2-9.6c0.7-3.2,0.6-6.6,1-10c0.7-12.3,0.2-24.7-1.5-37c-1.2-10-2.5-16.8-2.5-16.8
		s2.4,6.6,4.4,16.7c1,5,2.2,10.9,2.6,17.3c0.4,6.3,0.7,13.1,0.4,19.9c-0.5,3.3-0.6,6.8-1.3,10.1s-1.2,6.6-2.3,9.7
		c-0.8,3.1-1.9,6.1-3.5,9c-1.1,2.6-2.7,5.2-4.6,7.7c-1.4,2.2-3.2,4.3-5.5,6.1c-1.4,1.6-3.3,3-5.4,4.3l-4,2.3l3.5-2.4
		c2-1.4,3.6-2.9,4.7-4.5c2-1.9,3.6-4,4.8-6.2C1028.8,290.1,1030.1,287.5,1031.1,284.9z M972.7,67l-6.7-3.2c-2.4-1.3-4.9-2.5-7.6-3.5
		c-3.2-1.5-6.6-2.9-10.1-4.1c-8.6-3.2-17.6-6.1-26.8-8.6c-4.9-1.5-10.2-2.9-15.7-4.2c-5.5-1.3-10.9-2.7-16.7-3.9
		c-22.4-5.2-45.6-10.1-62.4-14.9c-6.8-2-13.3-4.3-19.4-7c-4.1-2.2-6.4-3.3-6.4-3.3l7.9,2c5,1.1,12.1,2.5,20.9,4
		c17.4,2.9,41.1,6.5,64.3,11.8c11.4,2.6,22.5,5.7,33.1,9.3c5,1.6,9.8,3.5,14.4,5.5c4.2,1.7,8.1,3.7,11.8,5.8
		c3.2,1.7,6.2,3.5,8.8,5.4c2.3,1.4,4.2,3,5.9,4.7L972.7,67z M986.1,93.5l-5-2.5c-1.8-1-3.7-2-5.8-2.8c-2.5-1.1-5.1-2.1-7.9-2.9
		c-3.1-1.1-6.3-2-9.6-2.9c-3.3-1.1-7.4-1.7-11.2-2.7c-8.4-1.7-16.9-3.2-25.5-4.3c-8.8-1.4-17.8-2.4-26.2-3.5
		c-8.5-1.1-16.4-2-23.3-3.1h0.1c-7.7-1-15.3-2.4-22.6-4.1c0,0,9.5-0.5,23.6-0.5c17.5-0.2,34.9,0.9,51.9,3.3
		c4.7,0.7,9.3,1.6,13.9,2.5c4.4,0.9,8.8,2,13,3.2c7.6,2.2,14.7,5,20.8,8.5c2.5,1.3,4.8,2.9,6.7,4.5c1.7,1.2,3.1,2.5,4.2,3.8
		C985.2,92.2,986.1,93.5,986.1,93.5z M951.4,236.6c2.2-3,4.1-6,5.7-9.2c1.6-3.2,2.9-6.5,3.8-9.8c2.1-6.5,3.3-13.2,3.4-19.8
		c0.2-5.8-0.3-11.6-1.5-17.4c-0.8-4.1-2.2-8.1-4.1-12.1c-1.7-2.8-2.9-4.4-2.9-4.4s1.4,1.5,3.5,4.2c2.5,3.9,4.3,8,5.5,12.1
		c1.7,5.8,2.5,11.7,2.5,17.5c0,6.8-1,13.5-3,20.2c-1.1,3.4-2.5,6.8-4.3,10c-1.7,3.2-3.8,6.3-6.1,9.4c-2.3,2.8-5.1,5.5-8.3,8
		l-4.5,3.4l-5.1,2.8c-2.9,1.7-6.1,3-9.7,4.1l-4.3,1.5l-4,0.7l-4.1,0.7l4.2-1l3.8-0.9l4-1.7c3.3-1.2,6.4-2.6,9-4.3l4.7-2.8l4.1-3.4
		C946.7,242,949.2,239.4,951.4,236.6z M948,145.2c0,0,6.2-2,15.9-4.5c11.9-3.1,24.3-5.4,37.1-6.9c6.9-0.8,13.9-1.2,21-1.2
		c6.2,0.1,12.4,0.7,18.3,1.8c2.4,0.4,4.7,1,6.8,1.8c1.7,0.5,3.3,1.1,4.7,1.9l3.6,2l-4.3-1.3c-1.6-0.5-3.3-0.9-5-1.2
		c-2.2-0.5-4.4-0.8-6.7-0.9c-2.7-0.3-5.4-0.5-8.1-0.5c-2.8-0.2-6,0-9.1,0c-6.6,0.3-13.1,0.8-19.6,1.6c-13.5,1.5-26.9,3.5-37.1,5.1
		c-5.1,0.8-9.3,1.3-12.4,1.8L948,145.2z M905.9,119.2c1.6-0.5,3.2-0.9,4.9-1.3c4.4-0.9,9-1.7,13.6-2.3c13.9-1.8,28.2-2.5,42.5-2.1
		c7.7,0.2,15.3,0.8,22.8,1.8c6.6,0.8,13.1,2.1,19.2,3.9c4.3,1.3,8.3,2.9,11.8,4.8c2.6,1.4,3.8,2.3,3.8,2.3s-1.9-0.5-4.8-1.3
		c-4.1-1.1-8.4-1.9-12.8-2.5c-13.3-1.7-26.8-2.6-40.3-2.7l-0.3-0.1c-14.9-0.5-29.8-0.2-41.2-0.5S905.9,119.2,905.9,119.2z
		 M880.2,117.7c0.2-0.5,0.2-0.9,0.2-1.3l0.4-1.2c0.2,0.4,0.2,0.8,0,1.1C880.7,116.8,880.5,117.1,880.2,117.7z M865,94.8
		c0,0,9.6-1.3,24-2.5c17.7-1.5,35.7-1.9,53.5-1.2c9.7,0.4,19.3,1.4,28.7,2.8c4.4,0.7,8.7,1.5,12.9,2.5c3.8,0.9,7.5,2,11,3.3
		c3,1.1,5.8,2.3,8.3,3.8c2,1.1,3.8,2.3,5.3,3.6c2.3,2.3,3.3,3.6,3.3,3.6l-5.3-2.4c-2-0.8-4.1-1.5-6.3-2.1c-2.8-0.8-5.7-1.5-8.7-2.1
		c-3.1-0.6-6.7-1.3-10.7-1.7c-4-0.4-7.9-0.9-12.3-1.3c-8.6-0.7-17.9-1.3-27.3-1.7c-18.8-0.9-37.9-1.4-52.3-2.3
		C881,96.7,872.9,95.9,865,94.8z M814.7,133.8c10.3-5.3,20.3-10.7,28.9-15.5l8.7-4.9c10.1-5.7,16.6-9.6,16.6-9.6s-5.7,4.3-15.2,10.4
		c-3.1,2-6.9,4.3-10.7,6.6c-7.7,4.6-16.7,9.7-26,14.6c-12.7,6.8-26.5,12.8-41.2,17.9c-2.8,0.9-5.6,1.8-8.6,2.5
		c-2.3,0.6-4.7,1-7.1,1.3c-1.5,0.2-3.1,0.3-4.7,0.2h-0.9l0.7,0c1.5-0.1,3.1-0.2,4.6-0.5c2.3-0.4,4.5-1,6.7-1.7
		c2.4-0.8,5.3-1.6,8.2-2.8C788.8,146.7,802.1,140.5,814.7,133.8z M810.4,103.7c10.6-3.4,20.3-6.7,28.3-9.8c4.1-1.6,7.6-3.2,10.8-4.5
		c2.7-1.2,5.2-2.5,7.6-3.9c1.6-0.9,3-1.9,4.1-3l1.3-1.2l-1.2,1.2c-1,1.2-2.3,2.2-3.8,3.2c-2.3,1.5-4.7,2.9-7.3,4.3
		c-3.3,1.7-6.8,3.3-10.4,4.8c-9.1,3.8-18.5,7.3-28.2,10.5c-10.6,3.6-22,7.1-33.4,10.5c-21.2,6.2-42.9,11.7-65,16.6
		c-7.3,1.6-14.8,2.9-22.3,4.1c-1.9,0.3-3.9,0.5-5.8,0.6c2.1-0.2,4.1-0.5,6.1-0.9c5.4-0.9,12.8-2.7,21.8-4.8
		c17.8-4.3,41.2-10.5,64.2-17.3C788.5,110.5,799.8,107.1,810.4,103.7z M854.5,71c0,0-12.8,2.9-32.2,6.8l-18.5,3.5
		c-16.3,3.1-34.8,6.5-53.6,9.6c-24.3,4-48.9,7-73.8,9.3c-8.2,0.8-16.6,0.9-24.9,0.4c-0.9,0-1.7-0.1-2.6-0.2c0.9,0.1,1.7,0.1,2.6,0.1
		c8.2,0.1,16.5-0.3,24.6-1.2c24.7-2.6,49.1-6,73.1-10.2c18.8-2.9,37.4-6.1,53.7-8.9l18.7-3.3L854.5,71z"/>
	<polygon class="st0" points="558.6,-1.1 558.8,-1 558.8,-1 	"/>
</g>
<linearGradient id="SVGID_1_" gradientUnits="userSpaceOnUse" x1="362.1302" y1="10.5912" x2="356.1702" y2="140.5812" gradientTransform="matrix(1 0 0 1 3.000000e-02 2.39)">
	<stop  offset="0" style="stop-color:#ED8506"/>
	<stop  offset="0.16" style="stop-color:#EA7A09"/>
	<stop  offset="0.44" style="stop-color:#E25D0F"/>
	<stop  offset="0.81" style="stop-color:#D52F1B"/>
	<stop  offset="1" style="stop-color:#CD1421"/>
</linearGradient>
<path class="st1" d="M534,54.3L534,54.3l-0.9,0.3l-1,0.4l-1.4,0.3c-1,0.3-2.3,0.5-3.8,0.8c-1.5,0.3-3.2,0.6-5,1
	c-3.6,0.7-7.9,1.6-12.3,2.6c-4.5,1-9.2,2.2-14,3.5c-3.3,0.9-6.6,1.8-9.8,2.8l0.5-1.7c5.4-1.6,10.6-3.6,15.7-5.9
	c9.6-4.4,18.6-10.4,24.3-16.3c1.3-1.3,2.5-2.8,3.6-4.3c0.9-1.2,1.7-2.5,2.3-3.8c0.4-0.8,0.7-1.7,0.9-2.6l0.2-1l0,0l-0.8,0.6
	c-0.7,0.6-1.4,1.2-2.1,1.7c-1,0.6-2,1.2-3.4,2c-1.4,0.8-2.8,1.5-4.6,2.3s-3.5,1.7-5.5,2.6s-4.1,1.8-6.2,2.8c-4.3,1.9-8.9,4-13.5,6.1
	c-2.9,1.3-5.7,2.7-8.5,4c0.3-1.8,0.5-3.2,0.6-4.3C514.3,40.3,528.4,14,524.3,0c0.1,23.8-44.9,53.2-89.2,62.3
	c-26.9,5.5-12.2,28-39.8,36.7c-7.7,2.4-9.8,1-13.9-3.4l0,0c1.6,0.6,3.2,0.2,4.6,0.4c2.1-0.3,4.1-1,6-2.1c0.8-0.3,1.5-0.9,2-1.7
	c0,0-4.9,2.4-7.9,2.2c-1.3-0.2-2.5-0.6-3.7-1.1c-1.1-0.5-2.2-1.1-3.2-1.9c-0.4-1.9-0.8-3.9-1-5.9c1.3,0.7,2.5,1.3,3.6,1.8
	c0.7,0.3,1.4,0.6,2.1,0.8l1.6,0.5l1.4,0.5l-1.2-0.9l-1.3-1c-0.6-0.4-1.1-0.8-1.6-1.3c-1.1-1.2-2.4-2.3-3.6-3.8
	c-0.8-1.7-1.4-3.5-1.8-5.3l4.5,2.3c3.1,1.1,5.1,1.7,5.1,1.7s-1.8-1.3-4.2-3.1l-3.7-3.8c-1.2-2.4-2.1-4.9-2.6-7.5
	c1.2,0.8,2.6,1.5,4,2.1c1,0.3,2,0.6,3.1,0.8l1.1,0.2l-1-0.6c-0.8-0.5-1.6-1.1-2.4-1.8c-1-0.9-1.8-2-2.5-3.1c-0.8-1.3-1.5-2.7-2-4.1
	c-0.5-1.2-0.9-2.5-1.5-3.7c-0.1-0.4-0.2-0.8-0.3-1.3c2.1,0.7,4,1.8,5.6,3.2c-1.2-6.2-6.9-7.9-8.4-9.4l-0.3-0.5l0,0
	c-0.4-1.6,3.3-1.2,4-0.8c-5.2-5.6-15.3-5.1-17-5c-2-0.2-4.1,0.1-6,0.7c-5.9,1.9-10.5,6.4-12.4,12.2c-2.6,1-4.6,3.2-5.5,5.9
	c0,0,8.4-0.9,13.2,2.9c2.6-2.6,4.2-1.9,5.1,0.3h-0.1l0.2,0.4c1.8,5.2,0.6,16.7,0.6,16.7c-2,13.3-11.2,22.8-24.9,19.4
	c-28.1-7-14.8-30.3-42-34.2c-44.9-6.4-91.7-32.9-93-56.7c-3.2,14.3,12.5,39.7,37.8,46c0.1,1,0.4,2.5,0.9,4.2
	c-2.9-1.2-5.8-2.3-8.7-3.5c-4.7-1.8-9.4-3.6-13.8-5.3c-2.1-0.9-4.4-1.6-6.3-2.4c-2-0.8-3.9-1.5-5.7-2.2s-3.3-1.4-4.7-2
	c-1.4-0.6-2.4-1.3-3.5-1.8c-0.8-0.5-1.5-1-2.2-1.5L187,41l0.3,1c0.2,0.9,0.6,1.7,1,2.5c0.7,1.3,1.6,2.5,2.6,3.7
	c1.2,1.5,2.5,2.8,3.9,4.1c6.1,5.6,15.4,11,25.3,14.7c5.2,2,10.6,3.7,16,4.9c0.2,0.6,0.4,1.1,0.6,1.7c-3.2-0.7-6.6-1.4-10-2.1
	c-4.8-0.9-9.6-1.8-14.2-2.6c-4.5-0.7-8.8-1.4-12.5-1.9c-1.8-0.3-3.6-0.4-5-0.7c-1.4-0.3-2.8-0.4-3.8-0.5l-1.4-0.2l-1.1-0.4l-0.9-0.3
	l0.7,0.5c0.7,0.5,1.4,0.9,2.2,1.2c1.2,0.6,2.4,1.1,3.6,1.5c1.4,0.6,3.1,1,4.8,1.7c8.7,2.7,17.6,4.9,26.6,6.6c4.9,1,9.8,1.9,14.4,2.6
	s8.9,1.2,12.7,1.5c1.9,0.1,3.6,0.3,5.1,0.3c1.5,0,2.8,0.1,3.9,0l3.4-0.3l-3.4,0.4c-1.1,0.1-2.4,0.1-3.9,0.2c-1.5,0.1-3.2,0-5.1-0.1
	c-3.8-0.2-8.1-0.7-12.8-1.3s-9.6-1.5-14.5-2.4c-9-1.8-17.8-4.2-26.6-7c-2.9-0.9-5.7-2.1-8.4-3.5c-0.8-0.4-1.5-0.8-2.1-1.3l-0.7-0.5
	l0.5,0.8c0.5,0.8,1.1,1.4,1.8,2c2.5,2.1,5.1,3.9,8,5.4c3.9,2.1,7.9,3.8,12.1,5.2c4.7,1.6,9.5,2.9,14.4,3.8c2.5,0.5,5,0.9,7.5,1.2
	c2.5,0.3,5,0.5,7.3,0.7h1.2l0.2,0.4c-3.4,0-6.9,0-10.4,0.2c-8.6,0.3-17.2,1.2-23.6,2.1c-3.2,0.4-5.9,0.8-7.8,0.9
	c-0.7,0-1.4,0-2.1-0.1c-0.3-0.1-0.5-0.2-0.7-0.5c0.1,0.2,0.2,0.5,0.4,0.6c0.6,0.4,1.3,0.7,2,0.9c2.6,0.6,5.2,0.9,7.9,1
	c8,0.4,16.1,0.4,24.1,0c8.8-0.3,17.5-0.9,24-1.7c3.3-0.4,6-0.8,7.9-1.2c1-0.2,2-0.4,2.9-0.7c-0.9,0.3-1.9,0.6-2.9,0.9
	c-2.6,0.6-5.2,1.1-7.8,1.5c-6.5,0.9-15.3,1.7-24.1,2.1c-8,0.3-16.1,0.2-24.1-0.4c-2.7-0.2-5.3-0.6-7.8-1.3c-0.7-0.2-1.4-0.5-2-1
	c-0.2-0.2-0.3-0.4-0.4-0.7c0,0.3,0,0.6,0.2,0.8c0.5,0.7,1.2,1.4,1.9,1.8c2.5,1.5,5.1,2.6,7.9,3.3c8,2,16.3,2.9,24.6,2.5
	c4.7-0.2,9.4-0.7,14.1-1.6c0.4,0.8,0.8,1.7,1.2,2.6c-4.6,0.4-9.2,1.3-13.7,2.8c-2.5,0.8-5,1.8-7.3,2.8s-4.4,2.1-6.1,3
	c-1.4,0.8-2.9,1.5-4.4,2.1c-0.4,0.2-0.9,0.3-1.4,0.4l-0.6,0.1l0,0c0.1,0.2,0.2,0.3,0.3,0.5c0.3,0.5,0.8,0.9,1.3,1.2
	c0.7,0.5,1.5,0.9,2.4,1.1c1,0.4,2.1,0.6,3.2,0.8c4.6,0.8,10.6,0.1,16-1.6c4.8-1.6,9.3-4,13.3-7.1c0.5,0.9,0.9,1.8,1.4,2.6
	c-1.6,0.8-3.1,1.6-4.7,2.5c-5.3,3-10.4,6.5-15.1,10.4c-2,1.6-3.6,3.1-4.7,4.2c-0.4,0.4-0.9,0.8-1.3,1.2L224,124l0.6-0.1
	c0.6-0.1,1.1-0.3,1.6-0.5c1.4-0.5,3.3-1.4,5.6-2.5c4.6-2.2,10.5-5.3,16.4-8.7c2.9-1.7,5.9-3.3,8.5-5.1c2.7-1.7,5.2-3.3,7.2-4.8
	c1-0.7,1.9-1.5,2.7-2.1c0.7-0.6,1.3-1.2,1.9-1.8c0.4-0.4,0.7-0.9,1-1.4l0.3-0.5l-0.3,0.5c-0.2,0.5-0.5,1-0.9,1.5
	c-0.5,0.7-1.2,1.4-1.8,2c-0.8,0.8-1.7,1.6-2.6,2.3c-2.3,1.8-4.6,3.5-7.1,5.1c-2.7,1.7-5.6,3.5-8.5,5.2c-5.4,3.1-10.9,5.9-16.6,8.4
	c-1.9,0.8-3.8,1.6-5.8,2.2c-0.5,0.2-1.1,0.3-1.7,0.4h-0.6c0.2,0.1,0.4,0.2,0.6,0.2c0.7,0.2,1.3,0.3,2,0.3c2.2,0.1,4.4-0.1,6.6-0.5
	c6.3-1.2,12.4-3.4,17.9-6.7c1.6-0.9,3.1-1.9,4.6-2.9l0.7,1.2c-1.6,1.2-3.1,2.5-4.5,3.9c-1.2,1.3-2.3,2.6-3.3,4.1
	c-0.9,1.3-1.7,2.6-2.4,4l-0.9,1.7l-0.8,1.4c-0.3,0.4-0.7,0.8-1.1,1.2l0.4-0.1c0.4,0,0.8-0.1,1.2-0.3c0.6-0.2,1.2-0.5,1.7-0.8
	c0.6-0.4,1.3-0.8,2.1-1.4c3.5-2.7,6.9-5.6,10-8.8c2.6-2.5,5-5.1,7.2-7.3l2.2-2.3c2.5-2.7,4.1-4.5,4.1-4.5s-1.4,2-3.7,4.8
	c-0.8,0.9-1.7,2-2.6,3.1c-1.9,2.2-4.1,4.6-6.4,6.9c-3.2,3.2-6.7,6.1-10.4,8.6c-0.7,0.5-1.4,0.9-2.2,1.2c-0.6,0.3-1.2,0.5-1.8,0.7
	c-0.4,0.1-0.8,0.2-1.2,0.2h-0.4c0.5,0.4,1,0.7,1.6,0.9c1.5,0.4,3.1,0.5,4.6,0.2c4-0.8,7.6-2.9,10.4-5.8c0.9-0.9,1.7-1.9,2.4-3
	l0.8,1.1c-1.3,1.9-2.7,3.9-4,5.9l-7,10.8c-1,1.6-2,3-2.7,4c-0.4,0.6-0.8,1.1-1.1,1.8l0.5-0.2c0.5-0.2,0.9-0.4,1.3-0.6
	c0.6-0.4,1.3-0.8,1.9-1.3c0.7-0.6,1.4-1.2,2.2-2c1.8-1.7,3.4-3.6,5-5.5c1.8-2.1,3.5-4.4,5.3-6.7c2.9-3.9,5.6-7.9,8-12.1
	c0.3-0.4,0.5-0.9,0.7-1.3c0.9-1.5,1.6-3.1,2.2-4.8c0.2-0.5,0.3-0.9,0.4-1.4l0.1-0.5l-0.1,0.5c0,0.5-0.1,1-0.3,1.5
	c-0.5,1.7-1.1,3.4-1.9,5c-0.3,0.7-0.7,1.4-1,2.1c-2.2,4-4.7,7.9-7.4,11.7c-3.2,4.3-6.7,8.4-10.7,12c-0.7,0.7-1.5,1.3-2.4,1.9
	c-0.6,0.4-1.3,0.8-2,1.2c-0.4,0.2-0.9,0.4-1.4,0.5l-0.5,0.2c0.7,0.1,1.4,0.2,2.1,0.2c0.8,0,1.6,0,2.4-0.1c1-0.1,2-0.4,3-0.7
	c2.4-0.8,4.7-2,6.7-3.6c1.1-0.9,2.2-1.8,3.1-2.9c1-1.1,1.9-2.2,2.7-3.4c0.7-1.1,1.3-2.2,1.9-3.4c0.7,0.8,1.5,1.6,2.2,2.4
	c-0.8,1.1-1.7,2.3-2.4,3.5c-0.8,1.2-1.3,2.1-1.9,3.1c-0.6,1-1.2,2.1-1.8,3s-1,2-1.6,2.8c-0.5,0.8-0.9,1.9-1.4,2.5s-0.8,1.6-1.3,2.1
	c-0.4,0.6-0.8,1.1-1.2,1.6l-1.4,1.4l0,0c0.7,0.3,1.4,0.5,2.1,0.6c0.8,0.1,1.7,0.1,2.6,0c1.1-0.1,2.2-0.4,3.2-0.9
	c1.2-0.5,2.3-1,3.3-1.7c1.1-0.7,2.2-1.6,3.2-2.4c2-1.9,3.9-4,5.4-6.4c0.4-0.7,0.8-1.4,1.2-2.1c1,0.8,2.1,1.7,3.2,2.5
	c-0.4,0.6-0.7,1.3-1.1,2c-0.6,1-1.1,2-1.6,3.1c-2,3.9-3.8,7.9-5.4,12c-0.4,0.9-0.7,1.6-1,2.4c-0.3,0.8-0.6,1.3-0.9,1.9l-1,1.7l0,0
	c0.7,0.1,1.4,0.2,2.2,0.1c1.8-0.3,3.6-0.9,5.2-1.8c2.2-1.2,4.1-2.8,5.8-4.6c0.9-1,1.8-2,2.6-3.2c1.8-2.4,3.1-5.1,4-7.9
	c1.4,0.8,2.9,1.5,4.4,2.2c0,0.4-0.1,0.7-0.1,1.1c-0.1,1.4-0.4,2.7-0.6,4.1s-0.6,2.6-0.9,3.8c-0.3,1.1-0.7,2.3-1.2,3.4
	c-0.2,0.5-0.4,1-0.7,1.6l-0.8,1.3c-0.5,0.8-1,1.6-1.6,2.3c-0.3,0.3-0.6,0.6-0.8,1l-0.8,0.7c-1,0.9-1.6,1.5-1.6,1.5l1.9-0.9l1-0.5
	l1-0.8c0.8-0.6,1.6-1.2,2.3-2l1.2-1.3l1-1.6c0.7-1.2,1.3-2.4,1.8-3.6c0.5-1.4,0.9-2.7,1.3-4.1c0.3-1.5,0.6-2.9,0.8-4.4
	c0.4-2.9,0.5-5.9,0.4-8.8c-0.1-2.6-0.4-5.1-0.9-7.7c-0.3-1.8-0.8-3.6-1.4-5.3c-0.3-0.6-0.6-1.3-0.9-1.9c0,0,0.4,0.6,1,1.8
	c0.8,1.7,1.4,3.4,1.8,5.2c0.6,2.5,1,5.1,1.1,7.7c0.2,3,0.1,6-0.2,9c-0.2,1.5-0.4,3-0.8,4.5c-0.4,1.4-0.8,2.8-1.4,4.2
	c-0.5,1.3-1.2,2.5-2,3.6l-1.1,1.6l-1.2,1.3c-0.7,0.8-1.5,1.5-2.4,2l-1.1,0.7l-1,0.4l-1.9,0.8c0.7,0,1.5-0.1,2.2-0.2l1.2-0.2
	c0.4-0.1,0.8-0.3,1.3-0.5c1.1-0.4,2.2-0.9,3.1-1.7c0.5-0.4,1.1-0.8,1.6-1.3l1.4-1.6c1-1.2,1.8-2.5,2.6-3.9c0.7-1.5,1.3-3,1.7-4.6
	c0.4-1.4,0.7-2.7,0.9-4.1c1.3,0.4,2.5,0.8,3.9,1.1l0.6,0.9c-0.3,2.8-0.6,5.7-1.1,8.6c-0.2,1.5-0.5,2.9-0.8,4.2s-0.6,2.7-1,4
	c-0.3,1.2-0.7,2.4-1.2,3.6c-0.4,1-0.9,2-1.5,3c-0.5,0.8-1.1,1.6-1.7,2.3c-0.5,0.6-1.1,1.2-1.7,1.7c-1.1,0.8-1.8,1.3-1.8,1.3l2-0.8
	c0.7-0.3,1.5-0.8,2.1-1.2c0.8-0.7,1.6-1.4,2.4-2.2c0.8-1,1.5-2,2.2-3.1c0.7-1.2,1.3-2.5,1.8-3.8c0.6-1.4,1-2.8,1.4-4.3
	c0.4-1.5,0.7-3,0.9-4.6c0.5-3,0.8-6.1,0.8-9.1c0-2.7-0.1-5.3-0.4-8c-0.2-1.9-0.5-3.8-0.9-5.6l-0.5-2.1c0,0,0.2,0.8,0.6,2.1
	c0.5,1.8,0.9,3.7,1.2,5.6c0.4,2.7,0.6,5.4,0.7,8.1c0,3.1-0.2,6.2-0.7,9.3c-0.3,1.6-0.6,3.1-1,4.6c-0.4,1.5-0.9,2.9-1.5,4.4
	c-0.5,1.3-1.2,2.6-2,3.8c-0.7,1.1-1.5,2.1-2.4,3c-0.8,0.8-1.6,1.4-2.6,2c-0.7,0.4-1.5,0.8-2.2,1.1l-2.1,0.6c0.8,0,1.5,0,2.3,0
	c0.9-0.1,1.8-0.3,2.7-0.7c1.1-0.5,2.2-1.1,3.2-1.8c1.1-0.9,2.2-1.9,3.1-3.1c1-1.2,1.9-2.6,2.6-4c0.7-1.5,1.4-3,1.9-4.6
	c0.5-1.6,0.9-3.2,1.2-4.9c0.5-3.1,0.6-6.3,0.4-9.4c1,0.1,1.9,0.2,2.9,0.3v3.6c0.1,2.7,0.1,5.6,0.1,8.5c0,1.4,0.1,2.9,0.1,4.2
	s0.1,2.8,0,4.1s0,2.6-0.1,3.8c0,1.1-0.1,2.3-0.2,3.4c-0.1,1-0.2,1.9-0.4,2.8c-0.1,0.8-0.3,1.5-0.6,2.2c-0.5,1.2-0.7,2-0.7,2l1.2-1.6
	c0.5-0.6,0.9-1.3,1.1-2c0.5-0.9,0.8-1.8,1.1-2.8c0.4-1.1,0.7-2.3,0.9-3.5c0.3-1.3,0.4-2.7,0.6-4c0.2-1.4,0.2-2.8,0.3-4.3s0-3,0-4.4
	c-0.2-5.5-0.6-10.9-1.4-16.3c-0.6-4.4-1.1-7.4-1.1-7.4s0.8,2.9,1.6,7.3c0.4,2.2,0.8,4.8,1.2,7.6c0.3,2.8,0.6,5.8,0.6,8.8
	c0,1.5,0.1,3,0,4.5c-0.1,1.5-0.1,2.9-0.3,4.3c-0.1,1.3-0.3,2.7-0.7,4c-0.2,1.2-0.6,2.4-1,3.5c-0.3,1-0.7,1.9-1.3,2.8
	c-0.3,0.7-0.8,1.4-1.3,2l-1.4,1.6c0.6-0.4,1.3-0.7,1.9-1.2c0.7-0.5,1.4-1.1,1.9-1.8c0.3-0.4,0.7-0.8,1-1.3c0.3-0.5,0.6-1,0.9-1.5
	l0.9-1.7c0.3-0.6,0.5-1.2,0.7-1.9c0.5-1.4,0.9-2.8,1.1-4.2c0.3-1.5,0.5-3,0.6-4.5c0.1-1.5,0.2-3.1,0.1-4.6c-0.1-4-0.7-8-1.7-11.9
	c1.3,0,2.7-0.1,4-0.2c0.3,2.3,0.6,4.7,1.1,7.1c0.4,2.2,0.9,4.4,1.3,6.4l1.2,5.5c0.2,0.8,0.2,1.5,0.4,2.2c0.2,0.7,0.1,1.3,0.1,1.8
	c0,0.5-0.2,1.1-0.3,1.6c0.3-0.4,0.6-0.9,0.8-1.4c0.1-0.5,0.4-1.1,0.5-1.8c0.2-0.8,0.3-1.6,0.3-2.3c0.1-2,0-4-0.2-5.9
	c-0.2-2.2-0.6-4.5-1-6.8c-0.8-4.6-2-9.1-2.9-12.5c-0.5-1.7-0.9-3.1-1.3-4c-0.2-0.5-0.4-1-0.6-1.5c1,1.7,1.8,3.5,2.4,5.3
	c1.4,4.1,2.5,8.2,3.3,12.5c0.4,2.3,0.7,4.6,0.9,6.9c0.2,2,0.1,4-0.1,6c-0.1,1.4-0.5,2.8-1.1,4.1c-0.6,0.9-1,1.3-1,1.3l0.4-0.2
	c0.4-0.2,0.8-0.5,1.2-0.8c1.1-1.2,1.9-2.7,2.4-4.2c0.7-2.1,1-4.3,1.1-6.4c0.1-2.4-0.1-4.8-0.6-7.2c-0.4-2.3-1-4.5-1.8-6.6l0.8-0.1
	c0.2,1,0.5,2,0.8,3c0.6,2,1.5,4,2.7,5.8c0.5,0.9,1.1,1.7,1.8,2.4c0.6,0.7,1.3,1.4,2,1.9c0.6,0.5,1.3,1,2,1.3
	c0.5,0.3,1.1,0.6,1.7,0.7c0.5,0.2,1,0.3,1.5,0.4l-1.1-0.8c-0.4-0.3-0.9-0.7-1.2-1.1c-0.5-0.5-1-1-1.4-1.6c-0.5-0.6-1-1.3-1.4-2
	c-0.5-0.8-0.9-1.6-1.3-2.4c-0.9-1.8-1.6-3.7-2.2-5.6c-1.1-3.6-1.9-7.2-2.3-10.9c-0.4-3-0.4-5.1-0.4-5.1s0.3,2,0.9,5
	c0.7,3.6,1.6,7.2,2.7,10.7c1,3.5,2.5,6.9,4.5,10c0.4,0.6,0.8,1.1,1.2,1.6c0.3,0.4,0.7,0.8,1.1,1.2l1,0.9c0,0-0.2-0.6-0.6-1.4
	c-0.2-0.5-0.4-1-0.6-1.5c-0.2-0.6-0.4-1.2-0.6-1.9c-0.8-2.7-1.9-6.3-2.9-9.9c-0.3-0.9-0.6-1.7-0.9-2.6c1.1-0.3,2.2-0.7,3.4-1.1
	c1.4,4.5,3.1,9.7,4.9,15c0.2,0.9,0.4,2.2,0.5,3.9c0.2,1.7,0.3,3.9,0.5,6.3c0,2.4,0.2,5.2,0.1,8.3c0,0.9,0,1.8-0.1,2.8
	c-2.1,6.7-4.6,13.2-7.5,19.6c-1.5,3.4-3.3,6.7-5.1,9.9c-1.8,3.2-3.7,6.2-5.7,9.1c-3.6,5.3-7.7,10.2-12.2,14.8c-2,2-3.9,3.8-5.6,5.2
	c-1.7,1.5-3.4,2.7-4.7,3.7l-4.2,3l4.5-2.6c1.4-0.9,3.1-1.9,5-3.3c1.9-1.4,4-2.9,6.2-4.8c5-4.3,9.6-8.9,13.8-14
	c2.3-2.8,4.5-5.7,6.7-8.9c1.8-2.6,3.5-5.3,5.2-8.1l-1.7,5.6c-0.5,2-1.4,3.8-2.1,5.7c-0.7,1.9-1.4,3.8-2.3,5.7
	c-1.7,3.7-3.6,7.4-5.7,10.9l-3.1,5.2c-1.2,1.6-2.3,3.2-3.5,4.8s-2.2,3.2-3.4,4.6l-3.6,4.2l-3.4,4l-3.4,3.4c-2.3,2.1-4.3,4.2-6.2,5.9
	l-5.2,4.2l-4.5,3.7l4.8-3.3l5.5-3.8c2.1-1.5,4.3-3.4,6.8-5.4l3.9-3.2l3.8-3.7l4-4c1.4-1.4,2.6-2.9,3.9-4.4l4-4.7l3.6-5.1
	c2.5-3.5,4.8-7.1,6.8-10.9c0.6-0.9,1.1-1.9,1.5-2.9c-0.6,2.7-1.3,5.4-2,8.1c-1.4,4.1-2.5,8.2-3.9,12.1s-2.9,7.6-4.7,11
	s-3.2,6.7-5,9.5s-3.5,5.4-4.9,7.6s-3.1,4-4.3,5.5l-3.9,4.8l4.2-4.4c1.3-1.5,3.1-3.1,4.8-5.2l5.6-7.3c2-2.7,3.7-5.9,5.8-9.2
	s3.6-7.1,5.6-10.8c1.8-3.8,3.3-7.9,5-12.1c1.3-4.2,2.9-8.5,4-12.9c1.1-4.4,2.3-8.7,3.1-13.1c-1.5,12.9-3.9,25.7-7.2,38.2
	c-4.1,14.7-9.9,30.2-19.4,43.3c-4.6,6.5-10.3,12.2-16.9,16.7c-3.3,2.3-6.7,4.3-10.2,6.3c-3.3,1.9-6.8,3.4-10.5,4.3
	c-3.5,0.9-7.1,0.5-8-2.4s-0.2-6.6,0.9-9.8c2.2-6.2,5.6-11.9,10.1-16.7c1.9-2.1,4.3-3.9,6.9-5.1c1.2-0.5,2.5-0.8,3.8-0.9
	c1.3,0,2.5,0.2,3.8,0.5c2.3,0.6,4.7,1.5,5.6,3.3s-0.1,3.9-1.2,5.2c-1.9,2.1-4.3,3.6-7,4.3c-1,0.2-2,0.3-2.9,0.2c1,0.1,2,0.1,3,0
	c2.8-0.6,5.3-2.1,7.3-4.1c1.2-1.3,2.6-3.5,1.5-5.8s-3.6-3.2-6-4c-1.3-0.4-2.6-0.6-4-0.7c-1.5,0-2.9,0.3-4.3,0.8
	c-2.8,1.2-5.4,3-7.6,5.2c-4.9,4.8-8.8,10.6-11.3,17c-1.2,3.4-2.4,7.3-1.3,11.6c0.7,2.4,2.6,4.2,5,4.8c2.1,0.5,4.4,0.5,6.5,0.1
	c4-0.9,7.9-2.3,11.6-4.2c3.7-1.8,7.3-3.8,10.7-6c7.3-4.5,13.7-10.4,18.9-17.2c10.6-13.5,17.3-29.4,22.2-44.4c1-3.2,1.9-6.4,2.8-9.5
	c0,2-0.1,4.1-0.1,6.1c-0.2,4.2-0.4,8.6-0.8,13.1c-0.4,4.5-1,9-1.5,13.5c-0.7,4.5-1.2,9-2.1,13.5c-1.7,12.3-0.5,24.8,3.7,36.5
	c1.1,3,2.5,5.8,4.3,8.4c1.3,2.1,3.2,3.7,5.4,4.7c1.5,0.6,3.1,0.6,4.6-0.1c0.5-0.2,1-0.5,1.4-0.8c-0.5,0.3-0.9,0.5-1.4,0.8
	c-1.4,0.6-3,0.6-4.5,0c-2.1-1.1-3.9-2.7-5.2-4.8c-1.7-2.6-3-5.4-3.9-8.4c-2.4-7.4-3.6-15.1-3.6-22.9c0-4.4,0.3-8.7,1.1-13
	c0.8-4.4,2.2-8.8,3.2-13.3s2.1-9,2.9-13.5s1.6-8.9,2.3-13.2c0.7-4.3,1.1-8.5,1.4-12.5s0.6-7.8,0.6-11.3c0-1.6,0-3.2,0-4.7
	c0.5,2.9,1.1,5.9,1.5,9c1.1,7.4,1.9,15.4,2.4,23.5c0.5,8,0.7,16.2,0.9,23.8c0.1,3.8,0.2,7.5,0.5,11c0.3,3.5,0.6,6.8,1,9.9
	c0.5,2.8,1.2,5.5,2.1,8.2c0.7,2,1.6,4,2.7,5.9c0.7,1.2,1.6,2.3,2.4,3.4c0.6,0.8,0.9,1.1,0.9,1.1l-0.8-1.2c-0.8-1.1-1.5-2.3-2.1-3.5
	c-0.9-1.9-1.7-3.9-2.2-6c-0.7-2.6-1.2-5.3-1.4-8.1c-0.2-3-0.3-6.3-0.2-9.7s0.2-7.1,0.4-10.9c0.4-7.6,0.9-15.8,1-24
	s0.1-16.2-0.4-23.8c0.8,2.7,1.6,5.4,2.4,8.1c2,6.5,3.4,13.1,5.1,19.2c0.8,3.1,1.2,6.1,1.9,9l1.6,8.1c0.5,2.5,0.6,4.8,0.9,6.9
	s0.4,3.9,0.6,5.3c0.3,3,0.5,4.7,0.5,4.7v-4.7c0-1.5,0-3.3,0-5.4c0.1-2.3,0-4.7-0.2-7c-0.3-2.5-0.5-5.3-0.8-8.2s-0.5-6-1-9.2
	c-1-6.3-1.9-13.1-3.1-19.9s-2.5-13.4-3.9-19.7c-1.5-6.3-2.7-12.1-3.9-17.1c-1.1-4.6-2.1-8.5-2.9-11.4c4.7-10.9,8.6-26.2,11.1-37.4
	c1,0.3,2,0.5,3,0.8c-0.2,0.9-0.5,1.7-0.7,2.6c-0.8,3.7-1.7,7.3-2.3,10.1c-0.1,0.7-0.4,1.3-0.5,1.9c-0.1,0.5-0.3,1.1-0.5,1.6
	c-0.3,0.9-0.5,1.5-0.5,1.5l1-1c0.4-0.4,0.7-0.8,1-1.2c0.4-0.5,0.8-1.1,1.1-1.7c1.8-3.2,3.1-6.7,3.9-10.3c0.9-3.6,1.5-7.2,2-10.9
	c0.4-3,0.6-5,0.6-5s0.1,2-0.1,5.1c-0.2,3.7-0.8,7.4-1.7,11c-0.5,1.9-1.1,3.8-1.8,5.7c-0.7,1.6-1.5,3.2-2.4,4.6
	c-0.4,0.6-0.8,1.1-1.3,1.6c-0.3,0.4-0.7,0.8-1.1,1.1l-1.1,0.9c0.5-0.1,1-0.3,1.5-0.4c0.6-0.2,1.1-0.5,1.6-0.8
	c0.7-0.4,1.3-0.9,1.9-1.4c0.7-0.6,1.3-1.3,1.9-2c0.6-0.8,1.2-1.7,1.6-2.5c1-1.9,1.8-3.9,2.3-6c0.2-1,0.4-2.1,0.6-3.1l0.8,0.1
	c-0.7,2.2-1.2,4.4-1.4,6.7c-0.3,2.4-0.3,4.8-0.1,7.2c0.2,2.2,0.7,4.3,1.5,6.4c0.6,1.5,1.5,2.9,2.7,4.1c0.4,0.3,0.8,0.5,1.2,0.7
	l0.4,0.2c-0.4-0.4-0.7-0.8-1-1.2c-0.7-1.2-1.2-2.6-1.4-4c-0.3-2-0.5-4-0.4-6c0-2.3,0.2-4.6,0.4-6.9c0.5-4.3,1.4-8.5,2.5-12.6
	c0.5-1.9,1.2-3.7,2.1-5.5c-0.2,0.5-0.4,1-0.5,1.5c-0.3,1-0.6,2.4-1,4.1c-0.8,3.4-1.6,8-2.1,12.6c-0.3,2.3-0.5,4.6-0.6,6.8
	c-0.1,2,0,4,0.2,5.9c0.1,0.9,0.3,1.6,0.4,2.3s0.4,1.2,0.6,1.7c0.6,0.8,0.9,1.3,0.9,1.3c-0.2-0.5-0.3-1.1-0.4-1.6v-1.8
	c0.1-0.7,0.1-1.4,0.2-2.2l0.9-5.6c0.3-2.1,0.6-4.3,0.9-6.5c0.3-2.4,0.5-4.8,0.6-7.1c1.4,0,2.7,0,4.1,0c-0.8,3.9-1.1,7.9-0.9,11.9
	c0.1,1.6,0.1,3.1,0.4,4.7c0.2,1.5,0.5,3,0.9,4.5c0.3,1.4,0.8,2.8,1.4,4.1c0.3,0.6,0.5,1.3,0.8,1.8s0.7,1.1,1,1.6
	c0.3,0.5,0.6,1,1,1.5c0.4,0.4,0.8,0.8,1.1,1.2c0.6,0.7,1.2,1.2,2,1.7c0.6,0.4,1.3,0.7,1.9,1l-1.5-1.5c-0.6-0.6-1-1.2-1.4-1.9
	c-0.6-0.8-1.1-1.8-1.5-2.7c-0.5-1.1-0.9-2.2-1.2-3.4c-0.4-1.3-0.7-2.6-0.9-4c-0.3-1.4-0.4-2.8-0.6-4.3s-0.2-3-0.3-4.5
	c-0.1-3,0-6,0.1-8.8c0.1-2.8,0.4-5.4,0.7-7.6c0.6-4.5,1.2-7.4,1.2-7.4s-0.4,3-0.7,7.4c-0.4,5.4-0.6,10.9-0.4,16.4
	c0.1,1.5,0.1,3,0.3,4.4s0.3,2.9,0.5,4.3c0.2,1.3,0.5,2.6,0.8,3.9c0.3,1.2,0.6,2.3,1.1,3.4c0.3,1,0.7,1.9,1.3,2.7
	c0.3,0.7,0.7,1.4,1.2,2l1.3,1.6c0,0-0.3-0.8-0.8-2c-0.3-0.7-0.5-1.4-0.7-2.2c-0.3-0.9-0.5-1.9-0.6-2.8c-0.2-1.1-0.4-2.2-0.4-3.4
	c-0.2-1.2-0.2-2.4-0.3-3.8s-0.1-2.7-0.2-4.1c-0.1-1.4-0.1-2.8-0.2-4.2c-0.1-2.9-0.3-5.8-0.4-8.5c-0.1-1.2-0.1-2.4-0.2-3.6
	c1-0.1,1.9-0.3,2.9-0.4c-0.1,3.1,0.2,6.3,0.9,9.4c0.4,1.6,0.8,3.3,1.4,4.8c0.6,1.6,1.3,3.1,2.1,4.5c0.8,1.4,1.7,2.7,2.8,3.8
	c1,1.1,2.1,2,3.2,2.8c1,0.7,2.1,1.2,3.3,1.6c0.9,0.3,1.8,0.5,2.7,0.5c0.8,0,1.6,0,2.3-0.1c0,0-0.7-0.5-1.9-1.2
	c-0.6-0.5-1.2-1-1.8-1.6c-0.7-0.7-1.3-1.4-1.9-2.2c-0.6-1-1.2-2-1.6-3c-0.6-1.1-1.1-2.3-1.5-3.5c-0.5-1.2-0.8-2.6-1.3-3.9
	s-0.8-2.8-1-4.2c-0.7-2.8-1.1-5.8-1.6-8.5l0.6-0.9c1.3-0.4,2.5-0.8,3.8-1.3c0.3,1.4,0.7,2.7,1.1,4.1c0.5,1.5,1.2,3,2,4.4
	c0.8,1.3,1.7,2.6,2.8,3.7l1.6,1.5c0.6,0.4,1.2,0.8,1.7,1.1c1,0.7,2,1.2,3.2,1.5c0.5,0.2,0.9,0.3,1.4,0.4l1.2,0.1c0.7,0,1.5,0,2.2,0
	l-2-0.6l-1.1-0.3l-1.1-0.6c-0.9-0.5-1.8-1.1-2.6-1.8l-1.3-1.2l-1.2-1.5c-0.8-1.1-1.6-2.3-2.2-3.5c-0.6-1.3-1.2-2.7-1.6-4.1
	c-0.5-1.5-0.8-2.9-1.1-4.4c-0.5-2.9-0.8-5.9-0.8-8.9c0-2.6,0.2-5.2,0.7-7.8c0.3-1.8,0.8-3.6,1.4-5.3c0.5-1.2,0.9-1.9,0.9-1.9
	s-0.3,0.7-0.8,1.9c-0.5,1.7-0.9,3.5-1.1,5.4c-0.3,2.6-0.5,5.1-0.4,7.7c0,2.9,0.3,5.9,0.9,8.8c0.2,1.5,0.6,2.9,1,4.4
	c0.4,1.4,0.9,2.7,1.5,4.1c0.6,1.2,1.2,2.4,2,3.5l1.1,1.5l1.2,1.2c0.7,0.7,1.5,1.4,2.4,1.9l1.1,0.7l1,0.4l1.9,0.8
	c0,0-0.7-0.6-1.7-1.4l-0.9-0.6c-0.2-0.3-0.5-0.6-0.8-0.9c-0.7-0.7-1.3-1.4-1.8-2.2l-0.9-1.3l-0.8-1.5c-0.5-1.1-1-2.2-1.4-3.3
	c-0.4-1.2-0.8-2.4-1.1-3.8s-0.7-2.6-0.9-4c-0.1-0.4-0.1-0.7-0.2-1.1c1.5-0.8,2.9-1.6,4.3-2.5c0.6,1.5,1.3,2.9,2.1,4.2
	c0.7,1.2,1.5,2.3,2.4,3.4c0.8,1.1,1.8,2.1,2.8,3c1.8,1.7,3.8,3.1,6.1,4.2c1.7,0.8,3.5,1.3,5.3,1.4c0.7,0,1.4-0.1,2.1-0.2l-1-1.6
	c-0.3-0.6-0.6-1.2-1-1.8s-0.7-1.5-1.1-2.3c-1.9-4-3.9-7.8-6.2-11.6c-0.6-1-1.2-2-1.8-3c-0.4-0.6-0.8-1.3-1.2-1.9c1-0.9,2-1.8,3-2.7
	c0.4,0.7,0.9,1.3,1.3,2c1.7,2.2,3.6,4.2,5.7,6c1.1,0.8,2.2,1.6,3.3,2.2c1.1,0.6,2.2,1.1,3.4,1.5c1,0.4,2.1,0.6,3.2,0.7
	c0.9,0.1,1.7,0.1,2.6-0.1c0.7-0.2,1.4-0.4,2-0.8l-1.5-0.1c-0.6,0-1.2-0.2-1.8-0.4c-0.8-0.2-1.5-0.5-2.1-1c-0.8-0.4-1.6-0.9-2.3-1.6
	c-0.8-0.6-1.6-1.3-2.3-2c-1.6-1.6-3-3.3-4.4-5.1c-2.4-3.4-4.6-7-6.5-10.7c-1.5-3.1-2.3-5.2-2.3-5.2s1,2,2.8,4.9
	c2.1,3.6,4.3,7.1,6.7,10.5c1.3,1.8,2.7,3.4,4.2,5c1.3,1.4,2.7,2.7,4.3,3.7c0.6,0.5,1.3,0.8,2,1.1c0.5,0.3,1.1,0.5,1.7,0.6l1.5,0.3
	l-1.5-1.3c-0.5-0.5-0.9-1-1.3-1.6c-0.5-0.7-1-1.4-1.4-2.1c-0.5-0.7-1-1.6-1.5-2.4s-1.1-1.9-1.8-2.7s-1.2-2-1.9-2.9s-1.4-2-2.1-3
	s-1.7-2.3-2.6-3.4c0.7-0.8,1.4-1.6,2.1-2.5c0.6,1.1,1.4,2.2,2.1,3.3c0.9,1.1,1.8,2.2,2.9,3.2c1,1,2.1,1.9,3.3,2.7
	c2.1,1.5,4.4,2.5,6.9,3.2c1,0.2,2,0.4,3,0.5c0.8,0.1,1.6,0.1,2.4,0c0.7,0,1.4-0.1,2.1-0.3l-0.5-0.1c-0.5-0.1-1-0.2-1.4-0.4
	c-0.7-0.3-1.4-0.7-2.1-1.1c-0.9-0.5-1.7-1.1-2.5-1.7c-4.2-3.4-8-7.2-11.4-11.4c-2.9-3.5-5.6-7.3-8.1-11.2c-0.4-0.7-0.8-1.4-1.2-2
	c-0.8-1.5-1.5-3.2-2-4.8c0.7,1.6,1.5,3.1,2.5,4.6l0.8,1.2c2.7,4,5.6,7.9,8.8,11.6c1.9,2.2,3.8,4.4,5.7,6.4c1.7,1.8,3.5,3.5,5.4,5.2
	c0.8,0.7,1.6,1.3,2.3,1.9c0.6,0.4,1.3,0.9,1.9,1.2c0.4,0.2,0.9,0.4,1.4,0.5l0.5,0.2c0,0-0.5-0.7-1.2-1.7s-1.8-2.4-2.9-3.8l-7.7-10.3
	c-1.4-1.9-2.9-3.8-4.3-5.6c0.2-0.4,0.5-0.8,0.7-1.1c0.8,1,1.6,2,2.5,2.8c2.9,2.8,6.7,4.7,10.7,5.2c1.5,0.2,3.1,0,4.6-0.5
	c0.6-0.2,1.1-0.6,1.5-1h-0.4c-0.4,0-0.8,0-1.2-0.1c-0.6-0.1-1.3-0.3-1.9-0.6c-0.8-0.3-1.5-0.7-2.3-1.1c-3.9-2.3-7.5-4.9-10.8-7.9
	c-2.5-2.2-4.8-4.4-6.9-6.4c-1-1-2-2-2.8-2.9c-2.5-2.7-4-4.6-4-4.6s1.7,1.7,4.4,4.2l2.3,2.2c2.3,2.1,4.9,4.5,7.6,6.9
	c3.3,3,6.8,5.7,10.5,8.2c0.8,0.5,1.5,0.9,2.1,1.2c0.6,0.3,1.2,0.5,1.8,0.7c0.4,0.1,0.8,0.2,1.2,0.2l0.4,0.1
	c-0.4-0.4-0.8-0.7-1.1-1.1l-0.9-1.3c-0.3-0.5-0.7-1-1-1.7c-0.8-1.3-1.7-2.6-2.6-3.8c-1.1-1.4-2.3-2.7-3.6-3.9
	c-1.5-1.4-3-2.6-4.7-3.6c0.2-0.4,0.5-0.8,0.7-1.2c1.5,0.9,3.1,1.8,4.8,2.6c5.7,2.9,11.9,4.7,18.3,5.6c2.2,0.3,4.4,0.3,6.6,0.1
	c0.7,0,1.3-0.2,2-0.4c0.2-0.1,0.4-0.2,0.6-0.3H501c-0.6,0-1.1-0.1-1.7-0.3c-2-0.5-4-1.1-5.9-1.8c-5.8-2.1-11.5-4.6-17.1-7.3
	c-3-1.5-6-3.1-8.8-4.7c-2.6-1.4-5-3-7.4-4.6c-1-0.7-1.9-1.4-2.8-2.1c-0.7-0.6-1.3-1.2-1.9-1.9c-0.4-0.4-0.7-0.9-1-1.4l-0.3-0.5
	l0.3,0.5c0.3,0.5,0.7,0.9,1.1,1.3c0.6,0.6,1.3,1.2,2,1.7c0.9,0.6,1.8,1.3,2.8,2c2.1,1.4,4.6,2.8,7.5,4.3s5.8,3,8.8,4.5
	c6,3,12.2,5.7,16.9,7.7c2.4,0.9,4.3,1.7,5.7,2.1c0.5,0.2,1.1,0.3,1.7,0.4l0.6,0.1l-0.6-0.3c-0.3-0.2-0.8-0.6-1.4-1.1
	c-1.2-1-2.9-2.3-5-3.9c-5-3.6-10.2-6.8-15.8-9.4c-1.6-0.8-3.2-1.5-4.8-2.2c0.4-0.9,0.8-1.8,1.2-2.7c4.2,2.9,8.9,5,13.8,6.2
	c5.5,1.4,11.4,1.7,16,0.7c1.1-0.2,2.1-0.6,3.1-1c0.8-0.3,1.6-0.8,2.3-1.3c0.5-0.3,0.9-0.8,1.3-1.3c0.1-0.2,0.2-0.3,0.3-0.5
	c-0.7,0.5-1.5,0.7-2.4,0.8c-2.2,0.2-4.4,0.1-6.5-0.2c-6.6-1-13-2.4-19.4-4.1c-4.9-1.4-9.8-2.9-14.1-4.3l-4.9-1.6
	c-5.1-1.7-8.5-3-8.5-3l8.6,2.6l4.9,1.5c4.3,1.3,9.2,2.7,14.1,3.9c6.3,1.9,12.8,3.4,19.3,4.5c2.1,0.4,4.3,0.6,6.5,0.5
	c0.8,0,1.6-0.2,2.4-0.6h-0.6c-0.5,0-0.9-0.1-1.4-0.3c-1.5-0.5-3-1.2-4.5-1.9c-1.8-0.8-4-1.8-6.3-2.6s-4.9-1.7-7.5-2.3
	c-4.5-1.1-9.1-1.8-13.8-1.9c0.4-0.9,0.7-1.8,1-2.7c4.7,0.6,9.4,0.8,14.1,0.7c8.3-0.1,16.5-1.5,24.4-4c2.7-0.9,5.3-2.1,7.7-3.8
	c0.8-0.5,1.4-1.1,1.8-1.9c0.1-0.3,0.2-0.5,0.1-0.8c-0.1,0.3-0.2,0.5-0.4,0.7c-0.6,0.5-1.2,0.9-1.9,1.1c-2.5,0.9-5.1,1.5-7.8,1.8
	c-8,1.1-16,1.7-24.1,1.9c-8.8,0.1-17.6-0.1-24.1-0.6c-2.6-0.2-5.3-0.5-7.9-1c-1-0.2-2-0.4-2.9-0.7c1,0.2,2,0.4,3,0.5
	c1.9,0.3,4.6,0.5,7.9,0.7c6.5,0.4,15.3,0.4,24.1,0.2c8-0.1,16-0.5,24-1.4c2.6-0.3,5.2-0.8,7.8-1.5c0.7-0.2,1.4-0.5,1.9-1
	c0.2-0.2,0.3-0.4,0.4-0.7c-0.2,0.2-0.4,0.4-0.6,0.5c-0.7,0.2-1.4,0.2-2.1,0.2c-1.9,0-4.6-0.2-7.8-0.4c-6.5-0.5-15.1-0.9-23.7-0.7
	c-3.5,0.1-7,0.2-10.4,0.5l0.2-0.4l1.2-0.1c2.4-0.3,4.8-0.7,7.3-1.2s5-1,7.4-1.7c4.8-1.3,9.6-3,14.2-4.9c4.1-1.7,8-3.7,11.7-6
	c2.8-1.7,5.3-3.6,7.6-5.8c0.7-0.6,1.2-1.3,1.7-2.1L534,54.3L534,54.3z M258,73.1c-2.2-0.4-5.4-1-9.1-2c-9.2-2.4-18.2-5.3-27-8.7
	c-9.6-3.8-19-8.3-25.5-12.6c-1.5-0.9-2.9-2-4.3-3.1c-1.1-0.9-2.1-1.8-3-2.8c-0.6-0.7-1.1-1.4-1.6-2.1l-0.5-0.8c0,0,0.2,0.3,0.6,0.7
	c0.5,0.7,1.1,1.4,1.7,2c1,0.9,2,1.8,3.1,2.7c1.3,0.9,2.7,2,4.3,3c6.5,4.1,15.9,8.5,25.5,12.1c8.8,3.5,17.7,6.5,26.8,9
	c3.7,1,6.9,1.8,9,2.3l3.4,0.7L258,73.1z M259,71.9L259,71.9c-0.8-0.2-1.5-0.5-2.1-0.7c-1.4-0.5-2.6-0.9-3.5-1.3
	c-1.3-0.6-2.1-0.9-2.1-0.9l1.3,0.1l1,0.1c1.4,0.1,3.4,0.3,5.9,0.6c6,0.7,11.9,1.9,17.6,3.7c3.1,1,6.1,2.3,9,3.8
	c1.3,0.7,2.6,1.4,3.9,2.3c1.1,0.7,2.2,1.5,3.2,2.4c0.9,0.7,1.7,1.5,2.5,2.3c0.6,0.6,1.2,1.3,1.7,2l1.3,1.8l-1.8-1.3
	c-0.7-0.5-1.3-1-2.1-1.4c-0.8-0.5-1.7-1.1-2.8-1.7c-2.4-1.3-4.8-2.5-7.3-3.5c-1.3-0.6-2.8-1.1-4.3-1.7s-3-1-4.5-1.6
	c-3-1-6.1-1.9-9-2.8S261.4,72.6,259,71.9L259,71.9z M259.2,95.5c-1.5,0.6-3,1.2-4.7,1.9c-4.2,1.6-9,3.4-13.8,5.1
	c-6.3,2.1-12.7,3.9-19.1,5.3c-2.1,0.5-4.3,0.7-6.5,0.6c-0.8,0-1.7-0.2-2.4-0.6c0.7,0.4,1.6,0.5,2.4,0.5c2.2-0.1,4.3-0.4,6.4-0.9
	c6.4-1.5,12.7-3.4,18.9-5.7c4.8-1.6,9.7-3.3,13.9-4.8L259,95l8.5-3.1C267.5,91.9,264.2,93.4,259.2,95.5L259.2,95.5z M266.8,91.6
	L266.8,91.6c-1.1-0.3-1.7-0.5-1.7-0.5s2.5-0.3,6.2-0.8c1.9-0.2,4.1-0.4,6.4-0.5c2.5-0.1,5,0,7.5,0.2c1.3,0.1,2.6,0.4,3.8,0.6
	c1.2,0.3,2.4,0.6,3.6,1c1.1,0.4,2.2,0.8,3.3,1.4c1,0.5,1.9,1,2.7,1.7c0.7,0.5,1.4,1.1,2,1.8c0.5,0.5,0.9,1,1.3,1.6
	c0.6,1,0.9,1.6,0.9,1.6l-1.4-1c-0.5-0.4-1.1-0.7-1.6-1c-0.7-0.4-1.4-0.8-2.2-1.1c-0.9-0.4-1.8-0.7-2.7-1c-0.9-0.4-2.1-0.5-3.1-0.8
	c-2.3-0.5-4.7-0.8-7-1c-4.9-0.7-9.9-0.9-13.6-1.4C269.8,92.2,268.3,91.9,266.8,91.6z M271.2,102.3c0,0,2.5-0.7,6.2-1.5
	c4.6-0.9,9.3-1.4,14-1.4c2.6,0,5.1,0.3,7.6,0.8c1.2,0.2,2.3,0.5,3.5,0.9c1,0.4,2,0.8,3,1.3c0.8,0.4,1.6,0.9,2.3,1.5
	c0.6,0.4,1.1,0.9,1.5,1.5c0.7,1,1,1.6,1,1.6l-1.5-1c-0.6-0.3-1.1-0.6-1.7-0.8c-0.8-0.3-1.5-0.6-2.3-0.8c-0.9-0.2-1.9-0.3-2.9-0.6
	s-2.1-0.3-3.3-0.4c-2.3-0.2-4.7-0.3-7.2-0.3c-5-0.1-10,0-13.8-0.2C275.5,102.9,273.3,102.7,271.2,102.3L271.2,102.3z M278.8,134
	c-1.6,3.8-3.6,7.5-5.8,11.1c-1.2,1.9-2.6,3.7-4.1,5.3c-0.7,0.8-1.4,1.5-2.2,2.2c-0.7,0.6-1.4,1.2-2.2,1.7c-0.6,0.5-1.3,0.8-2.1,1.1
	c-0.5,0.3-1.1,0.4-1.7,0.5l-1.5,0.2l1.5-0.4c0.6-0.1,1.1-0.4,1.6-0.7c0.7-0.3,1.3-0.7,1.9-1.2c1.5-1.1,2.9-2.5,4.1-3.9
	c1.4-1.7,2.7-3.4,3.9-5.3c2.2-3.5,4.3-7.1,6.1-10.8c1.5-3,2.5-5.1,2.5-5.1S280.2,130.9,278.8,134z M289.7,143
	c-0.2,1.2-0.5,2.3-0.9,3.4c-0.8,2.4-1.8,4.8-2.9,7.1c-1.2,2.2-2.5,4.4-4,6.5c-0.7,1-1.4,1.9-2.2,2.8c-0.7,0.9-1.5,1.6-2.1,2.3
	c-1.1,1.1-2.3,2.1-3.7,2.9l-1.6,0.7l1.6-0.9l1.5-1.3c0.5-0.6,1.2-1.2,1.8-1.9c3.1-3.6,5.7-7.5,7.8-11.7c1.2-2.2,2.2-4.5,3-6.9
	c0.4-1.1,0.7-2.2,1-3.3c0.2-1,0.4-2,0.5-3c0.1-0.9,0.1-1.8,0.1-2.6s-0.2-1.4-0.4-2l-0.8-1.6l0.9,1.6c0.2,0.5,0.3,1.2,0.6,2
	c0.1,0.9,0.1,1.8,0.1,2.7C290,140.9,289.9,141.9,289.7,143L289.7,143z M287.6,112L287.6,112c-3,0.1-5,0.4-5,0.4
	c0.4-0.2,0.8-0.5,1.3-0.6c1.1-0.5,2.3-0.9,3.5-1.2c3.6-1,7.3-1.6,11.1-1.6c2,0,4,0.1,6,0.4c1.8,0.3,3.5,0.7,5.2,1.4
	c0.7,0.3,1.3,0.6,1.9,1c0.5,0.3,0.9,0.6,1.4,0.9c0.7,0.6,1,1,1,1s-0.5-0.2-1.3-0.5c-1.1-0.4-2.3-0.7-3.4-0.9
	c-3.5-0.5-7.1-0.7-10.7-0.6C294.5,111.7,290.5,111.9,287.6,112L287.6,112z M298.8,121.8c-1.3,0.4-2.4,0.7-3.2,1
	c-0.4,0.1-0.8,0.2-1.2,0.3c0,0,1.6-1,4.1-2.2c3-1.6,6.2-2.8,9.5-3.7c1.8-0.5,3.6-0.7,5.5-0.8c1.6-0.1,3.3,0.1,4.9,0.5
	c0.6,0.1,1.3,0.4,1.8,0.7c0.5,0.2,0.9,0.4,1.3,0.8l1,0.8l-1.2-0.5c-0.4-0.2-0.9-0.4-1.4-0.4c-0.6-0.2-1.2-0.3-1.8-0.3
	c-0.7-0.1-1.4-0.1-2.1-0.1c-0.8,0-1.5,0.1-2.4,0.2c-1.7,0.2-3.5,0.6-5.2,1C304.9,119.9,301.4,121,298.8,121.8L298.8,121.8z
	 M317.2,126.3c-3.5,0.9-7,2-9.6,2.8c-1.3,0.4-2.4,0.7-3.2,1c-0.4,0.1-0.8,0.2-1.2,0.3c0,0,1.6-0.9,4.1-2.2c3-1.6,6.2-2.8,9.6-3.7
	c1.8-0.5,3.6-0.7,5.5-0.8c1.6-0.1,3.3,0.1,4.9,0.5c0.6,0.1,1.3,0.4,1.8,0.7c0.5,0.2,0.9,0.4,1.3,0.8l1,0.8L330,126
	c-0.4-0.2-0.9-0.4-1.4-0.4c-0.6-0.2-1.2-0.3-1.8-0.3c-0.7-0.1-1.4-0.1-2.1-0.1c-0.8,0-1.6,0.1-2.4,0.2
	C320.6,125.6,318.9,125.9,317.2,126.3L317.2,126.3z M343.5,132.6c-0.3,0-0.5-0.1-0.8-0.1c-0.7-0.1-1.4-0.1-2.1-0.1
	c-0.8,0-1.6,0.1-2.4,0.2c-1.7,0.2-3.5,0.6-5.2,1c-3.5,0.9-7,2-9.6,2.8c-1.3,0.4-2.4,0.7-3.2,1c-0.4,0.1-0.8,0.2-1.2,0.3
	c0,0,1.6-0.9,4-2.2c3-1.6,6.2-2.8,9.5-3.7c1.8-0.5,3.6-0.7,5.5-0.8c1.6-0.1,3.3,0.1,4.9,0.5c0.3,0.1,0.7,0.2,1,0.3L343.5,132.6z
	 M370.5,144.2L370.5,144.2c-0.6,8.5-1.2,17-2,25.2c-0.4,4.5-0.9,9-1.3,13.4l-0.3,2.9c-0.5,4.6-1,9.1-1.5,13.4
	c-0.4,3.3-0.8,6.6-1.2,9.7c-0.3,2.6-0.7,5.1-1,7.5c-1.3,9.8-2.4,17.9-3.1,23.6s-1,9-1,9s-0.1-3.3,0.2-9.1c0.4-5.8,0.9-14,1.8-23.8
	c0.4-3.9,0.7-8.1,1.1-12.5c0.1-0.6,0.1-1.2,0.2-1.8c0.2-2.8,0.5-5.7,0.8-8.6c0.2-2.1,0.4-4.2,0.6-6.3c0.1-1.4,0.2-2.8,0.4-4.2
	c0.4-4.2,0.8-8.6,1.1-13c0.1-1.3,0.2-2.5,0.3-3.8c0.3-4.3,0.6-8.7,0.9-13.2c0.2-2.8,0.3-5.6,0.5-8.4c0.1-1.9,0.2-3.7,0.3-5.6
	c0.6-11.2,1-22.4,0.9-32.9c0-1.5,0-3,0-4.6c-0.1-5.7-0.3-11.2-0.7-16.4c-0.3-4.4-0.8-8.6-1.4-12.4c-0.7-4.8-1.8-9.4-3.4-14
	c-0.2-0.5-0.3-0.9-0.5-1.3c-0.9-2.4-2.1-4.7-3.6-6.8c-0.3-0.3-0.5-0.7-0.8-1c-1.1-1.4-2.4-2.6-3.9-3.5c-0.5-0.3-1-0.6-1.6-0.8
	l-0.5-0.2l0.6,0.2c0.6,0.2,1.1,0.4,1.6,0.7c1.5,0.8,2.9,1.8,4.1,3c0.4,0.4,0.8,0.8,1.1,1.2c1.6,2,2.9,4.2,4,6.5
	c1,2.1,1.8,4.2,2.5,6.4c1,3,1.8,6.1,2.4,9.2c0.1,0.6,0.2,1.3,0.3,1.9c0.8,4.3,1.4,8.9,1.9,13.8c0.6,5.7,0.9,11.8,1,18
	c0,0.6,0,1.1,0,1.7C371.4,119.1,371.1,131.7,370.5,144.2L370.5,144.2z M499.5,53c9.4-4.2,18.5-9.2,24.7-13.7
	c1.6-1.1,2.9-2.2,4.1-3.2c1-0.9,2-1.8,2.9-2.8c0.6-0.7,1.1-1.4,1.5-2.1l0.5-0.8l-0.5,0.8l0,0c-0.4,0.8-0.9,1.5-1.5,2.2
	c-0.9,1.1-1.8,2.1-2.8,3c-1.3,1.2-2.6,2.3-4.1,3.4c-6.2,4.7-15.3,9.7-24.6,14.1c-8.6,4-17.5,7.4-26.5,10.4c-3.7,1.2-6.8,2-9,2.6
	l-3.5,0.8l3.4-0.9c2.2-0.6,5.2-1.7,8.9-2.9C482.2,60.6,490.9,57.1,499.5,53z M426.3,82.5c0.4-0.7,1-1.4,1.6-2.1
	c0.7-0.9,1.5-1.7,2.3-2.4c1-0.9,2-1.8,3.1-2.6c1.2-0.9,2.5-1.7,3.8-2.4c2.8-1.6,5.7-3,8.7-4.1c6.1-2.3,12.3-3.9,16.9-5.2
	c2.3-0.7,4.2-1.3,5.5-1.8l2.1-0.9c0,0-0.6,0.5-1.7,1.5c-1.6,1.2-3.3,2.2-5.1,3.1c-4.4,2.2-10.5,4.3-16.4,6.6
	c-1.5,0.5-2.9,1.2-4.4,1.7c-1.4,0.6-2.8,1.2-4.1,1.8c-2.4,1.1-4.8,2.4-7.1,3.8c-0.9,0.6-1.8,1.2-2.6,1.8c-0.7,0.5-1.4,1-2,1.6
	l-1.8,1.4L426.3,82.5z M406,134.1c-0.8-0.2-1.9-0.4-3.2-0.8c-2.7-0.7-6.2-1.6-9.8-2.2c-1.7-0.3-3.5-0.6-5.3-0.7
	c-0.8,0-1.6-0.1-2.4,0c-0.7,0-1.4,0.1-2.1,0.2l-0.6,0.1l-0.4-0.8c0.3-0.1,0.5-0.2,0.8-0.3c1.6-0.5,3.2-0.8,4.8-0.8
	c1.9,0,3.7,0.2,5.5,0.5c3.4,0.7,6.6,1.7,9.8,3.1c2.5,1.1,4.2,2,4.2,2L406,134.1L406,134.1z M421.2,172.7c0.6,1.3,1.3,2.5,2.1,3.6
	c0.7,1,1.5,2,2.3,2.9c0.8,0.7,1.6,1.4,2.5,1.9c0.7,0.4,1.4,0.8,2.2,1.1l2.1,0.6l-2.1-0.5c-0.8-0.3-1.6-0.6-2.3-1
	c-1-0.5-1.8-1.2-2.7-1.9c-0.9-0.9-1.8-1.9-2.5-2.9c-0.9-1.2-1.6-2.4-2.2-3.7c-0.7-1.4-1.2-2.8-1.7-4.2c-0.5-1.5-0.9-3-1.3-4.6
	c-0.7-3-1.1-6.1-1.3-9.2c-0.1-2.7-0.1-5.4,0.2-8.1c0.2-1.9,0.4-3.8,0.9-5.6l0.5-2.1l-0.3,2.1c-0.3,1.9-0.4,3.8-0.5,5.6
	c-0.1,2.7-0.1,5.3,0.1,8c0.2,3,0.6,6.1,1.3,9.1c0.3,1.5,0.7,3,1.2,4.5C420,169.9,420.5,171.3,421.2,172.7L421.2,172.7z M420,126.7
	c-0.8-0.2-1.9-0.4-3.2-0.8c-2.7-0.7-6.2-1.6-9.8-2.2c-1.7-0.3-3.5-0.6-5.2-0.7c-0.8,0-1.6-0.1-2.4,0c-0.7,0-1.4,0.1-2.1,0.2
	c-0.6,0.1-1.2,0.2-1.8,0.4c-0.5,0.1-0.9,0.3-1.3,0.5l-1.1,0.6l0.9-0.9c0.4-0.3,0.8-0.6,1.2-0.8c0.5-0.4,1.2-0.6,1.8-0.8
	c1.6-0.5,3.2-0.8,4.8-0.8c1.8,0,3.7,0.2,5.5,0.5c3.3,0.6,6.6,1.6,9.7,3c2.5,1.1,4.2,2,4.2,2S420.8,127,420,126.7L420,126.7z
	 M430.2,118.7c-0.8-0.2-1.9-0.4-3.3-0.8c-2.7-0.7-6.2-1.6-9.8-2.2c-1.7-0.3-3.4-0.6-5.2-0.7c-0.8,0-1.6-0.1-2.4,0
	c-0.7,0-1.4,0.1-2.1,0.2c-0.6,0.1-1.2,0.2-1.8,0.4c-0.5,0.1-0.9,0.3-1.3,0.5l-1.1,0.6l0.9-0.9c0.4-0.3,0.8-0.6,1.2-0.8
	c0.5-0.4,1.2-0.6,1.8-0.8c1.6-0.5,3.2-0.8,4.8-0.8c1.9,0,3.7,0.2,5.5,0.5c3.4,0.7,6.6,1.7,9.8,3.1c2.5,1.1,4.2,2,4.2,2L430.2,118.7z
	 M426.7,107.7c-3.6,0.1-7.1,0.5-10.6,1.2c-1.2,0.2-2.3,0.6-3.4,1.1c-0.8,0.4-1.3,0.6-1.3,0.6s0.3-0.4,1-1c0.9-0.8,2-1.5,3.1-2.1
	c1.6-0.8,3.3-1.4,5.1-1.7c2-0.4,4-0.7,6-0.8c3.8-0.2,7.5,0.2,11.2,0.9c1.2,0.3,2.4,0.6,3.6,1c0.4,0.1,0.9,0.3,1.3,0.6c0,0-2-0.1-5,0
	S430.7,107.5,426.7,107.7L426.7,107.7z M450.9,159.5l1.9,1.8l1.6,1.2l1.6,0.8l-1.7-0.6c-1.4-0.7-2.7-1.6-3.9-2.7
	c-0.7-0.7-1.5-1.4-2.2-2.2c-0.8-0.8-1.5-1.7-2.2-2.7c-1.6-2-3.1-4.1-4.4-6.3c-1.3-2.2-2.4-4.5-3.4-6.9c-0.5-1.1-0.8-2.2-1.1-3.4
	c-0.3-1-0.5-2.1-0.6-3.1c-0.1-0.9-0.1-1.8-0.1-2.7c0.2-0.8,0.3-1.5,0.4-2l0.8-1.6l-0.7,1.6c-0.1,0.6-0.1,1.2-0.2,2
	c0.1,0.8,0.1,1.6,0.2,2.6c0.2,1,0.4,2,0.7,3c0.3,1.1,0.7,2.2,1.2,3.2c1,2.3,2.1,4.5,3.4,6.7C444.8,152.4,447.7,156.1,450.9,159.5
	L450.9,159.5z M449.2,106.3c-0.1-0.2-0.1-0.4,0-0.5l0.1,0.5c0,0.2,0,0.3,0.1,0.6C449.3,106.6,449.3,106.4,449.2,106.3L449.2,106.3z
	 M447,97.7L447,97.7c-3.8,0.4-8.8,0.6-13.8,1c-2.5,0.2-4.9,0.4-7.2,0.7c-1.1,0.1-2.2,0.4-3.2,0.6s-2,0.5-2.8,0.8
	c-0.8,0.3-1.5,0.6-2.3,0.9c-0.6,0.3-1.1,0.6-1.7,0.9l-1.4,1.1c0,0,0.3-0.6,0.9-1.6c0.4-0.6,0.9-1.1,1.4-1.6c0.7-0.6,1.4-1.2,2.2-1.7
	c0.9-0.6,1.9-1,2.9-1.4c1.1-0.4,2.2-0.8,3.4-1.1c2.5-0.6,5-1,7.6-1.2c4.7-0.3,9.4-0.1,14.1,0.5c3.8,0.5,6.3,1.1,6.3,1.1
	C451.3,97.2,449.2,97.5,447,97.7z M451.7,85.2L451.7,85.2c-1.8,0.4-3.9,0.9-6.1,1.3s-4.6,0.9-6.9,1.6c-2.3,0.5-4.5,1.2-6.7,1.9
	c-1,0.4-2.1,0.7-2.9,1.2c-0.9,0.4-1.7,0.8-2.5,1.3c-0.7,0.4-1.4,0.8-2.1,1.3c-0.5,0.4-1.1,0.8-1.5,1.2l-1.3,1.1c0,0,0.2-0.6,0.8-1.6
	c0.3-0.6,0.7-1.2,1.1-1.7c0.5-0.7,1.1-1.4,1.8-2c1.6-1.5,3.5-2.8,5.5-3.8c1.1-0.5,2.3-1,3.4-1.4c1.2-0.4,2.4-0.8,3.6-1.1
	c4.5-1,9.1-1.5,13.7-1.4c3.7,0,6.2,0.2,6.2,0.2C455.7,84.1,453.7,84.8,451.7,85.2L451.7,85.2z M533.4,54.9c-0.6,0.6-1.3,1.1-2.1,1.5
	c-2.6,1.5-5.3,2.9-8.1,4c-8.5,3.4-17.2,6.3-26.1,8.7c-4.8,1.3-9.7,2.4-14.3,3.3s-8.9,1.6-12.6,2.1c-1.9,0.2-3.6,0.4-5.1,0.4
	s-2.9,0.1-4,0.1l-3.4-0.2h3.4c1.1,0,2.4-0.2,3.9-0.2s3.2-0.4,5.1-0.6c3.7-0.5,8-1.3,12.6-2.2s9.4-2.2,14.2-3.5
	c8.9-2.2,17.6-5,26.2-8.2c1.7-0.7,3.3-1.3,4.7-1.9c1.2-0.5,2.4-1.1,3.5-1.7C532,55.9,532.8,55.4,533.4,54.9l0.7-0.6L533.4,54.9z"/>
<path class="st2" d="M519.5,210.5v-89.9H539c5.8,0,10.6,1.8,14.1,5.4c3.6,3.6,5.4,8.3,5.4,14.1v17.8c0,5.9-1.8,10.6-5.3,14.2
	c-3.5,3.6-8.3,5.3-14.2,5.4h-5.3v33.1H519.5z M533.7,164.1h5.4c2.8,0.1,5.2-2,5.3-4.8v-20.2c0.1-2.8-2-5.2-4.8-5.3h-5.8L533.7,164.1
	z"/>
<path class="st2" d="M576.3,210.5v-89.9h14.2v38.3h10.7v-38.3h14.2v89.9h-14.2v-38.3h-10.7v38.3H576.3z"/>
<path class="st2" d="M655,212.3c-5.8,0-10.6-1.8-14.1-5.4s-5.4-8.3-5.4-14.1v-54.4c0-5.9,1.8-10.7,5.3-14.2
	c3.6-3.5,8.3-5.3,14.2-5.3c5.8,0,10.6,1.8,14.1,5.4c3.6,3.6,5.4,8.3,5.4,14.2v54.4c0,5.9-1.8,10.7-5.3,14.2S660.9,212.3,655,212.3z
	 M651.1,197.6c2,2.1,5.4,2.2,7.5,0.2c1.1-1,1.7-2.5,1.7-4v-56.3c0.2-2.9-2.1-5.5-5-5.6s-5.5,2.1-5.6,5c0,0,0,0.1,0,0.1
	c0,0.1,0,0.3,0,0.4v56.3C649.6,195.1,650.1,196.5,651.1,197.6L651.1,197.6z"/>
<path class="st2" d="M694.6,210.5v-89.9h36.7v13.2h-22.5v25.1h17.8v13.2h-17.8v25.1h22.5v13.2H694.6z"/>
<path class="st2" d="M748.5,210.5v-89.9h11.7l15.5,44v-44h14.2v90H778l-15.3-43.7v43.7L748.5,210.5z"/>
<path class="st2" d="M811.2,210.5v-89.9h14.2v89.9L811.2,210.5z"/>
<path class="st2" d="M838.4,210.5l18-47.3l-16.2-42.6h15.1l8.6,22.7l8.6-22.7h15.2l-16.2,42.6l18,47.3h-15.2L864,183.1l-10.4,27.4
	L838.4,210.5z"/>
<path class="st3" d="M552.5,223.7c0.2,0,0.4,0.1,0.5,0.4c0,0,0,0,0,0c0,0,0,0.1,0,0.1c0,0.2-0.1,0.4-0.3,0.5c0,0,0,0,0,0h-16.1v76.2
	c-0.1,0.3-0.3,0.4-0.6,0.3c-0.2,0-0.3-0.2-0.3-0.3v-76.2h-16c-0.2,0-0.4-0.1-0.5-0.3c0,0,0-0.1,0-0.1c0-0.2,0.1-0.4,0.4-0.5
	c0,0,0,0,0,0c0,0,0.1,0,0.1,0L552.5,223.7z"/>
<path class="st3" d="M591.2,224.1l10.3,76.7c0,0.4-0.1,0.6-0.3,0.6c-0.3,0-0.5-0.1-0.5-0.5l-2.6-19.8h-22.7l-2.6,19.8
	c0,0.3-0.2,0.5-0.7,0.5c-0.3,0-0.4-0.2-0.4-0.6L582,224c0-0.2,0.2-0.4,0.5-0.4h8.3C591,223.7,591.2,223.8,591.2,224.1z M575.5,280.1
	H598l-7.4-55.5h-7.7L575.5,280.1z"/>
<path class="st3" d="M650,299.5c-4.8,5.2-13,5.5-18.2,0.6c-2.8-2.6-4.2-6.2-4.1-10v-4.5c0.1-0.2,0.3-0.4,0.6-0.3c0,0,0,0,0,0
	c0.2,0,0.3,0.2,0.3,0.3v4.5c0.2,6.6,5.7,11.8,12.3,11.6c6.3-0.2,11.4-5.3,11.6-11.6v-6.4c0-3-0.6-5.9-1.8-8.6
	c-1.1-2.5-2.6-4.8-4.6-6.7l-6-5.8l-6-5.8c-1.9-1.9-3.5-4-4.6-6.4c-1.2-2.5-1.9-5.3-1.8-8.1v-7.6c0-7.1,5.8-12.9,12.9-12.9
	c7.1,0,12.9,5.8,12.9,12.9v4.5c0.1,0.3-0.1,0.5-0.3,0.6c-0.2,0.1-0.5-0.1-0.6-0.3c0,0,0,0,0,0c0-0.1,0-0.2,0-0.3v-4.5
	c0.2-6.6-5-12.1-11.6-12.3s-12.1,5-12.3,11.6c0,0.2,0,0.5,0,0.7v7.6c0,3.2,0.9,6.3,2.6,9c1.7,2.8,3.8,5.3,6.2,7.4
	c2.4,2.1,4.9,4.3,7.4,6.6c2.5,2.4,4.6,5.1,6.2,8.1c1.7,3.2,2.6,6.7,2.5,10.3v6.4C653.8,293.7,652.5,297.1,650,299.5z"/>
<path class="st3" d="M698.7,251.8l14.9,49.1c0,0.3-0.1,0.4-0.4,0.4s-0.3-0.1-0.4-0.4l-14.6-48.2l-11,24.2v23.8
	c-0.1,0.3-0.3,0.4-0.6,0.3c0,0,0,0,0,0c-0.2,0-0.3-0.2-0.3-0.3v-76.6c0-0.2,0.1-0.4,0.4-0.5h0.1c0.2,0,0.4,0.1,0.5,0.4
	c0,0,0,0.1,0,0.1v51.1l23.1-51.1c0.1-0.3,0.3-0.5,0.5-0.5s0.3,0.1,0.3,0.4c0,0.1-0.1,0.3-0.1,0.4L698.7,251.8z"/>
<path class="st3" d="M761.5,299.5c-4.9,5.2-13,5.5-18.2,0.6c-2.7-2.6-4.2-6.2-4.1-9.9v-4.5c0-0.2,0.1-0.4,0.3-0.5h0.1
	c0.2,0,0.4,0.1,0.5,0.4v4.6c0.2,6.6,5.7,11.8,12.3,11.6c6.3-0.2,11.4-5.3,11.6-11.6v-6.4c0-3-0.6-5.9-1.8-8.6
	c-1.1-2.5-2.6-4.8-4.6-6.7l-6-5.8l-6-5.8c-1.9-1.9-3.4-4-4.6-6.4c-1.2-2.5-1.8-5.3-1.8-8.1v-7.6c0-7.1,5.8-12.9,12.9-12.9
	c7.1,0,12.9,5.8,12.9,12.9c0,0,0,0,0,0v4.5c0.1,0.3-0.1,0.5-0.3,0.6c-0.2,0.1-0.5-0.1-0.6-0.3c0,0,0,0,0,0c0-0.1,0-0.2,0-0.3v-4.5
	c-0.6-6.6-6.4-11.5-13-10.9c-5.8,0.5-10.3,5.1-10.9,10.9v7.6c0,3.2,0.9,6.3,2.6,9c1.7,2.8,3.8,5.3,6.2,7.4c2.5,2.1,4.9,4.3,7.3,6.6
	c2.5,2.4,4.6,5.1,6.2,8.1c1.7,3.2,2.6,6.7,2.5,10.3v6.4C765.2,293.7,763.9,297.1,761.5,299.5z"/>
</svg>
