<?xml version="1.0" encoding="utf-8"?>
<!-- Generator: Adobe Illustrator 25.2.1, SVG Export Plug-In . SVG Version: 6.00 Build 0)  -->
<svg version="1.1" id="Camada_1" xmlns="http://www.w3.org/2000/svg" xmlns:xlink="http://www.w3.org/1999/xlink" x="0px" y="0px"
	 viewBox="0 0 1024 660.8" style="enable-background:new 0 0 1024 660.8;" xml:space="preserve">
<style type="text/css">
	.st0{fill:url(#SVGID_1_);}
	.st1{fill:#E6EAE9;}
	.st2{fill:#E6EAE9;stroke:#E6EBEC;stroke-width:2;stroke-miterlimit:10;}
</style>
<g>
	
		<linearGradient id="SVGID_1_" gradientUnits="userSpaceOnUse" x1="320.3301" y1="503.9105" x2="313.8425" y2="362.4626" gradientTransform="matrix(1 0 0 -1 0 662.39)">
		<stop  offset="0" style="stop-color:#ED8506"/>
		<stop  offset="0.16" style="stop-color:#EA7A09"/>
		<stop  offset="0.44" style="stop-color:#E25D0F"/>
		<stop  offset="0.81" style="stop-color:#D52F1B"/>
		<stop  offset="1" style="stop-color:#CD1421"/>
	</linearGradient>
	<path class="st0" d="M507.4,203.4L507.4,203.4l-1,0.4l-1.1,0.5l-1.6,0.4c-1.1,0.3-2.5,0.5-4.1,0.9c-1.6,0.4-3.5,0.6-5.4,1.1
		c-3.9,0.8-8.6,1.7-13.4,2.9c-4.9,1.1-10.1,2.4-15.2,3.8c-3.6,1-7.2,2-10.7,3c0.2-0.6,0.3-1.3,0.5-1.9c5.9-1.7,11.6-3.9,17.1-6.4
		c10.4-4.8,20.2-11.3,26.4-17.8c1.4-1.5,2.8-3,3.9-4.7c1.1-1.4,1.9-3.1,2.6-4.2c0.6-1.1,0.7-2.2,0.9-2.8l0.3-1l0,0l-0.8,0.7
		c-0.7,0.7-1.5,1.3-2.3,1.9c-1.1,0.6-2.1,1.4-3.6,2.2c-1.5,0.8-3.1,1.7-5,2.5c-1.9,0.8-3.8,1.8-6,2.8s-4.4,1.9-6.7,3.1
		c-4.7,2.1-9.7,4.4-14.6,6.6c-3.1,1.5-6.2,2.9-9.3,4.4c0.3-2,0.6-3.5,0.6-4.7c27-8.6,42.3-37.3,37.9-52.5
		c0.1,25.9-48.9,57.9-97,67.8c-29.3,6-13.3,30.4-43.4,39.9c-8.4,2.7-10.7,1.1-15.2-3.7l0,0c1.7,0.6,3.5,0.3,5,0.4
		c1.4-0.1,4.1-1,6.6-2.3c0.9-0.4,1.7-1,2.2-1.8c0,0-5.3,2.6-8.6,2.4c-1.3-0.4-2.7-0.5-4-1.2c-1.3-0.6-2.4-1.2-3.5-2.1
		c-0.5-2.1-0.9-4.2-1.1-6.4c1.4,0.8,2.7,1.4,3.9,2c0.7,0.4,1.5,0.7,2.3,0.9l1.7,0.6l1.5,0.5l-1.3-1l-1.4-1.1
		c-0.6-0.4-1.2-0.9-1.7-1.5c-1.2-1.2-2.6-2.5-3.9-4.2c-0.5-0.6-1.8-4.5-1.9-5.8l4.9,2.5c3.4,1.2,5.6,1.9,5.6,1.9s-1.9-1.4-4.6-3.4
		l-4.1-4.1c-0.7-0.8-2.6-6.5-2.8-8.2c1.4,0.9,2.8,1.7,4.3,2.3c1.1,0.4,2.2,0.7,3.3,0.8l1.3,0.2l-1.1-0.7c-0.9-0.6-1.8-1.2-2.6-1.9
		c-1.1-1-2-2.1-2.8-3.4c-0.9-1.4-1.6-2.9-2.2-4.5c-0.5-1.3-1-2.7-1.6-4.1c-0.1-0.5-0.2-0.9-0.3-1.4c2.3,0.8,4.6,2.1,6,3.5
		c-1.3-6.8-7.5-8.6-9.1-10.2l-0.4-0.6l0,0c-0.5-1.8,3.6-1.3,4.3-0.9c-5.6-6.1-16.7-5.6-18.5-5.5c-2.2-0.2-4.4,0.1-6.5,0.8
		c-6.3,1.8-11.7,7.5-13.5,13.3c-4.6,1.6-6,6.4-6,6.4s9.2-0.9,14.3,3.2c2.9-2.8,4.6-2,5.6,0.4l-0.1,0l0.3,0.4
		c1.9,5.6,0.7,18.2,0.7,18.2c-2.2,14.5-12.2,24.9-27.1,21.1c-30.6-7.6-16.2-33-45.7-37.2c-48.7-6.9-99.6-35.9-101-61.7
		c-3.5,15.5,13.6,43.1,41.1,50.1c0.2,1.1,0.5,2.7,0.9,4.6c-3.1-1.3-6.3-2.5-9.5-3.8c-5.1-2-10.2-3.9-15-5.7c-2.3-1-4.7-1.7-6.9-2.6
		c-2.1-0.9-4.3-1.6-6.2-2.4s-3.6-1.5-5.1-2.2c-1.5-0.7-2.6-1.4-3.8-1.9c-0.8-0.5-1.6-1.1-2.4-1.7l-0.9-0.6l0.3,1
		c0.3,0.6,0.4,1.7,1.1,2.8c0.7,1.1,1.6,2.7,2.8,4c1.3,1.6,2.7,3.1,4.2,4.4c6.6,6.1,16.8,11.9,27.5,16.1c5.7,2.2,11.5,4,17.5,5.4
		c0.2,0.6,0.4,1.2,0.6,1.8c-3.5-0.8-7.2-1.6-10.8-2.3c-5.2-1-10.5-2-15.4-2.8s-9.6-1.5-13.6-2c-2-0.3-3.9-0.5-5.5-0.7
		c-1.6-0.3-3.1-0.4-4.1-0.6l-1.6-0.3l-1.2-0.4l-1-0.3l0.8,0.6c0.7,0.6,1.5,1,2.4,1.4c1.3,0.6,2.6,1.2,3.9,1.6
		c1.5,0.6,3.3,1.1,5.2,1.8c7.7,2.5,18.3,5.1,28.9,7.2c5.3,1.1,10.6,2.1,15.7,2.9c5,0.8,9.7,1.3,13.8,1.6c2,0.1,3.9,0.3,5.5,0.3
		s3.1,0.1,4.3,0l3.7-0.3l-3.7,0.5c-1.2,0.1-2.6,0.1-4.3,0.2c-1.7,0.1-3.5-0.1-5.6-0.1c-4.1-0.2-8.8-0.7-13.9-1.4
		c-5.1-0.7-10.4-1.6-15.8-2.6c-10.6-2.3-21.2-5-28.9-7.6c-3.1-1-6.2-2.3-9.1-3.8c-0.8-0.4-1.6-0.9-2.3-1.5l-0.8-0.6
		c0,0,0.2,0.3,0.6,0.8c0.5,0.8,1.2,1.5,2,2.1c2,1.9,4.9,3.8,8.7,5.8c4.2,2.2,8.6,4.1,13.1,5.7c5.1,1.8,10.4,3.2,15.7,4.3
		c2.7,0.6,5.4,1,8.1,1.4c2.7,0.4,5.4,0.6,8,0.8l1.3,0.1l0.2,0.4c-3.7,0-7.5,0-11.3,0.2c-9.4,0.4-18.7,1.4-25.7,2.3
		c-3.5,0.5-6.4,0.9-8.4,1c-0.8,0.1-1.5,0-2.3-0.1c-0.3-0.1-0.5-0.3-0.7-0.5c0.1,0.3,0.3,0.5,0.5,0.7c0.6,0.5,1.4,0.8,2.2,1
		c2,0.6,5,0.8,8.5,1.1c7.1,0.5,16.7,0.4,26.2,0c9.5-0.3,19.1-1,26.1-1.8c3.5-0.4,6.5-0.8,8.5-1.3c1.1-0.2,2.1-0.5,3.2-0.8
		c-1,0.4-2.1,0.7-3.1,1c-2.8,0.7-5.6,1.2-8.5,1.6c-7.1,1-16.6,1.8-26.2,2.3c-9.6,0.3-19.1,0.2-26.3-0.4c-2.9-0.2-5.8-0.7-8.5-1.5
		c-0.8-0.2-1.5-0.6-2.2-1.1c-0.2-0.2-0.4-0.4-0.4-0.7c0,0.3,0,0.6,0.2,0.9c0.5,0.8,1.3,1.5,2.1,1.9c2,1.3,5,2.5,8.6,3.6
		c7.3,2.1,17,3.1,26.7,2.7c5.1-0.2,10.3-0.8,15.3-1.7c0.4,0.9,0.9,1.9,1.3,2.8c-5.1,0.4-10,1.5-14.9,3c-2.8,0.9-5.5,1.9-8,3
		c-2.5,1.1-4.8,2.3-6.7,3.2c-1.5,0.9-3.1,1.6-4.7,2.3c-0.5,0.2-1,0.3-1.5,0.4l-0.7,0.1l0,0c0.1,0.2,0.2,0.3,0.3,0.5
		c0.4,0.5,0.8,1,1.4,1.3c0.8,0.5,1.7,1,2.6,1.2c1.1,0.4,2.3,0.7,3.5,0.9c5.1,0.9,11.5,0.1,17.4-1.8c5.3-1.7,10.2-4.3,14.6-7.7
		c0.5,1,1,1.9,1.5,2.9c-1.7,0.9-3.4,1.8-5.1,2.7c-5.8,3.3-11.3,7.1-16.5,11.3c-2.1,1.8-3.9,3.4-5.1,4.5c-0.6,0.5-1.1,1.1-1.5,1.3
		l-0.6,0.4l0.7-0.1c0.6-0.1,1.2-0.3,1.8-0.5c1.5-0.6,3.6-1.5,6.1-2.7c5-2.4,11.5-5.8,17.8-9.5c3.2-1.8,6.4-3.6,9.3-5.5
		s5.6-3.6,7.8-5.2c1.1-0.8,2.1-1.6,2.9-2.3c0.7-0.6,1.4-1.3,2.1-2c0.4-0.4,0.8-1,1.1-1.5l0.3-0.6l-0.3,0.6c-0.2,0.6-0.6,1.1-1,1.6
		c-0.6,0.8-1.3,1.5-2,2.2c-0.9,0.9-1.8,1.7-2.8,2.5c-2.5,2-5,3.8-7.7,5.5c-2.9,1.9-6.1,3.8-9.3,5.6c-5.9,3.3-11.9,6.4-18.1,9.1
		c-2.1,0.9-4.2,1.7-6.3,2.4c-0.6,0.2-1.2,0.4-1.8,0.4l-0.7,0.1c0.2,0.1,0.4,0.2,0.7,0.3c0.7,0.2,1.4,0.3,2.1,0.3
		c2.4,0.1,4.8-0.1,7.2-0.5c5.8-1,13-3.5,19.5-7.3c1.7-1,3.4-2,5-3.1l0.8,1.3c-1.8,1.3-3.4,2.7-4.9,4.2c-1.3,1.4-2.5,2.9-3.6,4.4
		c-0.9,1.4-1.8,2.8-2.6,4.3l-1,1.9c-0.4,0.6-0.7,1.1-0.9,1.5c-0.4,0.5-0.8,0.9-1.2,1.3l0.5-0.1c0.4-0.1,0.9-0.2,1.3-0.3
		c0.6-0.3,1.3-0.6,1.9-0.9c0.7-0.4,1.5-0.9,2.3-1.5c3.9-2.9,7.5-6.1,10.9-9.6c2.8-2.7,5.5-5.5,7.8-8l2.4-2.5
		c2.7-2.9,4.5-4.9,4.5-4.9s-1.5,2.2-4.1,5.3c-0.8,1-1.8,2.2-2.9,3.3c-2.1,2.4-4.5,5-7,7.5c-3.8,3.7-7.9,7.2-11.3,9.4
		c-0.8,0.5-1.6,1-2.4,1.3c-0.6,0.3-1.3,0.6-2,0.8c-0.4,0.1-0.9,0.2-1.3,0.2l-0.5,0c0.5,0.4,1.1,0.8,1.7,1c1.6,0.5,3.3,0.5,5,0.2
		c3.9-0.7,8.2-3.2,11.3-6.4c0.9-1,1.8-2.1,2.6-3.2l0.9,1.2c-1.4,2.1-2.9,4.2-4.3,6.4c-2.8,4.3-5.6,8.5-7.7,11.7
		c-1.1,1.7-2.1,3.3-2.9,4.4s-1.2,1.9-1.2,1.9l0.5-0.2c0.5-0.2,1-0.4,1.4-0.7c0.7-0.4,1.4-0.9,2-1.5c0.7-0.6,1.6-1.3,2.4-2.2
		c1.9-1.9,3.7-3.9,5.5-6c1.9-2.3,3.9-4.8,5.7-7.3c3.1-4.2,6-8.6,8.7-13.2c0.3-0.5,0.6-1,0.8-1.4c0.9-1.7,1.7-3.4,2.4-5.2
		c0.2-0.5,0.3-1,0.4-1.6c0.1-0.4,0.1-0.6,0.1-0.6l-0.1,0.6c0,0.5-0.1,1.1-0.3,1.6c-0.5,1.9-1.2,3.7-2.1,5.4
		c-0.3,0.7-0.7,1.5-1.1,2.3c-2.4,4.4-5.1,8.6-8.1,12.7c-3.8,5.1-8,10-11.6,13.1c-0.8,0.7-1.7,1.4-2.6,2c-0.7,0.5-1.4,0.9-2.2,1.3
		c-0.5,0.2-1,0.4-1.5,0.6l-0.6,0.2c0.7,0.1,1.5,0.2,2.3,0.2c0.9,0,1.7,0,2.6-0.2c1.1-0.2,2.2-0.4,3.3-0.7c2.6-0.9,5.1-2.2,7.2-3.9
		c1.2-0.9,2.4-2,3.4-3.1c1.1-1.2,2-2.4,2.9-3.7c0.7-1.2,1.4-2.4,2-3.7c0.8,0.9,1.6,1.7,2.4,2.6c-0.9,1.2-1.8,2.5-2.6,3.8
		c-0.7,1.1-1.5,2.3-2.1,3.4c-0.7,1.1-1.3,2.3-1.9,3.3c-0.6,1-1.1,2.2-1.7,3.1s-1,2-1.5,2.8s-0.9,1.8-1.4,2.3
		c-0.5,0.6-0.9,1.4-1.3,1.8l-1.6,1.5l0,0c0.7,0.3,1.5,0.6,2.3,0.7c0.9,0.1,1.9,0.1,2.8,0c1.2-0.1,2.4-0.5,3.5-0.9
		c1.3-0.5,2.5-1.1,3.6-1.9c1.2-0.8,2.4-1.7,3.5-2.7c2.2-2.1,4.2-4.4,5.8-6.9c0.5-0.8,0.9-1.5,1.3-2.3c1.1,0.9,2.3,1.8,3.4,2.7
		c-0.4,0.7-0.8,1.4-1.2,2.1c-0.6,1.1-1.2,2.2-1.8,3.3c-2.2,4.3-4.2,8.6-5.9,13.1c-0.4,0.9-0.7,1.8-1.1,2.6c-0.4,0.7-0.7,1.4-0.9,2
		l-1.1,1.9l0,0c0.8,0.2,1.6,0.2,2.3,0.1c2-0.3,3.9-0.9,5.7-1.9c2.3-1.3,4.5-3,6.3-5c1-1.1,2-2.2,2.8-3.4c0.9-1.2,1.7-2.6,2.4-3.9
		c0.8-1.5,1.4-3.1,1.9-4.7c1.6,0.9,3.2,1.7,4.8,2.4c0,0.4-0.1,0.8-0.1,1.2c-0.1,1.5-0.4,3-0.7,4.4c-0.2,1.4-0.6,2.8-1,4.2
		c-0.5,1.2-0.7,2.6-1.3,3.7c-0.2,0.6-0.5,1.1-0.7,1.7l-0.9,1.5c-0.5,0.9-1.1,1.7-1.8,2.5c-0.3,0.4-0.6,0.7-0.9,1.1l-0.9,0.8
		c-1.1,0.9-1.8,1.6-1.8,1.6l2-1l1.1-0.5l1.1-0.9c0.9-0.6,1.7-1.4,2.5-2.2l1.3-1.4l1.1-1.7c0.8-1.1,1.3-2.6,1.9-3.9
		c0.5-1.5,1-3,1.4-4.5c0.4-1.6,0.7-3.2,0.8-4.8c0.4-3.2,0.6-6.4,0.4-9.6c-0.1-2.8-0.4-5.6-0.9-8.3c-0.3-2-0.9-3.9-1.5-5.7
		c-0.6-1.3-1-2.1-1-2.1s0.4,0.7,1.1,2c0.8,1.8,1.5,3.7,1.9,5.7c0.7,2.8,1.1,5.6,1.3,8.4c0.2,3.3,0.1,6.5-0.3,9.8
		c-0.2,1.6-0.5,3.3-0.9,4.9c-0.4,1.6-0.9,3.1-1.5,4.6c-0.7,1.4-1.2,2.8-2.1,4l-1.2,1.7l-1.4,1.4c-0.8,0.8-1.7,1.6-2.7,2.1l-1.2,0.8
		l-1.1,0.4L239,334c0.8,0,1.6-0.1,2.4-0.2l1.3-0.2c0.5-0.1,0.9-0.4,1.4-0.6c1.2-0.4,2.3-1,3.3-1.8c0.6-0.4,1.2-0.9,1.8-1.4
		c0.5-0.6,1-1.2,1.6-1.8c1.2-1.2,1.9-2.7,2.8-4.2c0.8-1.6,1.4-3.2,1.9-4.9c0.4-1.5,0.7-3,1-4.5c1.4,0.4,2.8,0.8,4.2,1.2
		c0.3,0.4,0.4,0.6,0.7,1c-0.3,3-0.6,6.3-1.2,9.4c-0.2,1.6-0.6,3.1-0.8,4.6c-0.4,1.5-0.7,3-1.1,4.3c-0.4,1.3-0.8,2.6-1.4,3.9
		c-0.5,1.1-1,2.2-1.6,3.3c-0.7,0.8-1.2,1.9-1.9,2.5s-1.2,1.5-1.8,1.8c-1.2,0.9-1.9,1.5-1.9,1.5l2.2-0.8c0.7-0.2,1.4-0.8,2.3-1.4
		s1.6-1.5,2.6-2.3c0.7-1,1.7-2,2.4-3.3c0.8-1.3,1.4-2.7,2-4.1c0.6-1.5,1.1-3.1,1.5-4.6c0.4-1.6,0.7-3.3,1-5c0.5-3.3,0.8-6.6,0.8-9.9
		c0-2.9-0.1-5.8-0.4-8.7c-0.2-2-0.5-4.1-0.9-6.1l-0.5-2.3c0,0,0.2,0.8,0.7,2.3c0.6,2,1,4,1.3,6.1c0.5,2.9,0.7,5.8,0.7,8.8
		c0,3.4-0.2,6.7-0.7,10.1c-0.3,1.7-0.6,3.4-1.1,5c-0.4,1.6-1,3.2-1.6,4.7c-0.6,1.5-1.3,2.8-2.2,4.1c-0.7,1.3-1.8,2.3-2.6,3.3
		c-1,0.8-1.8,1.7-2.8,2.2c-1,0.5-1.7,1.1-2.4,1.2l-2.3,0.6c0.8,0,1.7,0,2.5,0c0.9,0,1.8-0.4,2.9-0.7c1.1-0.4,2.2-1.1,3.5-1.9
		c1-1,2.4-2,3.3-3.3c1.1-1.3,2-2.8,2.8-4.4c0.8-1.6,1.5-3.3,2-5c0.5-1.8,0.9-3.5,1.2-5.4c0.5-3.4,0.7-6.8,0.4-10.2
		c1,0.1,2.1,0.2,3.1,0.3c0,1.3,0,2.6,0,3.9c0.1,3,0.1,6.1,0.2,9.3c0,1.5,0.1,3.1,0.1,4.6c0,1.5,0.1,3,0,4.4c-0.1,1.4,0,2.8-0.1,4.1
		c0,1.2-0.1,2.5-0.3,3.7c-0.1,1-0.2,2.1-0.5,3.1c-0.1,0.8-0.3,1.6-0.6,2.4c-0.5,1.3-0.8,2.2-0.8,2.2l1.3-1.8
		c0.5-0.7,0.9-1.4,1.2-2.2c0.5-1,0.9-2,1.2-3.1c0.4-1.2,0.7-2.5,0.9-3.8c0.3-1.4,0.5-2.9,0.6-4.3c0.2-1.5,0.2-3.1,0.3-4.7
		s0-3.2,0-4.8c-0.2-5.9-0.7-11.9-1.5-17.8c-0.6-4.8-1.2-8-1.2-8s0.9,3.1,1.8,7.9c0.4,2.4,0.9,5.2,1.3,8.3c0.4,3,0.6,6.3,0.7,9.6
		c0,1.6,0.1,3.3-0.1,4.9c-0.1,1.6-0.1,3.2-0.4,4.7c-0.1,1.5-0.4,2.9-0.7,4.4c-0.3,1.3-0.6,2.6-1.1,3.8c-0.3,1.1-0.8,2.1-1.4,3.1
		c-0.4,0.8-0.8,1.5-1.4,2.1l-1.5,1.7c0.7-0.4,1.4-0.8,2-1.3c0.8-0.5,1.5-1.2,2-1.9c0.4-0.4,0.7-0.9,1.1-1.4c0.4-0.5,0.6-1.1,1-1.7
		l1-1.9c0.3-0.7,0.5-1.4,0.8-2.1c0.5-1.5,1-3,1.2-4.6c0.3-1.6,0.6-3.3,0.7-4.9c0.1-1.7,0.2-3.4,0.1-5.1c-0.1-4.3-0.7-8.7-1.8-12.9
		c1.4,0,2.9-0.1,4.4-0.3c0.3,2.5,0.7,5.1,1.2,7.7c0.4,2.4,0.9,4.8,1.4,7l1.4,6c0.2,0.9,0.2,1.6,0.4,2.4c0,0.7,0.1,1.4,0.1,1.9
		c-0.1,0.6-0.2,1.2-0.3,1.8c0,0,0.4-0.5,0.9-1.5c0.2-0.5,0.4-1.2,0.6-1.9c0.2-0.7,0.3-1.6,0.3-2.6c0.1-2.2,0-4.3-0.2-6.4
		c-0.2-2.4-0.6-4.9-1.1-7.3c-0.9-5-2.1-9.9-3.2-13.6c-0.5-1.8-1-3.3-1.4-4.4c-0.2-0.5-0.4-1.1-0.7-1.6c1.1,1.8,2,3.8,2.6,5.8
		c1.5,4.4,2.7,9,3.6,13.6c0.4,2.5,0.8,5.1,0.9,7.5c0.2,2.2,0.2,4.4-0.1,6.6c-0.2,1.6-0.6,3.1-1.3,4.5c-0.7,0.9-1.1,1.4-1.1,1.4
		l0.4-0.2c0.5-0.2,0.9-0.5,1.3-0.9c1.2-1.3,2.1-2.9,2.6-4.6c0.7-2.3,1.1-4.6,1.2-7c0.1-2.6-0.1-5.2-0.6-7.8c-0.5-2.5-1.1-4.9-2-7.2
		l0.8-0.2c0.2,1.1,0.5,2.2,0.8,3.3c0.7,2.2,1.7,4.3,2.9,6.3c0.6,0.9,1.2,1.8,2,2.6c0.7,0.8,1.4,1.5,2.2,2.1c0.7,0.6,1.4,1,2.1,1.4
		c0.6,0.4,1.2,0.6,1.8,0.8c0.6,0.2,1.1,0.3,1.7,0.4l-1.2-0.9c-0.5-0.3-0.9-0.7-1.3-1.2c-0.6-0.5-1.1-1.1-1.5-1.7
		c-0.5-0.7-1.1-1.5-1.5-2.2c-0.5-0.8-1-1.7-1.4-2.6c-0.9-2-1.7-4-2.4-6.1c-1.2-3.9-2-7.8-2.6-11.9c-0.4-3.3-0.5-5.5-0.5-5.5
		s0.3,2.2,1,5.4c0.8,3.9,1.7,7.8,2.9,11.7c1.3,4.2,3,8.2,4.8,10.9c0.4,0.6,0.8,1.2,1.3,1.8c0.3,0.5,0.7,0.9,1.2,1.3l1.1,1
		c0,0-0.2-0.6-0.6-1.6c-0.3-0.5-0.5-1.1-0.6-1.6c-0.2-0.7-0.5-1.3-0.7-2c-0.9-2.9-2-6.9-3.2-10.8c-0.3-0.9-0.6-1.9-0.9-2.8
		c1.2-0.4,2.4-0.8,3.7-1.2c1.5,4.9,3.3,10.6,5.3,16.3c0.2,1,0.4,2.4,0.6,4.2c0.2,1.8,0.4,4.2,0.6,6.9c0,2.7,0.3,5.7,0.1,9
		c0,1,0,2-0.1,3c-2.2,7.3-5,14.4-8.2,21.3c-1.7,3.7-3.6,7.3-5.5,10.7c-1.9,3.5-4.1,6.8-6.2,9.9c-3.9,5.7-8.4,11.1-13.3,16.1
		c-2.2,2.2-4.2,4.1-6.1,5.7c-1.9,1.6-3.7,2.9-5.1,4.1l-4.6,3.2l4.9-2.8c1.5-1,3.4-2.1,5.4-3.6c2-1.5,4.3-3.2,6.7-5.2
		c5.4-4.6,10.4-9.7,15-15.2c2.5-3,4.9-6.2,7.3-9.6c1.9-2.8,3.9-5.8,5.6-8.8c-0.6,2-1.2,4-1.8,6.1c-0.6,2.1-1.5,4.2-2.3,6.2
		c-0.8,2.1-1.5,4.2-2.5,6.2c-2,4-3.8,8.2-6.2,11.9l-3.4,5.7c-1.3,1.8-2.5,3.5-3.8,5.2c-1.2,1.7-2.4,3.5-3.7,5l-3.9,4.5
		c-1.3,1.5-2.5,2.9-3.7,4.3l-3.8,3.7c-2.5,2.3-4.7,4.6-6.8,6.4l-5.6,4.6l-4.9,4l5.2-3.6l6-4.1c2.3-1.6,4.6-3.7,7.4-5.9l4.2-3.5
		l4.1-4.1l4.4-4.3c1.5-1.5,2.8-3.2,4.2-4.8l4.3-5.1l3.9-5.6c2.8-3.7,5-7.8,7.4-11.8c0.6-1,1.2-2,1.7-3.1c-0.7,3-1.5,5.9-2.1,8.8
		c-1.5,4.5-2.7,9-4.3,13.2c-1.8,4.1-3.1,8.3-5.1,11.9c-2,3.6-3.5,7.2-5.5,10.3s-3.8,5.8-5.4,8.3c-1.6,2.5-3.4,4.3-4.7,6l-4.2,5.2
		l4.6-4.8c1.4-1.6,3.4-3.3,5.2-5.6l6-7.9c2.2-2.9,4.1-6.5,6.3-10c2.3-3.6,3.9-7.7,6.1-11.8c2-4.2,3.6-8.6,5.4-13.1
		c1.4-4.6,3.1-9.2,4.4-14c1.2-4.8,2.5-9.5,3.4-14.3c-1.6,14.1-4.3,28-8,41.7c-4.4,16-10.8,32.8-21.1,47.1
		c-5.1,7.1-11.3,13.5-18.4,18.2c-3.7,2.5-7.3,4.8-11.1,6.8c-3.6,2.1-7.4,3.6-11.4,4.7c-3.8,0.9-7.7,0.6-8.7-2.6s-0.2-7.2,1-10.7
		c2.3-6.8,6.1-12.9,11-18.1c2.3-2.4,4.8-4.4,7.5-5.6c1.3-0.6,2.7-0.9,4.1-0.9c1.3-0.1,2.7,0.4,4.1,0.6c2.5,0.7,5.1,1.6,6.1,3.6
		s-0.1,4.2-1.3,5.6c-2,2.3-4.7,3.9-7.6,4.7c-1.1,0.2-2.1,0.3-3.2,0.2c1.1,0.2,2.2,0.1,3.2-0.1c3-0.7,5.8-2.2,8-4.5
		c1.3-1.4,2.8-3.8,1.6-6.3c-1.2-2.4-3.9-3.5-6.6-4.3c-1.3-0.3-2.7-0.8-4.3-0.8c-1.6,0-3.2,0.3-4.7,0.9c-3,1.2-5.7,3.2-8.3,5.6
		c-5.4,5.2-9.5,11.6-12.3,18.5c-1.4,3.7-2.7,7.9-1.4,12.7c0.8,2.6,2.8,4.5,5.4,5.2c2.3,0.6,4.7,0.6,7.1,0.1
		c4.4-0.9,8.6-2.5,12.6-4.6c4-1.9,8-4.3,11.7-6.5c7.9-4.8,14.8-11.4,20.6-18.7c11.5-14.7,18.8-32,24.1-48.4c1.1-3.5,2.1-7,3-10.4
		c0,2.2-0.1,4.4-0.1,6.7c-0.2,4.6-0.5,9.4-0.9,14.2c-0.3,4.9-1,9.7-1.6,14.7c-0.8,4.9-1.4,9.8-2.3,14.7c-0.7,4.8-0.9,9.7-0.8,14.5
		c0.2,8.6,1.8,17.1,4.7,25.1c1.2,3.2,2.7,6.3,4.7,9.1c1.8,2.5,3.8,4.4,5.9,5.1c1.6,0.7,3.4,0.6,5-0.1c0.5-0.2,1.1-0.5,1.6-0.9
		c-0.5,0.3-1,0.6-1.6,0.8c-1.6,0.7-3.3,0.7-4.9,0c-2-0.8-3.9-2.7-5.6-5.2c-1.8-2.8-3.3-5.9-4.3-9.1c-2.6-8-3.9-16.4-3.9-24.9
		c0-4.7,0.4-9.5,1.2-14.1c0.9-4.7,2.4-9.6,3.5-14.4c1.1-4.9,2.3-9.8,3.2-14.6c1-4.8,1.7-9.7,2.5-14.3c0.6-4.7,1.2-9.2,1.5-13.6
		c0.3-4.3,0.6-8.5,0.7-12.3c0-1.8,0.1-3.4,0-5.1c0.6,3.1,1.2,6.4,1.6,9.7c1.2,8.1,2.1,16.8,2.6,25.6c0.6,8.8,0.8,17.6,1,25.9
		c0.1,4.2,0.3,8.2,0.6,12s0.7,7.4,1.1,10.8c0.7,3.3,1.3,6.3,2.3,8.9c0.7,2.6,2.1,4.6,3,6.4c0.8,1.3,1.7,2.5,2.7,3.6
		c0.6,0.8,1,1.3,1,1.3l-0.9-1.4c-0.9-1.2-1.6-2.5-2.3-3.8c-0.7-1.8-1.9-3.8-2.4-6.5c-0.8-2.5-1.1-5.5-1.5-8.8
		c-0.2-3.3-0.4-6.8-0.2-10.6c0.1-3.8,0.3-7.8,0.5-11.9c0.5-8.3,1-17.1,1.1-26.1c0.2-8.8,0.1-17.6-0.5-25.9c0.9,2.9,1.7,5.9,2.6,8.9
		c2.1,7.1,3.7,14.2,5.5,20.9c0.9,3.4,1.4,6.6,2,9.7l1.7,8.8c0.6,2.7,0.6,5.2,0.9,7.5c0.3,2.2,0.4,4.2,0.6,5.8
		c0.3,3.2,0.5,5.1,0.5,5.1s0-1.9,0-5.1c0-1.6,0-3.6,0-5.9c0-2.3,0.1-4.8-0.2-7.6c-0.3-2.8-0.6-5.8-0.8-9s-0.5-6.6-1-10
		c-1.1-6.9-2-14.3-3.4-21.6c-1.4-7.3-2.7-14.6-4.3-21.5c-1.5-6.8-2.9-13.2-4.3-18.6c-1.2-5-2.3-9.2-3.1-12.4
		c5.2-11.9,9.3-28.5,12-40.7c1.1,0.3,2.2,0.6,3.3,0.8c-0.3,0.9-0.5,1.9-0.8,2.8c-0.9,4-1.8,8-2.5,11c-0.2,0.8-0.4,1.4-0.6,2.1
		c-0.1,0.6-0.3,1.1-0.5,1.7c-0.3,0.9-0.6,1.6-0.6,1.6l1-1.1c0.4-0.4,0.8-0.8,1.1-1.3c0.4-0.6,0.8-1.2,1.2-1.9
		c1.7-2.8,3.2-6.9,4.2-11.2c1-3.9,1.7-7.8,2.2-11.8c0.5-3.3,0.7-5.5,0.7-5.5s0.1,2.2-0.1,5.5c-0.3,4-0.9,8.1-1.8,12
		c-0.5,2.1-1.2,4.2-2,6.2c-0.7,1.8-1.6,3.5-2.6,5c-0.4,0.6-0.9,1.2-1.4,1.8c-0.4,0.5-0.8,0.9-1.2,1.2l-1.2,1
		c0.6-0.1,1.1-0.3,1.7-0.5c0.6-0.2,1.2-0.5,1.8-0.9c0.7-0.4,1.4-1,2-1.6c0.7-0.7,1.4-1.4,2-2.2c0.7-0.9,1.3-1.8,1.8-2.8
		c1.1-2,1.9-4.2,2.5-6.5c0.3-1.1,0.5-2.2,0.6-3.4l0.9,0.1c-0.7,2.4-1.3,4.8-1.6,7.3c-0.3,2.6-0.3,5.2-0.1,7.8
		c0.2,2.4,0.7,4.7,1.6,6.9c0.6,1.7,1.6,3.2,2.9,4.4c0.4,0.3,0.8,0.6,1.3,0.8l0.4,0.2c0,0-0.4-0.4-1.1-1.3c-0.8-1.4-1.3-2.8-1.5-4.4
		c-0.4-2.2-0.5-4.4-0.5-6.5c0-2.4,0.2-5,0.5-7.5c0.6-4.6,1.5-9.2,2.8-13.8c0.5-2.1,1.3-4.1,2.3-6c0,0-0.3,0.6-0.6,1.6
		c-0.3,1.1-0.7,2.6-1.1,4.5c-0.8,3.7-1.7,8.7-2.3,13.7c-0.3,2.5-0.6,5-0.6,7.4c-0.1,2.2-0.1,4.3,0.2,6.5c0.1,0.9,0.3,1.8,0.4,2.5
		c0.2,0.7,0.5,1.3,0.7,1.9c0.6,0.9,1,1.4,1,1.4s-0.2-0.8-0.4-1.8c0-0.5,0-1.2,0-1.9c0.1-0.8,0.1-1.5,0.2-2.4
		c0.3-1.8,0.6-3.9,0.9-6.1c0.3-2.2,0.7-4.6,1-7.1c0.3-2.6,0.6-5.2,0.7-7.7c1.5,0,3,0,4.4,0c-0.8,4.3-1.2,8.6-1,13
		c0.1,1.7,0.2,3.4,0.5,5.1c0.2,1.6,0.5,3.3,1,4.9c0.4,1.5,0.9,3,1.5,4.5c0.3,0.7,0.6,1.4,0.9,2c0.3,0.6,0.8,1.2,1.1,1.8
		c0.4,0.6,0.7,1.1,1.1,1.6s0.8,0.9,1.2,1.3c0.6,0.7,1.3,1.3,2.2,1.8c0.7,0.4,1.4,0.8,2.1,1.1l-1.6-1.6c-0.6-0.6-1.1-1.3-1.6-2.1
		c-0.7-0.9-1.2-1.9-1.6-3c-0.6-1.2-1-2.4-1.3-3.7c-0.4-1.4-0.8-2.8-1-4.3c-0.3-1.5-0.5-3.1-0.7-4.7s-0.2-3.2-0.4-4.9
		c-0.1-3.3,0-6.5,0.1-9.6s0.5-5.9,0.7-8.3c0.6-4.8,1.3-8,1.3-8s-0.4,3.2-0.7,8.1c-0.5,5.9-0.6,11.9-0.4,17.8
		c0.1,1.6,0.1,3.2,0.3,4.8c0.2,1.6,0.3,3.1,0.6,4.6c0.2,1.4,0.5,2.9,0.9,4.3c0.3,1.3,0.7,2.5,1.2,3.7c0.3,1,0.8,2,1.4,3
		c0.3,0.8,0.8,1.5,1.4,2.1l1.4,1.7c0,0-0.3-0.9-0.9-2.2c-0.3-0.8-0.6-1.6-0.8-2.4c-0.3-1-0.5-2-0.7-3.1c-0.2-1.2-0.4-2.4-0.5-3.6
		c-0.2-1.3-0.3-2.7-0.4-4.1s-0.1-2.9-0.3-4.4c-0.1-1.5-0.1-3.1-0.2-4.6c-0.1-3.1-0.3-6.3-0.4-9.2c-0.1-1.3-0.2-2.6-0.2-3.9
		c1-0.1,2.1-0.3,3.1-0.5c-0.1,3.4,0.3,6.8,1,10.2c0.4,1.8,0.9,3.5,1.6,5.3c0.6,1.7,1.4,3.3,2.3,4.9c0.9,1.5,1.9,2.9,3.1,4.2
		c1,1.3,2.4,2.2,3.5,3.1c1.3,0.7,2.4,1.5,3.6,1.7c1.2,0.3,2.1,0.6,2.9,0.6c0.8,0,1.7,0,2.5-0.1c0,0-0.8-0.6-2-1.4
		c-0.6-0.3-1.2-1.1-1.9-1.7c-0.7-0.6-1.3-1.6-2-2.4c-0.7-1-1.3-2.1-1.8-3.2c-0.6-1.2-1.1-2.5-1.6-3.8c-0.5-1.3-0.9-2.8-1.4-4.3
		c-0.4-1.5-0.8-3-1.1-4.6c-0.7-3.1-1.3-6.3-1.7-9.3l0.6-1c1.4-0.4,2.8-0.9,4.1-1.4c0.3,1.5,0.7,3,1.2,4.4c0.6,1.7,1.3,3.3,2.2,4.8
		c1,1.5,1.8,2.9,3,4.1l1.7,1.7c0.6,0.5,1.3,0.9,1.8,1.3c1,0.7,2.2,1.3,3.4,1.6c0.5,0.2,1,0.4,1.5,0.5l1.3,0.1c0.8,0.1,1.6,0.1,2.4,0
		l-2.2-0.7l-1.2-0.4l-1.2-0.7c-1-0.5-2-1.2-2.8-2l-1.4-1.3l-1.3-1.7c-1-1.1-1.6-2.5-2.4-3.9c-0.7-1.5-1.3-3-1.8-4.5
		c-0.5-1.6-0.9-3.2-1.2-4.8c-0.6-3.2-0.9-6.5-0.9-9.7c0-2.8,0.2-5.7,0.7-8.4c0.3-2,0.9-3.9,1.6-5.8c0.6-1.3,1-2,1-2
		s-0.3,0.8-0.8,2.1c-0.6,1.9-0.9,3.8-1.2,5.8c-0.3,2.8-0.5,5.6-0.4,8.4c0,3.2,0.4,6.4,1,9.5c0.3,1.6,0.6,3.2,1.1,4.7
		c0.5,1.5,1,3,1.6,4.4c0.8,1.3,1.3,2.7,2.2,3.8l1.2,1.7l1.3,1.3c0.8,0.8,1.6,1.5,2.6,2.1l1.2,0.8l1.1,0.4l2.1,0.8
		c0,0-0.7-0.6-1.8-1.5l-0.9-0.7c-0.3-0.3-0.6-0.7-0.9-1c-0.7-0.7-1.4-1.5-1.9-2.4l-0.9-1.4l-0.8-1.6c-0.6-1-1-2.4-1.5-3.6
		c-0.4-1.3-0.9-2.7-1.2-4.1c-0.3-1.4-0.7-2.9-0.9-4.4c-0.1-0.4-0.1-0.8-0.2-1.2c1.6-0.8,3.1-1.7,4.6-2.7c0.6,1.6,1.4,3.1,2.3,4.6
		c0.8,1.3,1.7,2.6,2.6,3.7c0.9,1.2,1.9,2.3,3,3.3c1.9,1.9,4.2,3.4,6.6,4.6c1.8,0.9,3.8,1.4,5.8,1.6c0.8,0,1.6-0.1,2.3-0.3l-1.2-1.8
		c-0.3-0.6-0.7-1.3-1.1-2c-0.4-0.8-0.8-1.7-1.2-2.6c-2-4.3-4.3-8.5-6.8-12.6c-0.6-1.1-1.3-2.2-2-3.2c-0.4-0.7-0.9-1.4-1.3-2.1
		c1.1-0.9,2.2-1.9,3.2-2.9c0.5,0.7,1,1.4,1.5,2.2c1.8,2.4,3.9,4.6,6.2,6.5c1.1,0.9,2.4,1.7,3.6,2.4c1.2,0.7,2.4,1.2,3.7,1.7
		c1.1,0.4,2.3,0.6,3.5,0.7c0.9,0.1,1.9,0.1,2.8-0.1c0.8-0.2,1.5-0.5,2.2-0.8l-1.7-0.1c-0.7,0-1.3-0.2-1.9-0.5
		c-0.8-0.2-1.6-0.6-2.3-1c-0.9-0.5-1.7-1-2.5-1.7c-0.9-0.7-1.8-1.4-2.5-2.2c-1.7-1.7-3.3-3.6-4.8-5.5c-2.7-3.7-5-7.6-7-11.6
		c-1.6-3.3-2.5-5.6-2.5-5.6s1.1,2.2,3,5.4c2.2,3.9,4.7,7.7,7.3,11.3c1.4,1.9,2.9,3.8,4.6,5.5c1.4,1.5,3,2.9,4.7,4
		c0.7,0.5,1.4,0.9,2.2,1.2c0.6,0.3,1.2,0.5,1.8,0.6l1.7,0.3l-1.7-1.4c-0.5-0.3-0.9-1.1-1.4-1.7c-0.5-0.7-1.1-1.5-1.5-2.3
		c-0.6-0.7-1.1-1.8-1.7-2.7c-0.6-0.9-1.2-2-1.9-3c-0.7-1-1.3-2.2-2.1-3.2c-0.7-1.1-1.5-2.2-2.3-3.3c-0.9-1.2-1.9-2.5-2.9-3.6
		c0.8-0.9,1.5-1.8,2.3-2.7c0.7,1.2,1.5,2.4,2.3,3.6c1,1.2,2,2.4,3.1,3.5c1.1,1.1,2.3,2.1,3.6,2.9c2.3,1.6,4.8,2.8,7.5,3.5
		c1.1,0.3,2.2,0.4,3.3,0.5c0.9,0.1,1.7,0.1,2.6,0c0.8,0,1.5-0.2,2.3-0.3l-0.6-0.1c-0.5-0.1-1-0.3-1.5-0.5c-0.8-0.3-1.5-0.7-2.3-1.2
		c-0.9-0.6-1.8-1.2-2.7-1.9c-3.8-2.9-8.3-7.5-12.4-12.4c-3.2-3.9-6.1-7.9-8.8-12.2c-0.5-0.7-0.9-1.5-1.3-2.2
		c-0.9-1.7-1.6-3.4-2.2-5.3c0.8,1.7,1.7,3.4,2.7,5c0.3,0.4,0.6,0.9,0.9,1.3c2.9,4.4,6.1,8.6,9.5,12.7c2,2.4,4.1,4.8,6.2,6.9
		c1.8,2,3.8,3.9,5.8,5.6c0.9,0.8,1.8,1.4,2.5,2c0.7,0.5,1.4,0.9,2.1,1.3c0.5,0.2,1,0.4,1.5,0.6l0.6,0.2c0,0-0.5-0.8-1.3-1.8
		c-0.8-1.1-1.9-2.6-3.2-4.2l-8.4-11.3c-1.5-2.1-3.1-4.1-4.7-6.1c0.3-0.4,0.6-0.8,0.8-1.2c0.8,1.1,1.8,2.1,2.8,3.1
		c3.2,3.1,7.6,5.3,11.6,5.7c1.7,0.2,3.4,0,5-0.5c0.6-0.2,1.2-0.6,1.6-1.1H451c-0.5,0-0.9,0-1.3-0.1c-0.7-0.2-1.4-0.4-2-0.6
		c-0.9-0.3-1.7-0.7-2.5-1.2c-3.5-1.9-7.8-5.2-11.8-8.7c-2.7-2.3-5.2-4.8-7.5-7c-1.1-1.1-2.2-2.2-3.1-3.2c-2.7-2.9-4.4-5-4.4-5
		s1.9,1.9,4.8,4.6l2.5,2.3c2.5,2.3,5.3,4.9,8.3,7.5c3.6,3.2,7.4,6.2,11.5,8.9c0.8,0.6,1.6,1,2.3,1.3c0.6,0.3,1.3,0.6,1.9,0.8
		c0.4,0.1,0.9,0.2,1.3,0.2l0.5,0.1c-0.4-0.4-0.9-0.8-1.3-1.2l-1-1.4c-0.3-0.6-0.7-1.1-1.1-1.8c-0.9-1.4-1.9-2.8-2.9-4.1
		c-1.2-1.5-2.5-2.9-3.9-4.2c-1.6-1.5-3.3-2.8-5.1-3.9c0.2-0.4,0.5-0.9,0.7-1.3c1.7,1,3.4,2,5.2,2.8c6.8,3.3,14.1,5.4,19.9,6
		c2.4,0.3,4.8,0.3,7.2,0.1c0.7-0.1,1.4-0.2,2.1-0.4c0.2-0.1,0.5-0.2,0.7-0.3h-0.7c-0.6,0-1.2-0.1-1.8-0.3c-2.2-0.5-4.3-1.2-6.4-2
		c-6.3-2.3-12.6-5-18.6-8c-3.3-1.6-6.6-3.3-9.6-5.1c-2.8-1.5-5.4-3.2-8-5c-1-0.7-2-1.5-3-2.3c-0.7-0.6-1.5-1.3-2.1-2
		c-0.4-0.5-0.8-1-1.1-1.5c-0.2-0.4-0.3-0.6-0.3-0.6l0.4,0.6c0.3,0.5,0.7,1,1.2,1.4c0.7,0.7,1.4,1.3,2.2,1.9c0.9,0.6,1.9,1.4,3.1,2.1
		c2.3,1.5,5.1,3.1,8.1,4.7s6.3,3.3,9.6,4.9c6.6,3.3,13.3,6.2,18.4,8.3c2.6,1,4.7,1.9,6.2,2.3c0.6,0.2,1.2,0.4,1.8,0.4l0.7,0.1
		l-0.7-0.4c-0.4-0.2-0.9-0.7-1.5-1.2c-1.3-1-3.1-2.6-5.4-4.2c-5.4-3.9-11.1-7.4-17.1-10.3c-1.7-0.8-3.5-1.6-5.2-2.4
		c0.5-1,0.9-2,1.4-3c4.6,3.1,9.7,5.4,15,6.8c6,1.5,12.4,1.9,17.5,0.7c1.2-0.2,2.3-0.6,3.4-1.1c0.9-0.3,1.8-0.8,2.5-1.4
		c0.5-0.4,1-0.8,1.3-1.4c0.1-0.2,0.2-0.3,0.3-0.5c-0.8,0.5-1.6,0.8-2.6,0.8c-2.4,0.2-4.8,0.1-7.1-0.2c-5.9-0.8-13.5-2.5-21.1-4.5
		c-5.4-1.5-10.7-3.2-15.4-4.6c-1.9-0.6-3.7-1.2-5.3-1.7c-5.6-1.9-9.2-3.3-9.2-3.3l9.4,2.8l5.4,1.6c4.7,1.4,10,2.9,15.4,4.3
		c7.5,2.1,15.1,4,21,4.9c2.9,0.4,5.3,0.7,7,0.6c0.9,0,1.8-0.2,2.6-0.7l-0.7-0.1c-0.5,0-1-0.1-1.5-0.3c-1.7-0.6-3.3-1.3-4.9-2.1
		c-2-0.9-4.3-1.9-6.9-2.8c-2.5-0.9-5.3-1.8-8.1-2.5c-4.9-1.2-9.9-1.9-15-2c0.4-1,0.8-1.9,1.1-2.9c5.1,0.6,10.2,0.9,15.4,0.8
		c9.7-0.2,19.4-1.8,26.5-4.3c3.6-1.3,6.5-2.7,8.4-4.1c0.8-0.5,1.5-1.2,2-2.1c0.1-0.3,0.2-0.6,0.1-0.9c-0.1,0.3-0.2,0.5-0.4,0.7
		c-0.6,0.6-1.3,1-2.1,1.2c-2.7,1-5.6,1.6-8.4,2c-7.1,1.1-16.6,1.7-26.2,2c-9.6,0.1-19.1-0.1-26.3-0.6c-2.9-0.2-5.8-0.6-8.6-1.1
		c-1.1-0.2-2.1-0.4-3.2-0.8c1.1,0.3,2.1,0.5,3.2,0.6c2.1,0.3,5,0.5,8.6,0.7c7.1,0.4,16.7,0.5,26.2,0.2c9.5-0.1,19.1-0.7,26.1-1.6
		c3.5-0.5,6.5-0.9,8.4-1.6c0.8-0.2,1.5-0.6,2.1-1.1c0.2-0.2,0.4-0.4,0.4-0.7c0-0.1-0.2,0.4-0.7,0.6c-0.7,0.2-1.5,0.2-2.3,0.2
		c-2,0-5-0.2-8.5-0.5c-7.1-0.6-16.4-0.9-25.8-0.7c-3.8,0.1-7.6,0.3-11.3,0.5l0.2-0.5c0.4,0,0.9-0.1,1.3-0.1c2.6-0.4,5.3-0.7,7.9-1.3
		c2.7-0.6,5.4-1.1,8-1.9c5.2-1.4,10.4-3.2,15.4-5.2c4.4-1.8,8.7-4,12.8-6.5c3.6-2.3,6.4-4.4,8.3-6.4c0.7-0.6,1.4-1.4,1.8-2.3
		C507.2,203.7,507.4,203.4,507.4,203.4L507.4,203.4z M207.1,223.9c-2.4-0.5-5.9-1.1-10-2.2c-10-2.6-19.8-5.8-29.4-9.5
		c-10.5-4.1-20.7-9-27.7-13.7c-1.6-1-3.2-2.1-4.7-3.4c-1.1-1-2.2-2-3.2-3c-0.6-0.7-1.2-1.5-1.7-2.3c-0.4-0.6-0.6-0.8-0.6-0.8
		s0.2,0.3,0.6,0.8c0.5,0.8,1.2,1.5,1.8,2.2c1.1,1,2.2,2,3.3,2.9c1.4,1,2.9,2.2,4.7,3.2c7.1,4.5,17.3,9.2,27.8,13.2
		c9.5,3.8,19.3,7.1,29.2,9.9c4.1,1.1,7.5,2,9.8,2.5l3.7,0.7L207.1,223.9z M208.1,222.5L208.1,222.5c-0.8-0.3-1.6-0.5-2.3-0.8
		c-1.5-0.5-2.8-1-3.8-1.4c-1.4-0.6-2.3-1-2.3-1l1.4,0.2l1,0.1c1.5,0.2,3.7,0.3,6.4,0.7c6.5,0.8,12.9,2.1,19.1,4.1
		c3.4,1.1,6.6,2.5,9.8,4.1c1.5,0.7,2.9,1.6,4.2,2.5c1.2,0.8,2.4,1.6,3.5,2.6c1,0.8,1.9,1.6,2.7,2.5c0.7,0.7,1.3,1.4,1.8,2.2l1.4,2
		l-2-1.5c-0.7-0.6-1.5-1.1-2.3-1.6c-0.9-0.6-1.9-1.2-3-1.8c-2.6-1.4-5.2-2.7-8-3.8c-1.5-0.7-3.1-1.2-4.6-1.8
		c-1.6-0.7-3.2-1.1-4.9-1.7c-3.3-1.1-6.6-2.1-9.8-3S210.6,223.3,208.1,222.5L208.1,222.5z M208.3,248.3c-1.6,0.6-3.3,1.3-5.2,2
		c-4.6,1.8-9.8,3.7-15,5.6c-7.5,2.4-15,4.7-20.8,5.8c-2.3,0.5-4.7,0.7-7.1,0.7c-0.9,0-1.8-0.2-2.6-0.7c0.8,0.4,1.7,0.6,2.6,0.5
		c1.7,0,4.1-0.4,7-1c5.7-1.2,13.2-3.6,20.6-6.2c5.3-1.7,10.5-3.6,15.1-5.2c1.9-0.7,3.6-1.3,5.2-1.9l9.2-3.4
		C217.3,244.4,213.8,246,208.3,248.3L208.3,248.3z M216.6,244L216.6,244c-1.2-0.3-1.8-0.5-1.8-0.5s2.7-0.3,6.8-0.9
		c2-0.2,4.4-0.5,7-0.5c2.7-0.1,5.4,0,8.2,0.3c1.4,0.2,2.8,0.4,4.1,0.7c1.3,0.3,2.6,0.6,3.9,1.1c1.2,0.4,2.4,0.9,3.6,1.5
		c1.1,0.5,2,1.1,3,1.9c0.8,0.6,1.6,1.2,2.2,2c0.5,0.5,1,1.1,1.4,1.8c0.6,1.1,1,1.7,1,1.7l-1.5-1.1c-0.6-0.4-1.1-0.8-1.8-1.1
		c-0.8-0.5-1.6-0.9-2.4-1.2c-1-0.4-1.9-0.8-2.9-1.1c-1-0.4-2.2-0.6-3.4-0.9c-2.5-0.5-5.1-0.9-7.6-1.1c-5.2-0.6-10.7-0.9-14.7-1.4
		C219.9,244.7,218.2,244.4,216.6,244L216.6,244z M221.4,255.7c0,0,2.7-0.8,6.8-1.6c5-1,10.1-1.5,15.3-1.5c2.8,0,5.6,0.3,8.3,0.8
		c1.3,0.2,2.5,0.6,3.8,1c1.1,0.4,2.2,0.8,3.2,1.4c0.9,0.5,1.7,1,2.5,1.7c0.6,0.5,1.1,1,1.6,1.6c0.7,1.1,1,1.7,1,1.7l-1.6-1.1
		c-0.6-0.4-1.2-0.7-1.9-0.9c-0.7-0.4-1.7-0.5-2.5-0.8c-0.9-0.2-2-0.4-3.1-0.6c-1.1-0.1-2.3-0.3-3.6-0.4c-2.5-0.2-5.2-0.3-7.9-0.3
		c-5.4-0.1-10.9,0-15-0.2C226,256.3,223.7,256.1,221.4,255.7L221.4,255.7z M229.7,290.2c-1.8,4.2-3.9,8.2-6.3,12
		c-1.3,2-2.8,4-4.4,5.8c-0.7,0.9-1.5,1.6-2.4,2.4c-0.7,0.7-1.5,1.3-2.4,1.8c-0.7,0.5-1.4,0.9-2.3,1.2c-0.6,0.3-1.2,0.5-1.9,0.6
		l-1.7,0.2l1.6-0.4c0.6-0.1,1.2-0.4,1.8-0.7c0.8-0.3,1.5-0.8,2.1-1.3c1.7-1.2,3.2-2.7,4.5-4.3c1.5-1.8,3-3.7,4.2-5.7
		c2.4-3.8,4.6-7.7,6.6-11.7c1.7-3.3,2.7-5.5,2.7-5.5S231.1,286.8,229.7,290.2z M241.5,299.9c-0.2,1.3-0.5,2.5-1,3.7
		c-0.9,2.6-1.9,5.2-3.2,7.7c-1.3,2.4-2.7,4.8-4.3,7.1c-0.7,1-1.5,2.1-2.3,3c-0.7,1-1.6,1.7-2.3,2.5c-1.2,1.2-2.5,2.3-4,3.2l-1.8,0.8
		l1.7-0.9l1.7-1.4c0.6-0.6,1.3-1.3,2-2c3.3-3.9,6.2-8.1,8.5-12.7c1.3-2.4,2.4-4.9,3.3-7.5c0.4-1.2,0.8-2.4,1.1-3.6
		c0.3-1.1,0.5-2.2,0.6-3.3c0.1-1,0.1-2,0.1-2.8c-0.2-0.8-0.2-1.5-0.4-2.1l-0.8-1.7l1,1.7c0.2,0.6,0.4,1.3,0.6,2.2
		c0.1,1,0.1,1.9,0.1,2.9C241.8,297.7,241.7,298.8,241.5,299.9L241.5,299.9z M239.2,266.2L239.2,266.2c-3.3,0.1-5.5,0.4-5.5,0.4
		c0.4-0.3,0.9-0.5,1.4-0.7c1.2-0.5,2.5-1,3.8-1.4c3.9-1.1,8-1.7,12.1-1.8c2.2,0,4.4,0.1,6.6,0.4c1.9,0.3,3.8,0.8,5.6,1.5
		c0.7,0.3,1.4,0.6,2.1,1.1c0.5,0.3,1,0.6,1.5,1c0.7,0.7,1.1,1.1,1.1,1.1s-0.6-0.2-1.4-0.6c-1.2-0.4-2.5-0.8-3.7-1
		c-3.9-0.6-7.7-0.8-11.6-0.6C246.8,265.8,242.5,266,239.2,266.2L239.2,266.2z M251.4,276.9c-1.4,0.5-2.6,0.8-3.5,1.1
		c-0.8,0.3-1.4,0.3-1.4,0.3s1.7-1,4.4-2.4c3.3-1.7,6.8-3.1,10.4-4c2-0.5,3.9-0.8,6-0.9c1.8-0.1,3.6,0.1,5.3,0.6
		c0.7,0.1,1.4,0.4,2,0.7c0.5,0.2,1,0.5,1.4,0.8l1.1,0.9l-1.3-0.6c-0.5-0.2-1-0.4-1.5-0.5c-0.6-0.2-1.3-0.3-1.9-0.3
		c-0.8-0.1-1.6-0.1-2.3-0.1c-0.8,0-1.7,0.2-2.6,0.2c-1.9,0.2-3.8,0.6-5.6,1.1C258.1,274.7,254.3,276,251.4,276.9L251.4,276.9z
		 M271.4,281.8c-3.8,0.9-7.6,2.2-10.4,3.1c-1.4,0.5-2.6,0.8-3.5,1.1c-0.8,0.3-1.4,0.3-1.4,0.3s1.7-1,4.4-2.4c3.3-1.7,6.8-3.1,10.4-4
		c2-0.5,3.9-0.8,6-0.9c1.8-0.1,3.6,0.1,5.3,0.6c0.7,0.1,1.4,0.4,2,0.7c0.5,0.2,1,0.5,1.4,0.8l1.1,0.9l-1.3-0.6
		c-0.5-0.2-1-0.4-1.5-0.5c-0.6-0.2-1.3-0.3-1.9-0.3c-0.8-0.1-1.6-0.1-2.3-0.1c-0.8,0-1.7,0.2-2.6,0.2
		C275.1,280.9,273.3,281.3,271.4,281.8L271.4,281.8z M300.1,288.6c-0.3,0-0.6-0.1-0.9-0.1c-0.8-0.1-1.6-0.1-2.3-0.1
		c-0.8,0-1.7,0.2-2.6,0.2c-1.9,0.2-3.8,0.6-5.6,1.1c-3.8,1-7.6,2.2-10.4,3.1c-1.4,0.5-2.6,0.8-3.5,1.1s-1.4,0.3-1.4,0.3
		s1.7-1,4.4-2.4c3.3-1.7,6.8-3,10.4-4c2-0.5,4-0.8,6-0.9c1.8-0.1,3.6,0.1,5.3,0.6c0.4,0.1,0.7,0.2,1.1,0.3L300.1,288.6z
		 M329.4,301.3L329.4,301.3c-0.6,9.2-1.4,18.5-2.2,27.4c-0.5,4.9-0.9,9.8-1.4,14.5c-0.1,1.1-0.2,2.1-0.3,3.1
		c-0.5,5-1.1,9.9-1.7,14.6c-0.5,3.6-0.9,7.1-1.3,10.5c-0.4,2.8-0.7,5.6-1,8.2c-1.4,10.6-2.6,19.5-3.4,25.7c-0.8,6.2-1,9.8-1,9.8
		s-0.1-3.6,0.3-9.8c0.4-6.3,1-15.2,2-25.9c0.4-4.3,0.8-8.8,1.2-13.6c0.1-0.7,0.1-1.3,0.2-2c0.3-3.1,0.5-6.2,0.8-9.4
		c0.2-2.3,0.4-4.6,0.6-6.9c0.1-1.5,0.3-3.1,0.4-4.6c0.4-4.6,0.8-9.4,1.2-14.2c0.1-1.4,0.2-2.8,0.3-4.2c0.4-4.7,0.7-9.5,1-14.3
		c0.2-3,0.4-6.1,0.5-9.2c0.1-2,0.3-4,0.4-6.1c0.7-12.2,1.1-24.4,1-35.8c0-1.7,0-3.3-0.1-4.9c-0.1-6.2-0.3-12.2-0.8-17.8
		c-0.4-4.8-0.9-9.3-1.5-13.6c-0.8-5.2-2-10.3-3.7-15.2c-0.2-0.5-0.3-1-0.5-1.4c-1-2.6-2.3-5.1-3.9-7.4c-0.3-0.4-0.6-0.7-0.9-1.1
		c-1.2-1.5-2.7-2.8-4.3-3.8c-0.5-0.3-1.1-0.6-1.7-0.9l-0.6-0.3l0.6,0.2c0.6,0.2,1.2,0.4,1.8,0.7c1.7,0.8,3.2,1.9,4.4,3.3
		c0.4,0.4,0.8,0.9,1.2,1.3c1.7,2.2,3.2,4.6,4.4,7.1c1.1,2.3,2,4.6,2.8,7c1.1,3.3,1.9,6.7,2.6,10.1c0.1,0.7,0.3,1.4,0.4,2.1
		c0.8,4.7,1.5,9.7,2.1,15c0.6,6.2,1,12.8,1.1,19.6c0,0.6,0,1.2,0,1.8C330.5,273.9,330.1,287.6,329.4,301.3L329.4,301.3z
		 M469.8,202.1c10.2-4.6,20.1-10,26.9-14.9c1.7-1.2,3.2-2.4,4.5-3.5c1.1-1,2.2-2,3.2-3.1c0.6-0.7,1.2-1.5,1.7-2.3l0.6-0.8l-0.5,0.9
		l0,0c-0.5,0.8-1,1.6-1.6,2.4c-1,1.1-2,2.2-3.1,3.2c-1.4,1.3-2.9,2.6-4.4,3.7c-6.8,5.1-16.6,10.6-26.8,15.4c-9.4,4.3-19,8-28.8,11.3
		c-4,1.3-7.4,2.2-9.8,2.8l-3.8,0.9l3.7-1c2.4-0.7,5.7-1.8,9.7-3.1C451,210.4,460.5,206.5,469.8,202.1z M390.1,234.1
		c0.5-0.8,1-1.6,1.7-2.3c0.8-1,1.6-1.9,2.5-2.7c1.1-1,2.2-1.9,3.4-2.8c1.3-1,2.7-1.9,4.1-2.7c3-1.7,6.2-3.2,9.5-4.5
		c6.6-2.6,13.4-4.3,18.4-5.7c2.5-0.7,4.5-1.4,6-1.9l2.3-1c0,0-0.7,0.6-1.8,1.6c-1.8,1.3-3.6,2.4-5.6,3.3c-4.8,2.4-11.4,4.8-17.8,7.2
		c-1.6,0.6-3.2,1.3-4.8,1.9c-1.5,0.7-3.1,1.3-4.5,2c-2.6,1.2-5.2,2.6-7.7,4.2c-1.1,0.6-2,1.4-2.9,2c-0.8,0.5-1.5,1.1-2.2,1.7
		l-1.9,1.5L390.1,234.1z M368.2,290.3c-0.9-0.2-2.1-0.5-3.5-0.8c-2.9-0.8-6.8-1.7-10.6-2.4c-1.9-0.4-3.8-0.6-5.7-0.8
		c-0.9,0-1.8-0.1-2.6,0c-0.8,0-1.6,0.1-2.3,0.2c-0.2,0-0.4,0.1-0.7,0.1l-0.5-0.9c0.3-0.1,0.6-0.2,0.9-0.3c1.7-0.6,3.5-0.8,5.2-0.9
		c2,0,4,0.2,6,0.6c3.7,0.7,7.2,1.8,10.6,3.3c2.8,1.2,4.6,2.1,4.6,2.1S369,290.5,368.2,290.3L368.2,290.3z M384.6,332.3
		c0.6,1.4,1.4,2.7,2.3,3.9c0.7,1.3,1.8,2.2,2.6,3.2c1,0.7,1.8,1.7,2.7,2.1s1.6,1.1,2.4,1.2l2.3,0.7l-2.3-0.5
		c-0.8-0.1-1.5-0.7-2.5-1.1c-1-0.4-1.8-1.3-2.9-2c-0.9-1-2-1.9-2.8-3.2c-0.9-1.2-1.7-2.6-2.4-4c-0.7-1.5-1.4-3-1.9-4.6
		c-0.5-1.6-1-3.3-1.4-5c-0.7-3.3-1.2-6.6-1.4-10c-0.2-2.9-0.1-5.9,0.2-8.8c0.2-2.1,0.5-4.1,0.9-6.1l0.5-2.3l-0.4,2.3
		c-0.3,2-0.5,4.1-0.6,6.1c-0.1,2.9-0.1,5.8,0.1,8.7c0.2,3.3,0.7,6.6,1.4,9.8c0.3,1.6,0.8,3.3,1.3,4.9
		C383.3,329.3,383.9,330.8,384.6,332.3L384.6,332.3z M383.4,282.2c-0.9-0.2-2.1-0.5-3.5-0.9c-2.9-0.7-6.8-1.7-10.6-2.4
		c-1.9-0.4-3.8-0.6-5.7-0.7c-0.9,0-1.8-0.1-2.6,0c-0.8,0-1.6,0.1-2.3,0.2c-0.7,0.1-1.3,0.2-1.9,0.5c-0.5,0.1-1,0.3-1.4,0.6l-1.2,0.6
		l1-1c0.4-0.4,0.9-0.7,1.3-0.9c0.6-0.4,1.3-0.7,1.9-0.9c1.7-0.6,3.5-0.9,5.2-0.9c2,0,4,0.2,6,0.6c3.6,0.7,7.2,1.8,10.6,3.3
		c2.8,1.2,4.6,2.1,4.6,2.1S384.2,282.4,383.4,282.2L383.4,282.2z M394.5,273.5c-0.9-0.2-2.1-0.5-3.5-0.9c-2.9-0.7-6.8-1.7-10.6-2.4
		c-1.9-0.4-3.8-0.6-5.7-0.7c-0.9,0-1.8-0.1-2.6,0c-0.8,0-1.6,0.1-2.3,0.2c-0.7,0.1-1.3,0.2-1.9,0.5c-0.5,0.1-1,0.3-1.4,0.6l-1.2,0.6
		l1-1c0.4-0.4,0.9-0.7,1.3-0.9c0.6-0.4,1.3-0.7,1.9-0.9c1.7-0.6,3.5-0.9,5.2-0.9c2,0,4,0.2,6,0.6c3.7,0.7,7.2,1.8,10.6,3.3
		c2.8,1.2,4.6,2.1,4.6,2.1S395.3,273.7,394.5,273.5z M390.6,261.5c-3.9,0.1-7.8,0.5-11.6,1.4c-1.3,0.3-2.5,0.7-3.7,1.2
		c-0.8,0.4-1.4,0.6-1.4,0.6s0.3-0.4,1.1-1.1c1-0.9,2.2-1.7,3.4-2.3c1.7-0.9,3.6-1.5,5.5-1.9c2.2-0.5,4.3-0.7,6.5-0.8
		c4.1-0.2,8.2,0.2,12.2,1c1.3,0.3,2.6,0.7,3.9,1.1c0.5,0.2,1,0.4,1.4,0.6c0,0-2.2-0.1-5.5-0.1C399.1,261.3,394.9,261.3,390.6,261.5
		L390.6,261.5z M416.9,317.8l2.1,1.9l1.8,1.3c1.1,0.5,1.7,0.8,1.7,0.8l-1.8-0.7c-1.5-0.8-2.9-1.8-4.2-2.9c-0.8-0.7-1.7-1.5-2.5-2.4
		c-0.9-0.9-1.7-1.9-2.5-2.9c-1.7-2.2-3.3-4.5-4.8-6.8c-1.4-2.4-2.6-4.9-3.6-7.5c-0.5-1.2-0.9-2.4-1.2-3.6c-0.3-1.1-0.5-2.2-0.7-3.4
		c-0.1-1-0.1-1.9-0.1-2.9c0.2-0.9,0.3-1.6,0.5-2.2l0.9-1.7l-0.7,1.8c-0.1,0.6-0.2,1.3-0.3,2.2c0.1,0.8,0.1,1.8,0.2,2.8
		c0.2,1.1,0.5,2.2,0.8,3.3c0.4,1.2,0.8,2.4,1.3,3.5c1,2.5,2.3,4.9,3.7,7.3C410.3,310,413.4,314.1,416.9,317.8L416.9,317.8z
		 M415.1,259.9c-0.1-0.2-0.1-0.4,0-0.6l0.1,0.6c0,0.2,0,0.4,0.1,0.6C415.2,260.2,415.2,260,415.1,259.9L415.1,259.9z M412.7,250.7
		L412.7,250.7c-4.1,0.4-9.6,0.7-15,1.1c-2.7,0.2-5.4,0.5-7.8,0.8c-1.2,0.1-2.4,0.4-3.5,0.6c-1.1,0.3-2.1,0.5-3.1,0.8
		c-0.9,0.4-1.8,0.6-2.5,1c-0.6,0.3-1.2,0.6-1.8,1c-1,0.7-1.5,1.2-1.5,1.2s0.3-0.6,0.9-1.7c0.4-0.6,0.9-1.2,1.5-1.7
		c0.7-0.7,1.5-1.3,2.4-1.8c1-0.6,2.1-1.1,3.2-1.6c1.2-0.5,2.4-0.9,3.7-1.2c2.7-0.7,5.4-1.1,8.2-1.3c5.1-0.3,10.2-0.1,15.3,0.6
		c4.1,0.6,6.9,1.2,6.9,1.2C417.3,250.1,415,250.5,412.7,250.7z M417.7,237.1L417.7,237.1c-2,0.5-4.3,1-6.7,1.5c-2.4,0.5-5,1-7.5,1.7
		c-2.5,0.6-4.9,1.3-7.3,2.1c-1.1,0.5-2.3,0.8-3.2,1.3c-0.9,0.4-1.9,0.9-2.8,1.4c-0.8,0.4-1.5,0.9-2.3,1.4c-0.6,0.4-1.1,0.8-1.7,1.3
		l-1.4,1.2c0,0,0.3-0.6,0.8-1.7c0.3-0.7,0.7-1.3,1.2-1.9c0.6-0.8,1.2-1.5,1.9-2.1c1.8-1.7,3.8-3,6-4.1c1.2-0.6,2.5-1.1,3.7-1.6
		c1.3-0.4,2.6-0.9,4-1.2c4.9-1.1,9.9-1.7,14.9-1.6c4,0,6.8,0.3,6.8,0.3C422.1,235.9,419.9,236.6,417.7,237.1z M506.7,204
		c-0.7,0.6-1.4,1.2-2.3,1.6c-2.8,1.7-5.8,3.1-8.9,4.3c-7.5,3.1-17.9,6.5-28.4,9.4c-5.3,1.4-10.6,2.6-15.6,3.6c-5,1-9.7,1.8-13.8,2.3
		c-2,0.2-3.9,0.5-5.5,0.5s-3.1,0.1-4.3,0.1l-3.7-0.2l3.7,0.1c1.2,0,2.6-0.2,4.3-0.3c1.6-0.1,3.5-0.4,5.5-0.6c4-0.6,8.7-1.4,13.7-2.4
		c5-1.1,10.2-2.4,15.5-3.8c10.5-2.7,20.9-6,28.4-8.9c1.9-0.8,3.6-1.4,5.1-2.1c1.3-0.5,2.6-1.2,3.8-1.9
		C505.2,205.1,506,204.6,506.7,204l0.7-0.6L506.7,204z"/>
	<path class="st1" d="M491.5,373.4v-97.9h21.2c6.3,0,11.5,1.9,15.4,5.9c3.9,3.9,5.9,9,5.8,15.4v19.3c0,6.4-1.9,11.6-5.8,15.5
		s-9,5.8-15.5,5.8H507v36H491.5z M507,322.9h5.8c3,0.2,5.6-2.2,5.8-5.2c0-0.2,0-0.4,0-0.6v-21.4c0.2-3-2.2-5.6-5.2-5.8
		c-0.2,0-0.4,0-0.6,0H507V322.9z"/>
	<path class="st1" d="M553.4,373.4v-97.9h15.5v41.7h11.6v-41.7h15.5v97.9h-15.5v-41.7h-11.6v41.7H553.4z"/>
	<path class="st1" d="M639,375.3c-6.4,0-11.5-2-15.4-5.9c-3.9-3.9-5.9-9-5.9-15.4v-59.2c0-6.4,1.9-11.6,5.8-15.5
		c3.9-3.9,9-5.8,15.5-5.8c6.4,0,11.5,2,15.4,5.9c3.9,3.9,5.9,9,5.8,15.4v59.2c0,6.4-1.9,11.6-5.8,15.5
		C650.6,373.4,645.4,375.3,639,375.3z M634.8,359.3c2.2,2.3,5.9,2.4,8.2,0.2c1.2-1.1,1.9-2.7,1.8-4.4v-61.3c0.1-3.2-2.4-5.9-5.6-6
		c-3.2-0.1-5.9,2.4-6,5.6c0,0.2,0,0.3,0,0.5v61.3C633.2,356.7,633.7,358.2,634.8,359.3L634.8,359.3z"/>
	<path class="st1" d="M682.1,373.4v-97.9h39.9V290h-24.5v27.3h19.3v14.4h-19.3V359h24.5v14.4H682.1z"/>
	<path class="st1" d="M740.7,373.4v-97.9h12.8l16.9,47.9v-47.9h15.5v97.9h-12.9l-16.7-47.5v47.5H740.7z"/>
	<path class="st1" d="M809,373.4v-97.9h15.5v97.9H809z"/>
	<path class="st1" d="M838.6,373.4l19.6-51.5l-17.6-46.4H857l9.4,24.7l9.4-24.7h16.5l-17.6,46.4l19.6,51.5h-16.5l-11.3-29.8
		l-11.3,29.8H838.6z"/>
	<path class="st2" d="M527.5,387.8c0.3,0,0.5,0.2,0.5,0.4c0,0,0,0.1,0,0.1c0,0.2-0.1,0.5-0.4,0.5c0,0-0.1,0-0.1,0h-17.4v82.9
		c-0.1,0.3-0.4,0.4-0.6,0.4c-0.2,0-0.3-0.2-0.4-0.4v-82.9h-17.4c-0.2,0-0.5-0.1-0.5-0.4c0,0,0-0.1,0-0.1c0-0.3,0.1-0.5,0.4-0.5
		c0,0,0.1,0,0.1,0L527.5,387.8z"/>
	<path class="st2" d="M569.6,388.2l11.2,83.4c0,0.4-0.1,0.6-0.3,0.6c-0.4,0-0.6-0.2-0.6-0.5l-2.8-21.5h-24.7l-2.8,21.5
		c0,0.3-0.2,0.5-0.7,0.5c-0.3,0-0.4-0.2-0.4-0.6l11.2-83.4c0-0.2,0.2-0.4,0.5-0.4h9C569.5,387.8,569.6,387.9,569.6,388.2z
		 M552.6,449.2H577l-8-60.4h-8.4L552.6,449.2z"/>
	<path class="st2" d="M633.6,470.3c-5.3,5.6-14.1,5.9-19.8,0.7c-3-2.8-4.6-6.7-4.4-10.8v-4.9c0.1-0.3,0.4-0.4,0.6-0.4
		c0.2,0,0.3,0.2,0.4,0.4v4.9c0,7.2,5.8,13,13,13s13-5.8,13-13v-7c0-3.2-0.7-6.5-2-9.4c-1.2-2.7-2.9-5.2-5-7.3l-6.5-6.3l-6.5-6.3
		c-2.1-2-3.8-4.4-5-7c-1.3-2.7-2-5.7-2-8.8v-8.2c0-7.8,6.3-14,14-14c7.8,0,14,6.3,14,14v4.9c0.1,0.3-0.1,0.6-0.4,0.6
		s-0.6-0.1-0.6-0.4c0-0.1,0-0.2,0-0.3v-4.9c0-7.2-5.8-13-13-13s-13,5.8-13,13v8.2c0,3.5,1,6.9,2.8,9.8c1.8,3,4.1,5.7,6.8,8
		c2.7,2.3,5.3,4.7,8,7.2c2.7,2.6,5,5.6,6.7,8.9c1.9,3.4,2.8,7.3,2.8,11.2v7C637.6,464,636.2,467.6,633.6,470.3z"/>
	<path class="st2" d="M686.5,418.4l16.2,53.4c0,0.3-0.1,0.4-0.4,0.4s-0.3-0.1-0.4-0.4l-15.9-52.5l-11.9,26.4v25.9
		c-0.1,0.3-0.4,0.4-0.6,0.4c-0.2,0-0.3-0.2-0.4-0.4v-83.4c0-0.3,0.2-0.5,0.4-0.5c0,0,0.1,0,0.1,0c0.3,0,0.5,0.2,0.5,0.4
		c0,0,0,0.1,0,0.1v55.6l25.1-55.6c0.1-0.4,0.3-0.5,0.5-0.5s0.3,0.1,0.3,0.4c0,0.2,0,0.3-0.1,0.4L686.5,418.4z"/>
	<path class="st2" d="M754.9,470.3c-5.3,5.6-14.1,5.9-19.8,0.7c-3-2.8-4.6-6.7-4.4-10.8v-4.9c0-0.2,0.1-0.5,0.4-0.5c0,0,0.1,0,0.1,0
		c0.3,0,0.5,0.1,0.5,0.4c0,0,0,0.1,0,0.1v4.9c0,7.2,5.8,13,13,13s13-5.8,13-13v-7c0-3.2-0.7-6.5-2-9.4c-1.2-2.7-2.9-5.2-5-7.3
		l-6.5-6.2l-6.5-6.3c-2.1-2-3.8-4.4-5-7c-1.3-2.7-2-5.7-2-8.8v-8.2c0-7.8,6.3-14,14-14c7.8,0,14,6.3,14,14v4.9
		c0.1,0.3-0.1,0.6-0.4,0.6s-0.6-0.1-0.6-0.4c0-0.1,0-0.2,0-0.3v-4.9c0-7.2-5.8-13-13-13s-13,5.8-13,13v8.2c0,3.5,1,6.9,2.8,9.8
		c1.8,3,4.1,5.7,6.8,8c2.7,2.3,5.3,4.7,8,7.2c2.7,2.6,5,5.6,6.7,8.9c1.9,3.4,2.8,7.3,2.8,11.2v7C759,464,757.5,467.6,754.9,470.3z"
		/>
</g>
</svg>
