<svg id="Camada_1" data-name="Camada 1" xmlns="http://www.w3.org/2000/svg" xmlns:xlink="http://www.w3.org/1999/xlink" viewBox="0 0 669.81 660"><defs><style>.cls-1{fill:url(#Gradiente_sem_nome_18);}.cls-2{fill:#cd1421;}.cls-3,.cls-4{fill:#e6eae9;}.cls-4{stroke:#e6ebec;stroke-miterlimit:10;stroke-width:2px;}</style><linearGradient id="Gradiente_sem_nome_18" x1="346.41" y1="17.64" x2="334.1" y2="286.18" gradientUnits="userSpaceOnUse"><stop offset="0" stop-color="#ed8506"/><stop offset="0.02" stop-color="#ec8207"/><stop offset="0.48" stop-color="#db4715"/><stop offset="0.82" stop-color="#d1221e"/><stop offset="1" stop-color="#cd1421"/></linearGradient></defs><path class="cls-1" d="M677.91,104.75h0l-1.73.66-2,.83-2.77.66c-1.88.51-4.39.89-7.26,1.56s-6.17,1.11-9.62,1.89c-7,1.39-15.16,3.1-23.84,5.08s-17.83,4.31-27,6.68c-6.4,1.76-12.77,3.51-18.94,5.31.31-1.12.6-2.23.89-3.32A217.61,217.61,0,0,0,616,112.68c18.46-8.52,35.81-20,46.82-31.5a68.74,68.74,0,0,0,7-8.3c2-2.42,3.42-5.47,4.53-7.39a25.68,25.68,0,0,0,1.67-5c.3-1.18.46-1.81.47-1.82h0L675,59.86a52.17,52.17,0,0,1-4.09,3.29c-2,1.14-3.78,2.41-6.48,3.82s-5.48,3-8.84,4.47c-3.2,1.64-6.8,3.26-10.58,5s-7.85,3.46-11.89,5.44c-8.34,3.67-17.11,7.77-26,11.78-5.52,2.62-11,5.21-16.43,7.8.6-3.47,1-6.27,1.13-8.27,48-15.31,75.08-66.08,67.24-93.17.29,45.93-86.61,102.7-172.06,120.26-51.92,10.66-23.56,54-76.88,70.84-14.91,4.71-18.92,2-26.92-6.57l0,0c3.06,1.1,6.22.48,8.9.75,2.57-.16,7.27-1.73,11.64-4a8.55,8.55,0,0,0,3.87-3.24s-9.48,4.7-15.26,4.34c-2.25-.74-4.78-.88-7.12-2.15a33.31,33.31,0,0,1-6.26-3.65,102.05,102.05,0,0,1-2-11.36c2.47,1.34,4.88,2.45,6.89,3.52a23.62,23.62,0,0,0,4,1.56l3.08,1.05,2.63.89-2.25-1.7c-.7-.54-1.55-1.18-2.51-1.93a21.59,21.59,0,0,1-3.1-2.61c-2.09-2.21-4.62-4.5-7-7.36-.9-1.12-3.19-7.94-3.39-10.3l8.76,4.48c6,2.13,9.87,3.29,9.87,3.29s-3.44-2.45-8.12-6.06l-7.18-7.3c-1.18-1.46-4.67-11.5-4.93-14.57a37.6,37.6,0,0,0,7.7,4,34.28,34.28,0,0,0,5.93,1.48l2.22.36-1.9-1.2a32.4,32.4,0,0,1-4.56-3.46,31.34,31.34,0,0,1-4.91-6,46.22,46.22,0,0,1-3.9-7.91c-.93-2.3-1.81-4.75-2.79-7.22-.17-.82-.36-1.63-.58-2.44,4.14,1.49,8.23,3.71,10.72,6.26-2.39-12-13.27-15.3-16.14-18.13-.21-.32-.43-.64-.65-1,0,0,0,0,0,0-.85-3.17,6.41-2.22,7.65-1.57-9.95-10.74-29.61-9.91-32.85-9.7A30.66,30.66,0,0,0,328,83c-11.23,3.18-20.83,13.34-24,23.64-8.2,2.81-10.59,11.37-10.59,11.37s16.24-1.65,25.42,5.66c5.11-5,8.15-3.63,9.91.65l-.15.07s.17.28.46.79c3.44,9.95,1.22,32.26,1.22,32.26-3.81,25.72-21.57,44.1-48.14,37.48C227.87,181.4,253.5,136.4,201,129,114.64,116.75,24.38,65.46,21.83,19.6,15.7,47.12,45.91,96.12,94.71,108.43c.28,2,.83,4.75,1.64,8.17-5.54-2.25-11.21-4.48-16.87-6.75-9.12-3.46-18.13-7-26.68-10.15C48.65,98,44.38,96.61,40.6,95S33,92.12,29.72,90.69s-6.36-2.7-9.1-3.92-4.63-2.39-6.69-3.4a49.27,49.27,0,0,1-4.29-3L8.09,79.24h0L8.67,81a26.31,26.31,0,0,0,2,4.88c1.23,1.84,2.8,4.81,5,7.1a70.56,70.56,0,0,0,7.53,7.85c11.7,10.78,29.73,21.18,48.69,28.53a216.24,216.24,0,0,0,31,9.52c.35,1.07.72,2.16,1.09,3.26-6.27-1.41-12.73-2.76-19.23-4.13-9.28-1.79-18.57-3.57-27.34-5s-17-2.64-24.12-3.59c-3.49-.57-6.88-.8-9.7-1.29s-5.44-.72-7.35-1.11l-2.81-.49-2.08-.7-1.77-.55,1.42,1a17.86,17.86,0,0,0,4.24,2.4,62.14,62.14,0,0,0,7,2.88c2.71,1.1,5.9,2,9.3,3.17,13.72,4.46,32.44,9,51.31,12.71,9.4,2,18.87,3.67,27.78,5.09s17.27,2.32,24.46,2.83c3.6.14,6.89.54,9.81.54s5.49.12,7.59,0l6.6-.51-6.58.8c-2.1.21-4.67.2-7.61.32s-6.25-.1-9.87-.22c-7.23-.4-15.63-1.28-24.59-2.46s-18.48-2.8-27.94-4.69c-18.87-4-37.55-8.85-51.25-13.52A110.6,110.6,0,0,1,15,129a17.73,17.73,0,0,1-4.13-2.59L9.5,125.32l1,1.49a15.29,15.29,0,0,0,3.48,3.8c3.63,3.29,8.75,6.65,15.4,10.35A162.24,162.24,0,0,0,52.72,151a216.63,216.63,0,0,0,27.8,7.58c4.8,1,9.65,1.77,14.44,2.42s9.56,1,14.16,1.4l2.35.11.32.78c-6.52-.06-13.3,0-20.07.29-16.65.66-33.22,2.39-45.66,4.12-6.22.87-11.43,1.63-15,1.79a17.6,17.6,0,0,1-4-.18,3.08,3.08,0,0,1-1.31-.89c.08-.06.08.61.86,1.22a9.8,9.8,0,0,0,3.86,1.7c3.55,1,8.83,1.48,15.14,1.93,12.64.86,29.58.73,46.46-.08,16.89-.52,33.78-1.69,46.36-3.22,6.29-.78,11.53-1.45,15.15-2.22a52.4,52.4,0,0,0,5.64-1.4,51.75,51.75,0,0,1-5.57,1.68,139.81,139.81,0,0,1-15.09,2.87c-12.6,1.76-29.49,3.24-46.42,4-16.94.52-33.91.36-46.6-.72a72.48,72.48,0,0,1-15.15-2.59,9.91,9.91,0,0,1-3.84-1.93,3.2,3.2,0,0,1-.8-1.27,3.08,3.08,0,0,0,.35,1.6,11.07,11.07,0,0,0,3.73,3.45c3.53,2.31,8.85,4.46,15.28,6.3,12.88,3.68,30.22,5.44,47.4,4.78a189.11,189.11,0,0,0,27.16-3q1.14,2.47,2.33,5a118.38,118.38,0,0,0-26.37,5.37c-4.92,1.62-9.72,3.41-14.12,5.37s-8.45,4-11.85,5.7a85.7,85.7,0,0,1-8.46,4.19,9.89,9.89,0,0,1-2.66.73l-1.16.19h0A6.65,6.65,0,0,0,58,209a8.46,8.46,0,0,0,2.47,2.3,18.06,18.06,0,0,0,4.62,2.2A30.65,30.65,0,0,0,71.26,215c9,1.52,20.41.23,30.81-3.16a84.44,84.44,0,0,0,25.83-13.61c.88,1.69,1.79,3.39,2.71,5.09-3,1.53-6,3.13-9,4.82a200.59,200.59,0,0,0-29.23,20c-3.78,3.17-6.88,6.07-9,8-1.13.92-2,1.91-2.59,2.24l-1.12.75,1.16-.19a14.47,14.47,0,0,0,3.15-.95c2.68-1,6.35-2.73,10.77-4.8,8.8-4.26,20.36-10.29,31.65-16.77,5.68-3.19,11.32-6.46,16.46-9.74s9.94-6.35,13.84-9.28c2-1.4,3.66-2.89,5.21-4.12a35.25,35.25,0,0,0,3.67-3.54,11.17,11.17,0,0,0,1.9-2.69l.61-1-.54,1a11.44,11.44,0,0,1-1.72,2.82,35.3,35.3,0,0,1-3.49,3.84,59,59,0,0,1-5,4.43A158.78,158.78,0,0,1,143.63,208c-5.13,3.36-10.75,6.72-16.41,10a350.63,350.63,0,0,1-32.11,16.14A104.69,104.69,0,0,1,84,238.35a14.85,14.85,0,0,1-3.23.76l-1.17.11a8,8,0,0,0,1.21.45,14.75,14.75,0,0,0,3.79.53,60.55,60.55,0,0,0,12.81-.94c10.26-1.7,22.92-6.26,34.54-12.87,3-1.75,6-3.61,8.83-5.57l1.41,2.24a62.1,62.1,0,0,0-8.66,7.51,71.32,71.32,0,0,0-6.42,7.88c-1,1.43-1.88,2.83-2.7,4.19h11.18c3.6-3.15,7.37-6.68,11-10.35,4.94-4.81,9.71-9.78,13.82-14.12l4.17-4.43c4.85-5.13,7.93-8.7,7.93-8.7s-2.69,3.89-7.19,9.35c-1.5,1.82-3.21,3.82-5.06,5.91-3.71,4.2-8,8.78-12.45,13.23-3.28,3.2-6.66,6.31-10,9.11h12.92c.89-1.1,1.73-2.23,2.51-3.38q.76,1.05,1.56,2.1l-.89,1.28h10.86c3-4.55,5.8-9,8.06-12.92.5-.87,1-1.73,1.43-2.56a66.11,66.11,0,0,0,4.28-9.19,17.83,17.83,0,0,0,.72-2.77c.15-.65.22-1,.22-1s0,.34-.14,1a17.79,17.79,0,0,1-.51,2.81,55.05,55.05,0,0,1-3.7,9.59c-.6,1.28-1.3,2.63-2,4-1.84,3.47-4,7.2-6.46,11H250.9a68.61,68.61,0,0,1,7.6-2.33,54.46,54.46,0,0,1,10.57-1.61,31.64,31.64,0,0,1,9.36,1A11.59,11.59,0,0,1,282,241a10.08,10.08,0,0,1,2.48,1.46l.2.17H357c.5-13.29.76-26.4.65-39,0-3-.06-5.87-.1-8.77-.19-11-.6-21.62-1.34-31.64-.64-8.48-1.51-16.55-2.73-24a156.06,156.06,0,0,0-6.53-27c-.31-.88-.63-1.73-1-2.57a55.33,55.33,0,0,0-6.92-13.12c-.51-.69-1-1.33-1.54-1.95a28.73,28.73,0,0,0-7.62-6.74,18.93,18.93,0,0,0-3-1.55l-1.06-.49,1.1.4a18.35,18.35,0,0,1,3.14,1.3,28.07,28.07,0,0,1,7.9,5.82c.72.73,1.44,1.51,2.16,2.38a59.35,59.35,0,0,1,7.75,12.59,106.22,106.22,0,0,1,4.87,12.42,147.84,147.84,0,0,1,4.58,17.83c.23,1.2.45,2.45.67,3.68,1.5,8.31,2.75,17.21,3.68,26.61,1.1,11,1.79,22.69,2,34.76,0,1.07,0,2.16,0,3.23.2,11.68.11,23.7-.18,35.89h86.67c-5-1.28-11.23-2.84-17.52-4a81.65,81.65,0,0,0-10.06-1.31c-1.6,0-3.18-.21-4.63-.05a21,21,0,0,0-4.12.43,17.27,17.27,0,0,0-3.4.83,9.75,9.75,0,0,0-2.55,1l-2.18,1.11,1.81-1.68a10.54,10.54,0,0,1,2.39-1.62,11.46,11.46,0,0,1,3.44-1.54,31.73,31.73,0,0,1,9.29-1.56,55.52,55.52,0,0,1,10.64.95,88.3,88.3,0,0,1,18.84,5.91c1.24.55,2.37,1.06,3.37,1.53h52.28c-1.07-2.43-1.65-3.91-1.65-3.91s.78,1.47,2.14,3.91h28.46l-.08-.1A197.8,197.8,0,0,1,521.11,221c-.81-1.33-1.59-2.63-2.27-3.87a48.21,48.21,0,0,1-3.83-9.36,63.65,63.65,0,0,0,4.74,8.85c.47.75,1,1.53,1.51,2.32a242.56,242.56,0,0,0,16.85,22.49l1,1.23H550c-.55-.75-1.1-1.5-1.66-2.24-2.73-3.67-5.58-7.35-8.37-10.83.48-.73,1-1.46,1.42-2.19a44.46,44.46,0,0,0,4.93,5.48,38.89,38.89,0,0,0,18.37,9.78h9.18a11.75,11.75,0,0,0,1.86-.57,8.54,8.54,0,0,0,2.91-1.93l-.84,0a9.54,9.54,0,0,1-2.39-.22,23.65,23.65,0,0,1-3.58-1.12,32.46,32.46,0,0,1-4.37-2.11c-6.27-3.41-13.83-9.17-21-15.34-4.72-4.16-9.28-8.47-13.23-12.42-2-2-3.81-3.87-5.42-5.6-4.84-5.17-7.76-8.88-7.76-8.88s3.3,3.37,8.46,8.19c1.36,1.28,2.85,2.69,4.44,4.16,4.36,4.08,9.43,8.74,14.66,13.24A173.71,173.71,0,0,0,568,235.81c1.46,1,2.89,1.69,4.14,2.38a22.85,22.85,0,0,0,3.39,1.42,10.05,10.05,0,0,0,2.32.42l.84.11a26.34,26.34,0,0,1-2.21-2.18c-.51-.7-1.12-1.54-1.81-2.51s-1.27-2-2-3.2a86.07,86.07,0,0,0-5.13-7.3,71,71,0,0,0-6.9-7.47,60.86,60.86,0,0,0-9.11-7c.43-.77.85-1.55,1.27-2.32,3,1.78,6,3.46,9.17,5,12,5.88,24.92,9.64,35.26,10.71a61.31,61.31,0,0,0,12.84.15,15.26,15.26,0,0,0,3.76-.77,8,8,0,0,0,1.18-.52l-1.18-.05a14.33,14.33,0,0,1-3.27-.55,105.26,105.26,0,0,1-11.33-3.48,348.87,348.87,0,0,1-33-14.13c-5.86-2.91-11.67-5.91-17-8.95A157.39,157.39,0,0,1,535,186.7a60,60,0,0,1-5.3-4.11,35.16,35.16,0,0,1-3.72-3.62,11,11,0,0,1-1.89-2.7l-.6-1,.66,1a11.52,11.52,0,0,0,2.07,2.57,35.79,35.79,0,0,0,3.87,3.31c1.63,1.13,3.37,2.52,5.47,3.78,4.06,2.69,9,5.51,14.38,8.41s11.16,5.87,17,8.7c11.68,5.77,23.6,11.08,32.63,14.78,4.54,1.79,8.32,3.33,11.06,4.12a14,14,0,0,0,3.19.76l1.18.12-1.17-.69c-.62-.29-1.54-1.22-2.72-2.07-2.29-1.84-5.57-4.53-9.53-7.46a201.4,201.4,0,0,0-30.41-18.2c-3.09-1.49-6.2-2.91-9.29-4.25q1.23-2.62,2.39-5.25a84.29,84.29,0,0,0,26.63,12c10.59,2.73,22,3.32,31,1.25a31,31,0,0,0,6-1.94,18.27,18.27,0,0,0,4.48-2.49,8.39,8.39,0,0,0,2.32-2.44,8,8,0,0,0,.56-.93,8.76,8.76,0,0,1-4.53,1.48,52,52,0,0,1-12.64-.4c-10.4-1.35-24-4.43-37.5-7.95-9.54-2.7-19-5.6-27.24-8.23-3.35-1.06-6.51-2.09-9.37-3-9.89-3.34-16.38-5.87-16.38-5.87l16.67,5c2.9.89,6.11,1.86,9.5,2.86,8.27,2.44,17.74,5.13,27.28,7.61,13.38,3.78,26.88,7.15,37.17,8.71,5.13.75,9.46,1.29,12.48,1a8.7,8.7,0,0,0,4.56-1.19l-1.17-.12a9.87,9.87,0,0,1-2.7-.56,87,87,0,0,1-8.7-3.66c-3.51-1.51-7.68-3.37-12.18-5s-9.42-3.18-14.43-4.5a118.3,118.3,0,0,0-26.66-3.71q1-2.56,2-5.1a188.41,188.41,0,0,0,27.3,1.33c17.19-.4,34.37-3.23,47-7.69,6.3-2.25,11.48-4.72,14.85-7.24a11.2,11.2,0,0,0,3.52-3.67,3,3,0,0,0,.24-1.62,3.09,3.09,0,0,1-.71,1.31,10,10,0,0,1-3.72,2.17,72.77,72.77,0,0,1-15,3.52c-12.59,1.86-29.52,3.07-46.46,3.61-17,.25-33.9-.18-46.58-1.15a142.12,142.12,0,0,1-15.24-1.92A53.19,53.19,0,0,1,531,155a51.07,51.07,0,0,0,5.71,1.05c3.67.55,8.94.89,15.27,1.28,12.65.75,29.58.88,46.47.34,16.9-.24,33.81-1.16,46.37-2.79,6.26-.84,11.5-1.64,15-2.87a9.67,9.67,0,0,0,3.75-1.93,2.91,2.91,0,0,0,.78-1.27,2.91,2.91,0,0,1-1.25,1,17.14,17.14,0,0,1-4,.43c-3.58.06-8.83-.37-15.09-.85-12.53-1-29.17-1.66-45.83-1.29-6.77.15-13.55.48-20.05.95l.27-.8,2.34-.25c4.56-.65,9.32-1.26,14-2.28s9.54-2,14.28-3.3a217.71,217.71,0,0,0,27.27-9.29A161.83,161.83,0,0,0,659,121.59c6.42-4.1,11.31-7.77,14.74-11.27a15.63,15.63,0,0,0,3.24-4c.6-1,.93-1.55.93-1.56ZM145.19,141.12c-4.29-.82-10.42-2-17.65-3.89a494.58,494.58,0,0,1-52.2-16.8c-18.54-7.34-36.63-16-49.16-24.26a76.16,76.16,0,0,1-8.26-6,65.88,65.88,0,0,1-5.75-5.4,33.15,33.15,0,0,1-3.05-4c-.67-1-1-1.46-1-1.46s.39.5,1.1,1.42a33.22,33.22,0,0,0,3.21,3.88,64.11,64.11,0,0,0,5.91,5.1c2.47,1.77,5.17,3.84,8.38,5.74,12.56,8,30.7,16.38,49.29,23.42a497.76,497.76,0,0,0,51.8,17.53c7.19,2,13.21,3.55,17.46,4.51l6.7,1.42Zm1.79-2.44h0c-1.47-.46-2.85-.91-4.15-1.34-2.66-.9-4.93-1.74-6.67-2.44-2.56-1.06-4-1.8-4-1.8l2.5.27,1.83.19c2.73.27,6.63.62,11.32,1.22a183,183,0,0,1,34,7.29,117.8,117.8,0,0,1,17.32,7.25,61.58,61.58,0,0,1,7.5,4.39,52.72,52.72,0,0,1,6.28,4.64,39.19,39.19,0,0,1,4.8,4.5A23.12,23.12,0,0,1,221,166.7l2.51,3.58L220,167.69a32,32,0,0,0-4-2.79c-1.62-1-3.31-2.21-5.38-3.25a125.88,125.88,0,0,0-14.11-6.75c-2.58-1.21-5.46-2.06-8.23-3.22s-5.74-2-8.66-3c-5.83-2-11.76-3.7-17.33-5.39S151.47,140.12,147,138.68Zm.39,45.63c-2.8,1.12-5.89,2.34-9.16,3.61-8.07,3.13-17.32,6.61-26.68,9.89-13.23,4.35-26.64,8.27-36.93,10.27A52.57,52.57,0,0,1,62,209.26a8.66,8.66,0,0,1-4.61-1.2A8.67,8.67,0,0,0,62,209c3,.06,7.32-.75,12.4-1.81,10.17-2.2,23.45-6.4,36.56-11,9.37-3.07,18.66-6.33,26.76-9.29,3.33-1.21,6.47-2.37,9.31-3.43l16.33-6S157.05,180.36,147.37,184.31Zm14.73-7.56h0c-2.07-.56-3.25-.94-3.25-.94s4.88-.68,12.07-1.58c3.62-.43,7.85-.83,12.44-1a104.59,104.59,0,0,1,14.46.48c2.47.27,4.93.69,7.35,1.17a63.46,63.46,0,0,1,7,1.88,43.37,43.37,0,0,1,6.33,2.72,27.2,27.2,0,0,1,5.24,3.29,18.77,18.77,0,0,1,3.87,3.51,13.87,13.87,0,0,1,2.45,3.13c1.14,1.9,1.69,3,1.69,3l-2.7-2a17.51,17.51,0,0,0-3.13-2,26,26,0,0,0-4.23-2.13,42.29,42.29,0,0,0-5.2-1.92c-1.81-.72-4-1-6-1.61a134.59,134.59,0,0,0-13.49-2c-9.3-1.09-18.9-1.53-26.15-2.47A84.94,84.94,0,0,1,162.1,176.75Zm8.44,20.67s4.79-1.37,12-2.85a132.42,132.42,0,0,1,27.06-2.71,86,86,0,0,1,14.7,1.47A52.14,52.14,0,0,1,231,195a44,44,0,0,1,5.75,2.45,23.91,23.91,0,0,1,4.44,2.94,16.85,16.85,0,0,1,2.87,2.89c1.27,1.9,1.86,2.94,1.86,2.94l-2.79-1.91a26.76,26.76,0,0,0-3.34-1.64c-1.21-.68-2.93-.89-4.51-1.48s-3.59-.7-5.52-1.12c-2-.17-4.09-.55-6.31-.68-4.4-.36-9.15-.55-13.93-.57-9.55-.18-19.27,0-26.63-.31A81.82,81.82,0,0,1,170.54,197.42Zm22,19.42a16.65,16.65,0,0,1,2.42-1.23,57.54,57.54,0,0,1,6.77-2.42A85.26,85.26,0,0,1,223.15,210a70.51,70.51,0,0,1,11.66.78,41.11,41.11,0,0,1,9.93,2.73,27.29,27.29,0,0,1,6.29,3.69c1.33,1.17,2,1.87,2,1.87s-1-.34-2.51-1a32,32,0,0,0-6.64-1.69,109.09,109.09,0,0,0-20.64-1.14c-7.57.11-15.22.51-21,.86h0C196.46,216.39,192.54,216.84,192.54,216.84ZM267.19,229a9.68,9.68,0,0,0-2.6-.84,17.48,17.48,0,0,0-3.45-.61,20.52,20.52,0,0,0-4.14-.18c-1.46-.06-3,.28-4.62.34a81.88,81.88,0,0,0-10,1.93c-6.75,1.68-13.46,3.84-18.53,5.49-2.52.85-4.69,1.42-6.19,1.89s-2.39.59-2.39.59,3.07-1.84,7.84-4.29a88,88,0,0,1,18.42-7.08,55.45,55.45,0,0,1,10.57-1.6,31.35,31.35,0,0,1,9.37,1,11.58,11.58,0,0,1,3.53,1.32,10.4,10.4,0,0,1,2.48,1.47l1.92,1.57Zm344-126.6c18.12-8.18,35.7-17.65,47.74-26.44,3.09-2.09,5.66-4.33,8-6.24a64.23,64.23,0,0,0,5.59-5.45,33.18,33.18,0,0,0,3-4.09l1-1.47-.93,1.52h0a35,35,0,0,1-2.79,4.2,65.56,65.56,0,0,1-5.42,5.76,75.57,75.57,0,0,1-7.86,6.53c-12,9-29.51,18.79-47.57,27.26a497.89,497.89,0,0,1-51,20c-7.1,2.35-13.16,3.88-17.38,5l-6.67,1.55,6.6-1.83c4.18-1.22,10.09-3.17,17.15-5.59A498.82,498.82,0,0,0,611.16,102.37ZM469.85,159.16a23.64,23.64,0,0,1,3-4,37.64,37.64,0,0,1,4.51-4.74,47.47,47.47,0,0,1,6-4.93,62.18,62.18,0,0,1,7.23-4.72,119.29,119.29,0,0,1,16.82-7.94c11.79-4.52,23.82-7.53,32.69-10.06,4.47-1.28,8-2.46,10.59-3.38l4-1.7-3.24,2.87a65,65,0,0,1-9.87,5.93c-8.48,4.28-20.24,8.44-31.63,12.86-2.9,1-5.68,2.22-8.47,3.33-2.69,1.28-5.5,2.25-8,3.55a117,117,0,0,0-13.61,7.36,60.83,60.83,0,0,0-5.12,3.52,30.37,30.37,0,0,0-3.82,3l-3.3,2.77Zm7.68,69.93c-1.53-.38-3.72-.81-6.29-1.51-5.15-1.33-12-3.07-18.83-4.33a81.56,81.56,0,0,0-10.07-1.31c-1.59,0-3.18-.21-4.63-.05a20.91,20.91,0,0,0-4.11.43,16.86,16.86,0,0,0-3.41.83,9.75,9.75,0,0,0-2.55,1l-2.17,1.12s.65-.62,1.81-1.69a10.14,10.14,0,0,1,2.38-1.62,11.58,11.58,0,0,1,3.44-1.54,31.46,31.46,0,0,1,9.29-1.56,55.63,55.63,0,0,1,10.65.95,88,88,0,0,1,18.83,5.91c4.91,2.16,8.09,3.81,8.09,3.81S479.06,229.42,477.53,229.09Zm14.15-21.77c-5.78,0-13.44.09-21,.44a109.23,109.23,0,0,0-20.54,2.43,32.05,32.05,0,0,0-6.52,2.1c-1.49.74-2.44,1.14-2.44,1.14s.62-.74,1.88-2a15.88,15.88,0,0,1,2.48-2,17.45,17.45,0,0,1,3.56-2.12,42.39,42.39,0,0,1,9.74-3.34,71.13,71.13,0,0,1,11.6-1.49A85.22,85.22,0,0,1,492,204.34a58.93,58.93,0,0,1,6.9,2,16.32,16.32,0,0,1,2.49,1.08S497.46,207.21,491.68,207.32Zm22.52-3.43.2,1a8.9,8.9,0,0,1,.12,1.07c-.11-.4-.2-.76-.3-1A1.62,1.62,0,0,1,514.2,203.89Zm-4.3-15.32h0c-7.33.76-17,1.18-26.56,2-4.77.32-9.5.8-13.87,1.43-2.21.27-4.23.78-6.25,1.08-1.9.54-3.79.91-5.44,1.45-1.55.7-3.25,1-4.41,1.76a25.87,25.87,0,0,0-3.24,1.85l-2.66,2.08s.52-1.08,1.67-3.06a17.13,17.13,0,0,1,2.69-3.06,24.19,24.19,0,0,1,4.24-3.21,45,45,0,0,1,5.6-2.8,54.63,54.63,0,0,1,6.55-2.12,85,85,0,0,1,14.59-2.37,132.29,132.29,0,0,1,27.17,1c7.31,1,12.18,2.1,12.18,2.1A81.64,81.64,0,0,1,509.9,188.57Zm8.89-24.14h0c-3.48.86-7.55,1.7-11.86,2.6s-8.88,1.81-13.33,3a125.48,125.48,0,0,0-12.9,3.73c-1.93.85-4,1.4-5.68,2.3a46.36,46.36,0,0,0-4.89,2.48,31.26,31.26,0,0,0-4,2.51,19.34,19.34,0,0,0-2.92,2.25l-2.53,2.16s.46-1.1,1.45-3a14.58,14.58,0,0,1,2.13-3.28,20.66,20.66,0,0,1,3.41-3.81,41.31,41.31,0,0,1,10.56-7.23,62.18,62.18,0,0,1,6.62-2.77c2.31-.76,4.66-1.51,7-2.09a110.22,110.22,0,0,1,26.4-2.8c7.17.09,12,.47,12,.47A72.74,72.74,0,0,1,518.79,164.43ZM676.6,105.89a18.48,18.48,0,0,1-4,2.84,110,110,0,0,1-15.71,7.68c-13.38,5.52-31.73,11.53-50.31,16.68-9.33,2.47-18.74,4.56-27.59,6.4s-17.21,3.13-24.39,4c-3.61.35-6.9.8-9.84.84s-5.5.22-7.61.15l-6.62-.4,6.61.1c2.11,0,4.65-.3,7.57-.49s6.19-.77,9.77-1.13c7.14-1,15.42-2.47,24.23-4.34s18.15-4.21,27.41-6.8c18.61-4.85,37-10.57,50.42-15.86,3.32-1.41,6.45-2.48,9.09-3.75a60.78,60.78,0,0,0,6.81-3.31,17.71,17.71,0,0,0,4.08-2.65l1.35-1.07Z" transform="translate(-8.09)"/><path class="cls-2" d="M278.6,541c3.2-4.19,6.8-8.93,10.73-14.1,3.55-4.73,6.64-10.32,10.18-16h-5.3c-2.57,5.06-4.9,10-7.63,14.26l-9.51,14.7c-2.93,4.32-6.07,7.65-8.36,10.62l-7.49,9.17,8.16-8.57C271.9,548.19,275.33,545.07,278.6,541Z" transform="translate(-8.09)"/><path class="cls-2" d="M242.78,532.07c4-2.89,8.24-6.64,13-10.5l7.43-6.13,4.72-4.63h-6l-1.51,1.74-6.77,6.56c-4.4,4.16-8.25,8.21-12,11.41l-10,8.1L223,545.69l9.23-6.34Z" transform="translate(-8.09)"/><path class="cls-2" d="M313.87,510.81c-7.33,21.35-17.05,42.67-30.58,61.48-9.05,12.6-20,23.86-32.64,32.27A228.58,228.58,0,0,1,231,616.65,82.19,82.19,0,0,1,210.77,625c-6.74,1.68-13.62,1-15.35-4.64s-.42-12.8,1.68-19a90.27,90.27,0,0,1,19.5-32.16c4.07-4.21,8.51-7.81,13.3-9.92a19,19,0,0,1,7.27-1.68c2.35-.16,4.82.66,7.24,1,4.46,1.21,9,2.89,10.86,6.34s-.1,7.5-2.29,10a27.38,27.38,0,0,1-13.49,8.34,17.53,17.53,0,0,1-5.7.33,17.76,17.76,0,0,0,5.75-.1,27.78,27.78,0,0,0,14.11-8c2.34-2.42,4.94-6.72,2.85-11.15-2.14-4.24-7-6.14-11.68-7.63-2.38-.46-4.75-1.41-7.63-1.39a21.33,21.33,0,0,0-8.27,1.55c-5.36,2.11-10.19,5.74-14.63,10a94.3,94.3,0,0,0-21.78,32.86c-2.4,6.63-4.72,14-2.52,22.46a13.5,13.5,0,0,0,9.56,9.18,27.34,27.34,0,0,0,12.52.13,88.43,88.43,0,0,0,22.37-8.07,237.69,237.69,0,0,0,20.76-11.61c14.06-8.56,26.27-20.16,36.46-33.16,16.25-20.77,27.78-44.41,36.53-67.82Z" transform="translate(-8.09)"/><path class="cls-2" d="M357.18,658.82c-3.56-1.41-7-4.78-9.95-9.19a69.53,69.53,0,0,1-7.61-16.16,141.81,141.81,0,0,1-6.86-44.14,138.08,138.08,0,0,1,2.11-25.05c1.51-8.39,4.18-17,6.24-25.59,1.89-8.66,4.09-17.29,5.61-25.92.13-.65.25-1.3.38-2H338l-.06.72c-.59,8.62-1.85,17.3-2.81,26.05-1.34,8.71-2.4,17.35-4,26a141.83,141.83,0,0,0-1.34,25.75A144.26,144.26,0,0,0,338.26,634a70.88,70.88,0,0,0,8.27,16.15c3.15,4.4,6.78,7.74,10.51,9.08a11,11,0,0,0,8.8-.22,15.81,15.81,0,0,0,2.77-1.54,16.31,16.31,0,0,1-2.82,1.45A10.75,10.75,0,0,1,357.18,658.82Z" transform="translate(-8.09)"/><path class="cls-2" d="M396.89,547.71c-.14-4,.22-8.61-.34-13.51s-1-10.25-1.5-15.89c-.26-2.43-.47-4.95-.7-7.5h-5.71c.53,2.8,1,5.54,1.6,8.2,1.08,5.53,2.11,10.74,3.05,15.56s1.13,9.31,1.67,13.26.78,7.44,1.08,10.29c.6,5.72.94,9,.94,9s0-3.28,0-9C396.92,555.21,396.91,551.72,396.89,547.71Z" transform="translate(-8.09)"/><path class="cls-2" d="M377.56,608c-1.25-3.18-3.29-6.8-4.2-11.47-1.41-4.5-1.95-9.84-2.67-15.57-.32-5.83-.63-12.1-.42-18.8s.45-13.76.82-21.09c.53-9.7,1.1-19.89,1.52-30.24h-9.17c.44,10.25.73,20.41,1,30.17.26,7.36.46,14.5,1,21.28s1.22,13.2,2,19.08c1.24,5.85,2.24,11.23,4.08,15.75,1.33,4.67,3.74,8.24,5.25,11.33a66.7,66.7,0,0,0,4.73,6.45c1.12,1.45,1.73,2.22,1.73,2.22l-1.55-2.36A63.28,63.28,0,0,1,377.56,608Z" transform="translate(-8.09)"/><path class="cls-3" d="M152.19,369V271.23h21.22q9.53,0,15.37,5.85t5.86,15.37v19.3q0,9.64-5.79,15.43T173.41,333h-5.78v36Zm15.44-50.42h5.78a5.51,5.51,0,0,0,5.79-5.79V291.42a5.52,5.52,0,0,0-5.79-5.79h-5.78Z" transform="translate(-8.09)"/><path class="cls-3" d="M213.93,369V271.23h15.44V312.9h11.57V271.23h15.44V369H240.94V327.31H229.37V369Z" transform="translate(-8.09)"/><path class="cls-3" d="M299.47,370.91q-9.53,0-15.37-5.85t-5.86-15.37V290.52q0-9.64,5.79-15.43t15.44-5.79q9.51,0,15.37,5.85t5.85,15.37v59.17q0,9.65-5.79,15.44T299.47,370.91Zm-4.18-16a5.78,5.78,0,0,0,10-4.18V289.49a5.79,5.79,0,1,0-11.57,0v61.23A5.61,5.61,0,0,0,295.29,354.9Z" transform="translate(-8.09)"/><path class="cls-3" d="M342.55,369V271.23h39.88v14.4H358V312.9h19.29v14.41H358v27.27h24.44V369Z" transform="translate(-8.09)"/><path class="cls-3" d="M401.08,369V271.23h12.73l16.85,47.85V271.23H446.1V369H433.23l-16.72-47.46V369Z" transform="translate(-8.09)"/><path class="cls-3" d="M469.25,369V271.23h15.43V369Z" transform="translate(-8.09)"/><path class="cls-3" d="M498.83,369l19.55-51.41-17.62-46.34h16.46l9.39,24.69L536,271.23h16.47l-17.63,46.34L554.4,369H537.93l-11.32-29.76L515.29,369Z" transform="translate(-8.09)"/><path class="cls-4" d="M251.8,383.32a.46.46,0,0,1,.52.52.45.45,0,0,1-.52.51H234.44v82.84a.52.52,0,0,1-1,0V384.35H216.05a.45.45,0,0,1-.52-.51.46.46,0,0,1,.52-.52Z" transform="translate(-8.09)"/><path class="cls-4" d="M293.92,383.74l11.19,83.35c0,.41-.12.61-.34.61s-.56-.16-.56-.5l-2.85-21.49H276.72l-2.85,21.49c0,.34-.24.5-.72.5-.29,0-.43-.21-.43-.65l11.19-83.35c0-.25.17-.38.51-.38h9Q293.92,383.32,293.92,383.74Zm-17.06,60.94h24.37l-8-60.33h-8.36Z" transform="translate(-8.09)"/><path class="cls-4" d="M357.79,465.77a14,14,0,0,1-24.18-10.16v-4.89a.52.52,0,0,1,1,0v4.89a13,13,0,1,0,26,0v-6.95a22.35,22.35,0,0,0-2-9.39,23.54,23.54,0,0,0-5-7.29l-6.51-6.28-6.5-6.28a24.28,24.28,0,0,1-5-7,19.77,19.77,0,0,1-2-8.74v-8.24a14,14,0,1,1,28,0v4.89a.52.52,0,1,1-1,0v-4.89a13,13,0,1,0-26,0v8.21a18.43,18.43,0,0,0,2.8,9.83,34.84,34.84,0,0,0,6.77,8c2.66,2.33,5.3,4.72,8,7.18a33.91,33.91,0,0,1,6.72,8.83,23.26,23.26,0,0,1,2.77,11.2v6.94A13.74,13.74,0,0,1,357.79,465.77Z" transform="translate(-8.09)"/><path class="cls-4" d="M410.68,413.91l16.2,53.35c0,.3-.13.44-.39.44s-.33-.13-.4-.38L410.2,415l-11.89,26.31v25.9a.46.46,0,0,1-.52.52.45.45,0,0,1-.51-.51V383.84a.52.52,0,1,1,1,0V439.4l25.11-55.55c.13-.35.3-.53.52-.53s.31.13.31.39a.91.91,0,0,1-.12.44Z" transform="translate(-8.09)"/><path class="cls-4" d="M479,465.77a14,14,0,0,1-24.19-10.16v-4.89a.52.52,0,0,1,1,0v4.89a13,13,0,1,0,26,0v-6.95a22.36,22.36,0,0,0-2-9.39,23.37,23.37,0,0,0-5-7.29l-6.5-6.28q-3.5-3.36-6.51-6.28a24.44,24.44,0,0,1-5-7,19.78,19.78,0,0,1-2-8.74v-8.24a14,14,0,1,1,28,0v4.89a.51.51,0,1,1-1,0v-4.89a13,13,0,1,0-26,0v8.21a18.52,18.52,0,0,0,2.8,9.83,34.88,34.88,0,0,0,6.78,8q4,3.5,7.94,7.18a34.16,34.16,0,0,1,6.73,8.83,23.37,23.37,0,0,1,2.76,11.2v6.94A13.74,13.74,0,0,1,479,465.77Z" transform="translate(-8.09)"/></svg>